<svg width="116" height="489" viewBox="0 0 116 489" fill="none" xmlns="http://www.w3.org/2000/svg">
<path d="M99.584 6.91195C99.584 8.27728 98.816 10.1973 97.28 12.6719C95.8294 15.0613 93.184 16.2559 89.344 16.2559C87.552 16.2559 85.248 15.9999 82.432 15.4879C74.752 14.2079 65.0667 13.5679 53.376 13.5679C46.0374 13.5679 40.1494 14.0799 35.712 15.1039C31.36 16.0426 27.52 16.5119 24.192 16.5119C20.864 16.5119 18.3467 16.2986 16.64 15.8719C14.9334 15.3599 14.08 13.9946 14.08 11.7759C14.08 10.6666 14.464 8.53328 15.232 5.37595C16 2.13328 17.1094 0.511948 18.56 0.511948C18.9867 0.511948 19.456 0.725281 19.968 1.15195C20.48 1.57861 21.2054 1.79195 22.144 1.79195C23.0827 1.79195 24.4907 1.66395 26.368 1.40794C35.328 0.469279 44.5867 -5.34058e-05 54.144 -5.34058e-05C63.7867 -5.34058e-05 71.7227 0.21328 77.952 0.639946C84.1814 0.98128 88.9174 1.53595 92.16 2.30395C95.4027 2.98662 97.4507 3.71195 98.304 4.47994C99.1574 5.16261 99.584 5.97328 99.584 6.91195ZM91.264 31.8719C91.264 32.6399 90.9654 33.9626 90.368 35.8399C89.7707 37.7173 88.9174 38.9973 87.808 39.6799C86.784 40.3626 85.248 40.7039 83.2 40.7039C81.2374 40.7039 78.3787 40.3199 74.624 39.5519C70.9547 38.7839 66.432 38.3999 61.056 38.3999C49.7067 38.3999 37.504 39.7653 24.448 42.4959C23.8507 42.5813 23.296 42.6239 22.784 42.6239C21.1627 42.6239 19.8827 42.1119 18.944 41.0879C18.0054 40.0639 17.536 39.0826 17.536 38.1439C17.536 37.1199 17.92 35.1146 18.688 32.1279C19.456 29.0559 20.9494 27.5199 23.168 27.5199C23.7654 27.5199 24.448 27.6906 25.216 28.0319C25.984 28.2879 26.6667 28.4159 27.264 28.4159C27.8614 28.4159 28.7574 28.2879 29.952 28.0319C38.7414 26.0693 46.976 25.0879 54.656 25.0879C62.4214 25.0879 69.9734 25.7279 77.312 27.0079C84.6507 28.2879 88.7894 29.1839 89.728 29.6959C90.752 30.2079 91.264 30.9333 91.264 31.8719ZM115.072 58.7519C115.072 59.6906 113.963 62.0799 111.744 65.9199C109.525 69.7599 107.136 72.7893 104.576 75.0079C102.016 77.1413 99.3707 78.2079 96.64 78.2079C92.7147 78.2079 88.0214 76.5866 82.56 73.3439C74.4534 68.4799 63.6587 66.0479 50.176 66.0479C41.728 66.0479 32.3414 67.1999 22.016 69.5039C11.6907 71.8079 5.33337 72.9599 2.94404 72.9599C1.8347 72.9599 1.0667 72.4053 0.640036 71.2959C0.213369 70.1013 3.52859e-05 68.5226 3.52859e-05 66.5599C3.52859e-05 64.5119 0.512035 62.4213 1.53604 60.2879C2.64537 58.0693 4.3947 56.9599 6.78404 56.9599C7.38137 56.9599 8.19204 57.0879 9.21604 57.3439C10.3254 57.5999 11.3494 57.7279 12.288 57.7279C13.2267 57.7279 14.336 57.3866 15.616 56.7039C19.712 54.5706 30.6774 53.5039 48.512 53.5039C60.544 53.5039 72.32 54.3999 83.84 56.1919C95.36 57.9839 102.315 59.4773 104.704 60.6719C106.155 61.3546 107.307 61.6959 108.16 61.6959C109.013 61.6959 110.165 61.1413 111.616 60.0319C113.152 58.9226 114.091 58.3679 114.432 58.3679C114.859 58.3679 115.072 58.4959 115.072 58.7519ZM112.896 185.664C113.408 185.664 113.664 187.371 113.664 190.784C113.664 194.112 113.067 198.251 111.872 203.2C110.677 208.149 109.483 211.307 108.288 212.672C107.179 214.123 105.429 215.232 103.04 216C100.736 216.768 98.176 217.152 95.36 217.152C91.52 217.152 88.2347 216.512 85.504 215.232C82.7734 214.037 78.9334 213.099 73.984 212.416C69.12 211.733 65.1094 211.392 61.952 211.392C58.7947 211.392 56.6187 211.52 55.424 211.776C54.2294 212.032 53.2907 212.16 52.608 212.16C50.048 212.16 48.768 209.856 48.768 205.248C48.768 202.176 49.152 199.531 49.92 197.312C50.688 195.008 51.3707 191.637 51.968 187.2C52.5654 182.763 52.864 179.776 52.864 178.24C52.864 176.96 52.352 176.32 51.328 176.32C50.3894 176.32 49.28 177.515 48 179.904C42.7947 189.547 36.608 197.739 29.44 204.48C22.272 211.136 16.256 214.464 11.392 214.464C9.68537 214.464 8.06404 214.08 6.52804 213.312C4.99204 212.544 3.96804 210.453 3.45604 207.04C2.94404 203.541 2.68804 201.28 2.68804 200.256C2.68804 199.232 2.94404 198.72 3.45604 198.72C4.05337 198.72 5.12004 199.36 6.65604 200.64C8.19204 201.835 9.6427 202.432 11.008 202.432C12.4587 202.432 15.1894 201.365 19.2 199.232C23.2107 197.099 27.4347 193.685 31.872 188.992C36.3094 184.213 38.528 181.184 38.528 179.904C38.528 179.392 38.016 179.136 36.992 179.136C36.0534 179.136 34.3467 179.563 31.872 180.416C29.4827 181.184 27.6907 181.568 26.496 181.568C25.3867 181.568 24.4054 181.227 23.552 180.544C22.784 179.776 22.1867 179.392 21.76 179.392C21.4187 179.392 20.9067 179.819 20.224 180.672C17.2374 185.024 15.1467 187.2 13.952 187.2C13.6107 187.2 13.44 186.987 13.44 186.56C13.44 186.048 13.5254 185.536 13.696 185.024C18.6454 173.333 21.12 165.568 21.12 161.728C21.12 159.68 20.48 158.656 19.2 158.656C18.6027 158.656 17.92 158.912 17.152 159.424C12.1174 162.667 8.57604 164.288 6.52804 164.288C4.48004 164.288 3.2427 163.691 2.81604 162.496C2.38937 161.216 2.17604 157.931 2.17604 152.64C2.17604 147.264 2.51737 144.576 3.20004 144.576C3.54137 144.576 4.2667 145.216 5.37604 146.496C6.5707 147.776 7.9787 148.416 9.60004 148.416C11.5627 148.416 15.0187 147.563 19.968 145.856C24.9174 144.149 29.8667 141.888 34.816 139.072C39.7654 136.256 43.0507 134.208 44.672 132.928C46.3787 131.563 47.4027 130.325 47.744 129.216C48.0854 128.021 48.5547 127.424 49.152 127.424C49.7494 127.424 51.2 128.448 53.504 130.496C54.528 131.264 55.808 131.733 57.344 131.904L70.144 133.312C71.5094 133.312 72.7894 133.099 73.984 132.672C75.1787 132.16 75.9894 131.904 76.416 131.904C77.952 131.904 78.72 133.227 78.72 135.872C78.72 136.64 78.5067 137.237 78.08 137.664C77.6534 138.091 76.8854 138.56 75.776 139.072C74.6667 139.499 72.6187 140.779 69.632 142.912C66.6454 145.045 64.8534 146.411 64.256 147.008C63.744 147.52 63.488 147.989 63.488 148.416C63.488 148.757 64.3414 148.928 66.048 148.928C72.704 148.928 77.2694 149.056 79.744 149.312C82.304 149.568 84.1814 149.696 85.376 149.696C86.5707 149.696 87.6374 149.525 88.576 149.184C89.5147 148.843 90.368 148.672 91.136 148.672C93.44 148.672 94.592 149.739 94.592 151.872C94.592 153.493 93.952 154.773 92.672 155.712C91.392 156.651 89.856 158.059 88.064 159.936C86.272 161.728 84.9494 163.221 84.096 164.416C83.2427 165.525 82.2614 166.635 81.152 167.744C80.128 168.768 79.2747 170.219 78.592 172.096C77.4827 174.656 75.0507 175.936 71.296 175.936C69.8454 175.936 68.4374 175.808 67.072 175.552C65.792 175.296 64.3414 175.168 62.72 175.168C61.0987 175.168 59.9467 175.339 59.264 175.68C58.6667 176.021 58.368 176.704 58.368 177.728L58.624 187.328L58.368 196.672C58.368 198.037 58.7947 199.061 59.648 199.744C60.5014 200.341 64.9814 200.683 73.088 200.768L83.712 200.896C88.32 200.896 91.4347 200.512 93.056 199.744C95.872 198.293 99.4134 196.843 103.68 195.392C108.032 193.856 110.72 191.296 111.744 187.712C112.171 186.347 112.555 185.664 112.896 185.664ZM61.568 139.968C61.568 139.371 60.8427 138.859 59.392 138.432C57.9414 137.92 55.936 137.664 53.376 137.664C50.816 137.664 48.9814 137.963 47.872 138.56C46.7627 139.072 43.776 141.035 38.912 144.448C34.1334 147.776 31.488 149.611 30.976 149.952C30.464 150.208 30.208 150.592 30.208 151.104C30.208 152.469 30.976 152.981 32.512 152.64C35.6694 151.872 39.8507 151.189 45.056 150.592C48.4694 150.165 52.0534 148.501 55.808 145.6C59.648 142.699 61.568 140.821 61.568 139.968ZM73.344 165.312C75.0507 165.312 76.3734 164.373 77.312 162.496C78.336 160.619 78.848 159.339 78.848 158.656C78.848 157.973 78.3787 157.504 77.44 157.248C76.5014 156.992 74.3254 156.864 70.912 156.864C67.584 156.864 64.3414 157.035 61.184 157.376C58.112 157.632 56.32 157.845 55.808 158.016C55.3814 158.187 54.9974 158.784 54.656 159.808C54.4 160.832 54.272 161.856 54.272 162.88C54.272 163.819 54.4427 164.459 54.784 164.8C55.2107 165.056 55.9787 165.184 57.088 165.184L65.024 164.928L73.344 165.312ZM27.776 171.2C28.2027 171.2 30.2934 170.688 34.048 169.664C37.888 168.555 40.6187 167.829 42.24 167.488C43.9467 167.147 45.2267 166.336 46.08 165.056C46.9334 163.691 47.36 162.453 47.36 161.344C47.36 160.149 46.848 159.552 45.824 159.552C45.1414 159.552 42.7094 160.235 38.528 161.6C34.432 162.88 31.9147 163.861 30.976 164.544C30.1227 165.227 29.2694 166.336 28.416 167.872C27.5627 169.323 27.136 170.261 27.136 170.688C27.136 171.029 27.3494 171.2 27.776 171.2ZM76.672 176.448C78.0374 176.448 79.3174 177.515 80.512 179.648C81.7067 181.781 82.304 183.573 82.304 185.024C82.304 186.389 81.92 187.456 81.152 188.224C80.4694 188.992 79.6587 189.376 78.72 189.376C77.7814 189.376 76.9707 189.248 76.288 188.992C73.728 187.968 70.9974 187.285 68.096 186.944C66.9014 186.859 65.92 186.603 65.152 186.176C64.384 185.664 64 185.195 64 184.768C64 184.341 64.2134 184.043 64.64 183.872C68.6507 182.336 71.3387 180.715 72.704 179.008C74.0694 177.301 75.392 176.448 76.672 176.448ZM109.44 273.152C109.44 273.92 108.117 275.2 105.472 276.992C102.912 278.784 99.6267 279.68 95.616 279.68C93.9094 279.68 90.752 279.467 86.144 279.04C81.6214 278.528 78.9334 278.272 78.08 278.272C77.2267 278.272 76.3734 278.784 75.52 279.808C74.6667 280.832 73.344 282.112 71.552 283.648C69.8454 285.184 68.736 286.08 68.224 286.336C67.7974 286.592 67.3707 286.72 66.944 286.72C65.7494 286.72 65.152 286.165 65.152 285.056C65.152 284.544 65.5787 283.52 66.432 281.984C67.3707 280.363 67.84 279.211 67.84 278.528C67.84 277.76 67.2427 277.333 66.048 277.248C64.9387 277.163 63.1894 277.12 60.8 277.12C58.496 277.12 56.064 277.248 53.504 277.504C50.944 277.675 49.408 278.187 48.896 279.04C48.4694 279.893 48.256 280.448 48.256 280.704C48 285.739 46.6774 288.256 44.288 288.256C42.4107 288.256 40.0214 286.251 37.12 282.24C36.4374 281.472 35.7974 281.088 35.2 281.088C34.6027 281.088 34.0054 281.131 33.408 281.216C23.5094 283.349 16.6827 284.416 12.928 284.416C10.5387 284.416 9.08804 283.648 8.57604 282.112C8.06404 280.491 7.80804 279.381 7.80804 278.784C7.80804 278.101 8.1067 277.376 8.70404 276.608C9.3867 275.755 9.98404 275.328 10.496 275.328C11.0934 275.328 11.52 275.413 11.776 275.584C12.1174 275.755 12.544 275.84 13.056 275.84C14.2507 275.84 16.64 275.328 20.224 274.304C23.808 273.195 26.752 272.512 29.056 272.256C31.4454 272 33.1094 271.616 34.048 271.104C35.072 270.592 36.224 269.525 37.504 267.904C38.8694 266.197 39.8934 265.344 40.576 265.344C41.2587 265.344 42.3254 266.453 43.776 268.672C44.7147 270.123 45.9094 270.848 47.36 270.848L53.76 270.592C55.9787 270.507 59.904 270.464 65.536 270.464C66.9014 270.464 68.352 270.208 69.888 269.696C71.424 269.099 72.3627 268.501 72.704 267.904C73.8987 265.941 75.0934 264.96 76.288 264.96C76.8 264.96 77.5254 265.259 78.464 265.856C79.4027 266.368 79.9147 266.837 80 267.264C80.1707 267.605 80.256 268.416 80.256 269.696C80.256 269.952 80.5974 270.293 81.28 270.72C82.048 271.061 82.816 271.275 83.584 271.36C90.3254 271.787 95.4027 272.384 98.816 273.152C99.6694 273.323 100.864 273.408 102.4 273.408C103.936 273.408 105.216 273.28 106.24 273.024C107.349 272.683 108.16 272.512 108.672 272.512C109.184 272.512 109.44 272.725 109.44 273.152ZM99.584 287.872C99.584 289.067 98.944 290.261 97.664 291.456C94.592 294.187 92.3734 296.405 91.008 298.112C89.6427 299.733 88.6614 300.843 88.064 301.44C87.4667 302.037 86.3574 302.549 84.736 302.976C83.1147 303.403 81.4507 303.616 79.744 303.616L76.16 303.488C74.368 303.488 71.0827 303.787 66.304 304.384C61.6107 304.981 59.0507 305.451 58.624 305.792C58.1974 306.048 57.728 306.176 57.216 306.176C55.0827 306.176 54.016 305.451 54.016 304C54.016 303.403 54.3147 302.336 54.912 300.8C55.5094 299.264 55.808 297.771 55.808 296.32C55.808 294.784 54.784 293.291 52.736 291.84C51.968 291.243 51.584 290.688 51.584 290.176C51.584 288.811 54.2294 288.128 59.52 288.128C61.6534 288.128 64.8107 287.829 68.992 287.232C73.2587 286.549 76.5014 286.208 78.72 286.208C80.9387 286.208 83.0294 286.336 84.992 286.592C87.04 286.848 88.1067 286.976 88.192 286.976C90.4107 286.976 92.1174 286.677 93.312 286.08C94.592 285.483 95.6587 285.184 96.512 285.184C97.4507 285.184 98.176 285.44 98.688 285.952C99.2854 286.464 99.584 287.104 99.584 287.872ZM84.608 296.32C85.632 296.32 86.4 295.936 86.912 295.168C87.424 294.4 87.68 293.888 87.68 293.632C87.68 293.291 87.04 292.949 85.76 292.608C84.5654 292.267 82.6454 292.096 80 292.096C76.5867 292.096 73.0454 292.523 69.376 293.376C65.792 294.144 63.7014 294.869 63.104 295.552C62.592 296.149 62.336 296.704 62.336 297.216C62.336 297.728 62.5494 297.984 62.976 297.984C63.488 297.984 63.9574 297.941 64.384 297.856C69.8454 296.576 74.9654 295.936 79.744 295.936L84.608 296.32ZM30.976 289.664C32.1707 289.664 33.7067 289.835 35.584 290.176C37.4614 290.517 39.6374 290.987 42.112 291.584C44.5867 292.096 45.8667 292.437 45.952 292.608C46.1227 292.693 46.208 292.821 46.208 292.992C46.208 293.76 45.184 294.741 43.136 295.936C41.088 297.131 36.608 298.283 29.696 299.392C22.784 300.416 17.6214 300.928 14.208 300.928C12.3307 300.928 11.392 300.075 11.392 298.368C11.392 297.515 11.7334 296.149 12.416 294.272C13.184 292.309 14.1654 291.328 15.36 291.328L17.152 291.584C20.0534 291.584 23.3387 291.115 27.008 290.176C28.544 289.835 29.8667 289.664 30.976 289.664ZM37.632 305.408C37.632 305.92 36.3947 307.328 33.92 309.632C31.5307 311.851 27.392 314.027 21.504 316.16C15.616 318.293 11.9467 319.36 10.496 319.36C9.04537 319.36 7.8507 318.891 6.91204 317.952C5.97337 317.013 5.50404 316.032 5.50404 315.008C5.50404 313.984 5.58937 313.173 5.76004 312.576C5.9307 311.979 6.14404 311.509 6.40004 311.168C6.74137 310.741 7.8507 310.144 9.72804 309.376C11.6054 308.523 13.4827 307.797 15.36 307.2C17.3227 306.517 18.9014 306.091 20.096 305.92C21.2907 305.749 22.784 305.664 24.576 305.664C26.4534 305.664 28.032 305.536 29.312 305.28C30.592 304.939 33.024 304.768 36.608 304.768C37.2907 304.768 37.632 304.981 37.632 305.408ZM104.704 306.944C104.704 308.565 103.296 310.784 100.48 313.6C100.139 313.941 99.84 314.411 99.584 315.008C99.4134 315.52 98.816 316.245 97.792 317.184C96.768 318.123 95.5307 318.592 94.08 318.592C92.7147 318.592 90.1547 318.805 86.4 319.232C82.6454 319.573 80.4267 319.872 79.744 320.128C79.0614 320.299 78.3787 320.384 77.696 320.384C77.0134 320.384 76.4587 319.829 76.032 318.72C75.6054 317.611 75.392 316.715 75.392 316.032C75.392 315.349 75.6907 314.368 76.288 313.088C76.8854 311.808 77.1414 310.784 77.056 310.016V309.12C77.056 307.243 78.2934 306.304 80.768 306.304L82.944 306.432C83.2854 306.432 84.9067 306.219 87.808 305.792C90.7094 305.28 93.0987 305.024 94.976 305.024L99.2 305.28L102.528 305.024C103.979 305.024 104.704 305.664 104.704 306.944ZM83.968 314.624C84.1387 314.624 85.0774 314.539 86.784 314.368C88.4907 314.112 90.1974 313.941 91.904 313.856C93.6107 313.771 94.7627 313.643 95.36 313.472C96.0427 313.216 96.5974 312.747 97.024 312.064C97.536 311.381 97.792 310.869 97.792 310.528C97.792 310.187 97.28 310.016 96.256 310.016C95.3174 309.931 93.952 309.888 92.16 309.888C90.368 309.888 88.576 310.101 86.784 310.528C84.992 310.869 83.8827 311.424 83.456 312.192C83.0294 312.96 82.816 313.472 82.816 313.728C82.816 313.899 82.944 314.112 83.2 314.368C83.456 314.539 83.712 314.624 83.968 314.624ZM73.088 309.376C73.088 310.485 72.448 311.68 71.168 312.96C69.9734 314.155 68.992 315.392 68.224 316.672C67.456 318.379 66.7307 319.403 66.048 319.744C65.3654 320 64.384 320.384 63.104 320.896C61.9094 321.323 59.6907 321.877 56.448 322.56C53.2907 323.243 51.1574 323.755 50.048 324.096C48.9387 324.352 48 324.48 47.232 324.48C46.464 324.48 45.824 324.267 45.312 323.84C44.8854 323.328 44.672 322.731 44.672 322.048C44.672 321.28 44.8427 320.341 45.184 319.232C45.6107 318.037 45.824 316.971 45.824 316.032C45.824 314.581 45.312 313.6 44.288 313.088C43.3494 312.576 42.88 312.064 42.88 311.552C42.88 311.04 43.3067 310.613 44.16 310.272C45.0134 309.845 46.1654 309.589 47.616 309.504C49.0667 309.419 50.3467 309.376 51.456 309.376C52.6507 309.376 53.5467 309.333 54.144 309.248C60.2027 307.883 65.6214 307.2 70.4 307.2C72.192 307.2 73.088 307.925 73.088 309.376ZM51.968 318.464C52.5654 318.464 53.5894 318.251 55.04 317.824C56.576 317.397 58.7947 317.056 61.696 316.8C63.0614 316.715 63.9574 316.203 64.384 315.264C64.896 314.24 65.152 313.557 65.152 313.216C65.152 312.875 64.5974 312.704 63.488 312.704C61.2694 312.704 58.9227 313.045 56.448 313.728C53.9734 314.411 52.4374 315.051 51.84 315.648C51.328 316.16 51.072 316.757 51.072 317.44C51.072 318.123 51.3707 318.464 51.968 318.464ZM113.024 323.2C113.024 323.968 112.213 325.845 110.592 328.832C108.971 331.733 107.52 333.44 106.24 333.952C104.96 334.464 102.997 334.72 100.352 334.72C97.792 334.72 95.4027 334.336 93.184 333.568C91.0507 332.715 88.3627 331.947 85.12 331.264C81.9627 330.581 80 330.24 79.232 330.24C78.5494 330.24 78.2507 330.923 78.336 332.288C78.4214 333.653 78.464 335.36 78.464 337.408C78.464 339.371 78.1654 341.931 77.568 345.088C76.9707 348.245 76.3734 350.251 75.776 351.104C75.1787 352.043 74.1974 352.512 72.832 352.512C71.552 352.512 70.6987 352 70.272 350.976C69.9307 350.037 69.76 348.416 69.76 346.112L70.272 334.848C70.272 333.227 70.1014 332.075 69.76 331.392C69.4187 330.709 68.7787 330.368 67.84 330.368C66.9867 330.368 61.4827 331.947 51.328 335.104C46.5494 336.555 42.7094 337.28 39.808 337.28C35.712 337.28 33.664 335.915 33.664 333.184C33.664 331.648 34.816 330.88 37.12 330.88C37.632 330.88 39.168 330.453 41.728 329.6C44.3734 328.747 48.128 327.893 52.992 327.04C57.9414 326.101 62.8054 325.376 67.584 324.864C69.376 324.608 70.8267 323.413 71.936 321.28C72.6187 320.085 73.3014 319.488 73.984 319.488C74.752 319.488 75.6054 320.213 76.544 321.664C77.568 323.115 78.5067 323.84 79.36 323.84C85.1627 323.84 89.3867 323.968 92.032 324.224L98.688 324.992C99.712 324.992 101.888 324.651 105.216 323.968C108.544 323.285 110.464 322.816 110.976 322.56C111.573 322.304 112.043 322.176 112.384 322.176C112.811 322.176 113.024 322.517 113.024 323.2ZM37.632 320.768C37.632 321.28 37.376 321.835 36.864 322.432C34.7307 324.907 33.536 326.443 33.28 327.04C33.024 327.552 32.2987 328.32 31.104 329.344C29.9947 330.368 28.3307 331.605 26.112 333.056C23.9787 334.507 20.9067 336.384 16.896 338.688C12.8854 340.907 10.5387 342.144 9.85604 342.4C9.2587 342.656 8.40537 342.784 7.29604 342.784C6.27204 342.784 5.20537 342.443 4.09604 341.76C3.07204 341.077 2.56004 340.096 2.56004 338.816C2.56004 337.536 2.68804 336.555 2.94404 335.872C3.28537 335.104 3.96804 334.336 4.99204 333.568C6.01604 332.8 8.57604 331.349 12.672 329.216C16.8534 327.083 20.2667 325.504 22.912 324.48C25.6427 323.456 27.6054 322.859 28.8 322.688C30.08 322.517 31.3174 322.219 32.512 321.792C33.792 321.28 34.688 320.853 35.2 320.512C35.712 320.085 36.224 319.872 36.736 319.872C37.3334 319.872 37.632 320.171 37.632 320.768ZM63.488 338.688C63.488 340.736 62.2934 343.083 59.904 345.728C57.6 348.373 54.8267 349.696 51.584 349.696C49.28 349.696 47.36 348.971 45.824 347.52C44.288 346.069 43.52 345.003 43.52 344.32C43.52 343.552 44.0747 342.997 45.184 342.656C46.2934 342.315 48.9814 341.205 53.248 339.328C57.6 337.451 60.3734 336.512 61.568 336.512C62.848 336.512 63.488 337.237 63.488 338.688ZM101.76 342.912C101.76 343.936 100.736 345.429 98.688 347.392C96.64 349.355 94.72 350.336 92.928 350.336C91.136 350.336 89.1734 348.843 87.04 345.856C84.9067 342.869 83.84 340.736 83.84 339.456C83.84 338.091 84.608 337.408 86.144 337.408C87.68 337.408 90.3254 337.963 94.08 339.072C97.8347 340.096 100.053 340.864 100.736 341.376C101.419 341.888 101.76 342.4 101.76 342.912ZM114.176 441.92C114.176 443.029 112.939 445.76 110.464 450.112C108.075 454.379 106.112 457.067 104.576 458.176C103.125 459.2 100.907 459.712 97.92 459.712C95.0187 459.712 91.3067 458.688 86.784 456.64C82.6027 454.933 79.872 454.08 78.592 454.08C77.3974 454.08 76.8 454.848 76.8 456.384C76.8 457.835 77.3547 464.875 78.464 477.504C78.6347 479.296 78.72 480.96 78.72 482.496C78.72 484.032 78.464 485.227 77.952 486.08C77.44 487.019 76.4587 487.701 75.008 488.128C73.5574 488.555 72.32 488.768 71.296 488.768C70.3574 488.768 69.5894 488 68.992 486.464C68.3947 484.928 67.84 481.557 67.328 476.352C66.9014 471.147 66.56 464.747 66.304 457.152C66.2187 453.995 65.4934 452.288 64.128 452.032C62.848 451.691 59.8614 451.52 55.168 451.52C50.4747 451.52 47.5734 451.819 46.464 452.416C45.44 452.928 44.8427 454.464 44.672 457.024C44.16 464.448 43.1787 469.568 41.728 472.384C40.2774 475.2 37.6747 478.144 33.92 481.216C30.2507 484.203 26.368 485.696 22.272 485.696C20.1387 485.696 17.5787 485.227 14.592 484.288C11.6907 483.349 10.24 482.539 10.24 481.856C10.24 481.173 11.6054 479.723 14.336 477.504C17.0667 475.2 20.352 473.237 24.192 471.616C28.032 469.995 30.848 467.563 32.64 464.32C34.5174 460.992 35.456 458.389 35.456 456.512C35.456 454.549 34.816 453.568 33.536 453.568C32.256 453.568 30.3787 454.037 27.904 454.976C25.4294 455.829 23.3387 456.768 21.632 457.792C14.976 461.803 10.0694 463.808 6.91204 463.808C2.9867 463.808 1.02404 460.821 1.02404 454.848C1.02404 453.141 1.4507 451.563 2.30404 450.112C3.2427 448.661 4.2667 447.68 5.37604 447.168C6.48537 446.571 7.80804 446.272 9.34404 446.272C10.88 446.272 12.3307 445.931 13.696 445.248C16.4267 444.139 22.4854 442.859 31.872 441.408C34.3467 441.067 35.8827 440.512 36.48 439.744C37.0774 438.891 37.376 437.44 37.376 435.392C37.376 433.259 37.1627 431.893 36.736 431.296C36.3947 430.613 35.712 430.272 34.688 430.272C33.7494 430.272 32.2134 430.613 30.08 431.296C22.3147 433.941 17.024 435.264 14.208 435.264C11.4774 435.264 9.60004 434.709 8.57604 433.6C7.63737 432.405 7.16804 430.485 7.16804 427.84C7.16804 422.805 8.32004 420.288 10.624 420.288C11.136 420.288 11.648 420.459 12.16 420.8C12.7574 421.056 13.3547 421.184 13.952 421.184C14.5494 421.184 16.2987 420.757 19.2 419.904C22.1867 419.051 25.0454 418.411 27.776 417.984C30.592 417.557 32.4694 417.088 33.408 416.576C34.432 416.064 35.0294 415.552 35.2 415.04C35.3707 414.443 35.456 413.205 35.456 411.328C35.456 409.877 36.1814 408.043 37.632 405.824C39.168 403.605 40.2774 402.496 40.96 402.496C41.6427 402.496 42.4534 402.837 43.392 403.52C44.416 404.117 45.056 404.843 45.312 405.696C45.568 406.549 45.7387 408.384 45.824 411.2C45.9094 413.931 47.0187 415.296 49.152 415.296L58.624 414.784C61.7814 414.613 63.7014 414.443 64.384 414.272C65.0667 414.101 65.6214 413.632 66.048 412.864C66.4747 412.096 66.816 410.475 67.072 408C67.328 405.525 67.712 403.733 68.224 402.624C68.736 401.515 69.888 400.96 71.68 400.96C73.5574 400.96 74.9227 401.643 75.776 403.008C76.7147 404.288 77.184 405.525 77.184 406.72C77.184 407.829 77.0987 408.768 76.928 409.536C76.8427 410.304 76.8 411.157 76.8 412.096C76.8 413.035 77.2267 413.76 78.08 414.272C78.9334 414.699 80.6827 415.04 83.328 415.296C90.8374 415.893 96.6827 416.917 100.864 418.368C105.045 419.819 107.136 421.312 107.136 422.848C107.136 423.787 106.283 425.323 104.576 427.456C102.869 429.589 100.565 430.656 97.664 430.656C96.128 430.656 94.2934 430.443 92.16 430.016C86.528 428.736 82.176 428.096 79.104 428.096C77.7387 428.096 76.8 428.437 76.288 429.12C75.8614 429.803 75.648 431.168 75.648 433.216C75.648 435.264 75.8614 436.757 76.288 437.696C76.8 438.549 78.1654 439.403 80.384 440.256C82.6027 441.109 85.632 441.792 89.472 442.304C93.312 442.816 97.664 443.072 102.528 443.072C107.392 443.072 110.421 442.816 111.616 442.304C112.811 441.707 113.536 441.408 113.792 441.408C114.048 441.408 114.176 441.579 114.176 441.92ZM48.896 439.104L54.272 438.72C56.4054 438.635 58.752 438.592 61.312 438.592C63.872 438.592 65.28 438.165 65.536 437.312C65.792 436.373 65.92 434.88 65.92 432.832C65.92 430.699 65.5787 429.248 64.896 428.48C64.2134 427.712 62.8054 427.328 60.672 427.328C58.5387 427.328 55.9787 427.456 52.992 427.712C50.0907 427.883 48.2987 428.139 47.616 428.48C46.9334 428.736 46.464 429.333 46.208 430.272C45.952 431.125 45.824 432.533 45.824 434.496C45.824 436.373 45.9947 437.611 46.336 438.208C46.7627 438.805 47.616 439.104 48.896 439.104Z" fill="#EEDAB3"/>
</svg>
