<svg width="174" height="168" viewBox="0 0 174 168" fill="none" xmlns="http://www.w3.org/2000/svg">
<rect width="169" height="55" rx="16" fill="#2E2E2E"/>
<path d="M21.056 40.848H44.672L47.04 37.84C47.04 37.84 49.664 39.856 51.296 41.232C51.2 41.584 50.848 41.744 50.368 41.744H21.312L21.056 40.848ZM24.928 29.232H40.672L42.912 26.448C42.912 26.448 45.44 28.336 46.976 29.648C46.88 30 46.528 30.16 46.048 30.16H25.184L24.928 29.232ZM22.784 18.704H43.104L45.408 15.792C45.408 15.792 48 17.776 49.568 19.12C49.472 19.472 49.088 19.632 48.64 19.632H23.04L22.784 18.704ZM60.832 31.088H65.952C66.304 29.008 66.336 26.8 66.4 24.432H60.832V31.088ZM70.656 19.152H63.392C62.304 20.464 61.056 21.744 59.68 22.928L61.248 23.504H68.192C69.088 22.288 70.048 20.496 70.656 19.152ZM75.52 24.432H70.304C70.208 26.832 70.08 29.008 69.664 31.088H75.52V24.432ZM81.76 36.72L81.888 40.304C82.912 40.688 83.168 41.104 83.168 41.808C83.168 43.28 81.824 43.952 76.064 43.952H72.48C69.12 43.952 68.384 43.312 68.384 40.848V35.024C66.4 39.12 62.208 42.416 53.184 44.848L52.896 44.368C61.696 40.88 64.704 36.816 65.76 31.984H60.832V32.944C60.832 33.232 59.68 34.192 57.824 34.192H57.184V24.88C55.84 25.84 54.432 26.672 53.024 27.344L52.768 27.024C56.32 24.208 59.904 19.088 61.568 14.64L66.688 15.952C66.56 16.304 66.304 16.432 65.408 16.368C65.024 16.976 64.608 17.616 64.128 18.224H70.688L72.704 16.24L76.128 19.248C75.872 19.504 75.52 19.568 74.848 19.632C73.376 20.88 71.232 22.448 69.184 23.504H75.2L76.928 21.648L80.512 24.368C80.32 24.624 79.872 24.912 79.232 25.04V32.144C79.2 32.432 77.376 33.168 76.16 33.168H75.52V31.984H71.904V32.336V39.984C71.904 40.496 72.064 40.624 73.152 40.624H76.416C77.6 40.624 78.688 40.624 79.2 40.592C79.648 40.56 79.872 40.496 80.064 40.176C80.384 39.728 80.864 38.416 81.408 36.72H81.76ZM72.96 33.616L73.248 33.424C81.728 35.024 79.072 41.104 75.968 38.928C75.584 37.104 74.176 34.96 72.96 33.616ZM106.496 23.152H100.48V25.584H106.496V23.152ZM93.696 19.152H85.376L85.152 18.224H93.696V14.8L98.4 15.216C98.368 15.664 98.08 15.952 97.28 16.08V18.224H102.72V14.8L107.488 15.216C107.456 15.664 107.168 15.952 106.336 16.08V18.224H109.92L111.84 15.824C111.84 15.824 113.856 17.488 115.072 18.64C115.008 18.992 114.688 19.152 114.208 19.152H106.336V20.816C106.336 21.104 104.96 21.552 103.328 21.584H102.72V19.152H97.28V20.944V20.976L100.64 22.256H106.208L107.776 20.624L111.104 23.024C110.944 23.248 110.528 23.536 109.92 23.632V26.864C109.888 27.12 108.192 27.792 107.104 27.792H106.496V26.512H100.48V26.96C100.48 27.216 98.944 27.952 97.568 27.952H97.12V21.136C96.704 21.424 95.584 21.712 94.304 21.712H93.696V19.152ZM86.848 21.712L87.104 21.488C95.072 21.424 92.768 27.536 89.536 25.68C89.216 24.208 87.968 22.576 86.848 21.712ZM84.896 26.992L85.152 26.768C93.216 26.928 90.464 33.104 87.296 30.928C87.104 29.488 86.048 27.856 84.896 26.992ZM93.376 25.392L93.856 25.552C92.896 28.464 90.944 34.064 90.624 35.376C90.368 36.208 90.176 37.232 90.208 37.936C90.24 39.28 91.52 40.24 91.392 42.576C91.328 43.888 90.368 44.816 88.768 44.816C88.064 44.816 87.392 44.368 87.168 43.408C87.648 40.624 87.52 38.32 86.848 37.936C86.432 37.68 85.984 37.552 85.344 37.488V36.88H86.784C87.264 36.88 87.392 36.88 87.744 36.304C88.352 35.248 88.352 35.248 93.376 25.392ZM105.28 35.28V36.336H109.92L111.488 34.448C111.296 34.48 111.072 34.512 110.88 34.512H110.336V33.296H107.36V33.84C107.36 34 106.912 34.256 106.304 34.48C106.272 34.864 106.016 35.152 105.28 35.28ZM110.336 29.584H107.36V32.368H110.336V29.584ZM96.832 32.368H99.552V29.584H96.832V32.368ZM114.208 37.264H106.784C108.928 38.896 112.384 40.016 115.488 40.432L115.456 40.784C114.144 41.168 113.216 42.288 112.864 44.112C109.632 42.704 107.264 40.432 105.76 37.264H105.28V43.952C105.28 44.24 103.68 44.816 102.304 44.816H101.664V39.824C99.2 41.776 95.904 43.28 92.224 44.304L91.968 43.888C95.264 42.256 97.92 39.824 99.616 37.264H92.64L92.384 36.336H101.664V34.224C101.152 34.384 100.544 34.512 100.064 34.512H99.552V33.296H96.832V34.096C96.832 34.352 95.488 34.992 94.272 34.992H93.856V27.408L96.928 28.656H99.264L100.672 27.152L103.744 29.392C103.584 29.616 103.2 29.872 102.656 29.968V33.712C102.656 33.808 102.4 33.936 102.08 34.064L104.352 34.288V27.408L107.488 28.656H110.048L111.52 27.12L114.592 29.424C114.464 29.616 114.048 29.872 113.504 29.968V33.712C113.472 33.872 112.8 34.16 112.064 34.352C112.672 34.8 114.112 35.888 115.104 36.752C115.008 37.104 114.688 37.264 114.208 37.264ZM128.672 31.472H135.232V23.664H128.768V29.52C128.768 30.192 128.736 30.832 128.672 31.472ZM141.216 31.472L143.328 28.72C143.328 28.72 145.696 30.576 147.104 31.856C147.04 32.208 146.656 32.368 146.208 32.368H139.008V43.44C139.008 43.856 137.344 44.784 135.968 44.784H135.232V32.368H128.608C127.936 37.936 125.28 42.288 118.56 44.848L118.304 44.528C122.656 41.424 124.448 37.392 124.896 32.368H117.344L117.088 31.472H124.96C124.992 30.832 125.024 30.192 125.024 29.52V23.664H118.4L118.112 22.736H125.024V15.024L129.92 15.504C129.856 15.952 129.6 16.272 128.768 16.4V22.736H135.232V14.992L140.192 15.504C140.128 15.952 139.872 16.272 139.008 16.4V22.736H140.736L142.72 20.144C142.72 20.144 144.928 21.936 146.304 23.152C146.208 23.504 145.856 23.664 145.408 23.664H139.008V31.472H141.216Z" fill="#EEDAB3"/>
<path d="M85.5 55V54.5H84.5V55H85H85.5ZM85 165H84.5V165.5H85V165ZM168.333 165C168.333 166.473 169.527 167.667 171 167.667C172.473 167.667 173.667 166.473 173.667 165C173.667 163.527 172.473 162.333 171 162.333C169.527 162.333 168.333 163.527 168.333 165ZM85 55H84.5V165H85H85.5V55H85ZM85 165V165.5H171V165V164.5H85V165Z" fill="#D0B585"/>
</svg>
