<svg width="169" height="248" viewBox="0 0 169 248" fill="none" xmlns="http://www.w3.org/2000/svg">
<rect width="169" height="55" rx="16" fill="#2E2E2E"/>
<path d="M36.952 31.344H44.152V22.8H36.952V31.344ZM25.816 31.344H32.952V22.8H25.816V31.344ZM45.656 19.888L49.464 22.768C49.24 23.024 48.824 23.344 48.152 23.472V34C48.12 34.256 46.136 34.96 44.824 34.96H44.152V32.272H36.952V43.472C36.952 43.888 35.224 44.848 33.688 44.848H32.952V32.272H25.816V34.16C25.816 34.544 24.056 35.44 22.424 35.44H21.848V20.208L26.104 21.872H32.952V14.864L38.136 15.344C38.072 15.792 37.816 16.144 36.952 16.272V21.872H43.864L45.656 19.888ZM67.928 31.344H73.432V22H68.632C68.568 25.552 68.472 28.624 67.928 31.344ZM59.896 31.344H64.088C64.6 28.624 64.696 25.552 64.696 22H59.896V31.344ZM77.4 31.344L79.256 28.272C79.256 28.272 81.432 30.352 82.584 31.728C82.52 32.08 82.168 32.24 81.72 32.24H68.664C70.072 35.76 74.04 39.024 82.168 40.944V41.328C80.184 41.712 79.064 42.736 78.872 44.944C71.672 42.032 69.08 36.72 68.056 32.24H67.736C66.296 38.288 62.488 42.32 52.344 44.944L52.088 44.432C59.576 41.392 62.648 37.552 63.896 32.24H52.216L51.96 31.344H56.216V19.568L60.344 21.136H64.696C64.696 19.184 64.664 17.104 64.664 14.896L69.848 15.376C69.784 15.888 69.432 16.208 68.664 16.304C68.632 18 68.632 19.6 68.632 21.136H73.112L74.968 19.216L78.552 21.936C78.36 22.192 77.912 22.448 77.272 22.576V31.344H77.4ZM93.464 15.248L93.688 14.992C104.888 15.632 102.68 23.696 98.552 21.552C97.656 19.248 95.384 16.72 93.464 15.248ZM107.576 42.416L109.848 39.504C109.848 39.504 112.408 41.456 114.008 42.8C113.912 43.152 113.56 43.312 113.08 43.312H84.28L84.024 42.416H96.856V32.752H87.768L87.512 31.824H96.856V23.632H86.424L86.168 22.736H106.392L108.632 19.92C108.632 19.92 111.128 21.808 112.664 23.12C112.568 23.472 112.216 23.632 111.736 23.632H100.984V31.824H105.336L107.512 29.104C107.512 29.104 109.944 30.928 111.416 32.24C111.352 32.592 110.968 32.752 110.552 32.752H100.984V42.416H107.576ZM124.088 22.928V19.664H116.184L115.96 18.768H124.088V14.896L128.792 15.312C128.76 15.76 128.504 16.08 127.672 16.176V18.768H134.136V14.896L138.872 15.312C138.84 15.76 138.584 16.08 137.752 16.176V18.768H140.792L142.68 16.272C142.68 16.272 144.856 17.968 146.072 19.152C146.008 19.504 145.688 19.664 145.208 19.664H137.752V22C137.752 22.256 136.664 22.672 135.224 22.768L135.512 22.864C135.352 23.248 135 23.568 134.136 23.472L133.688 24.656H139.608L141.528 22.096C141.528 22.096 143.704 23.856 145.016 25.072C144.92 25.424 144.6 25.584 144.152 25.584H133.304C132.6 27.248 131.8 29.136 131.192 30.576H134.008V26.32L138.712 26.768C138.648 27.216 138.392 27.536 137.528 27.664V30.576H139.576L141.464 28.016C141.464 28.016 143.608 29.776 144.856 30.96C144.76 31.312 144.44 31.472 143.992 31.472H137.528V34.896H140.44L142.392 32.24C142.392 32.24 144.632 34.064 145.944 35.312C145.848 35.664 145.496 35.824 145.048 35.824H137.528V39.792C137.528 40.08 136.024 40.688 134.616 40.688H134.008V35.824H125.88L125.624 34.896H134.008V31.472H131.032L129.624 33.008L126.328 30.672C126.68 30.416 127.192 30.128 127.704 29.904C128.28 28.72 128.984 27.12 129.56 25.584H125.72L125.464 24.656H129.912C130.392 23.408 130.808 22.256 131.032 21.52L134.136 22.448V19.664H127.672V22.128C127.672 22.448 126.264 22.928 124.696 22.928H124.088ZM118.264 22.096L118.52 21.936C127.16 23.024 124.152 29.552 120.824 27.184C120.6 25.392 119.448 23.344 118.264 22.096ZM123.832 31.44V39.024C126.232 40.624 129.88 41.008 136.12 41.008C139.64 41.008 142.584 40.976 146.136 40.784V41.168C144.664 41.456 143.864 42.832 143.672 44.304H134.936C128.472 44.304 125.784 43.024 123.192 39.984C122.712 39.408 122.328 39.472 121.976 40.016C121.368 40.816 119.96 42.608 119 44.112C119.064 44.432 118.936 44.656 118.648 44.816L116.28 41.04C117.528 40.528 119.128 39.728 120.408 39.152V30.96H116.536L116.408 30.032H119.928L121.688 27.696L125.464 30.736C125.208 31.024 124.728 31.28 123.832 31.44Z" fill="#EEDAB3"/>
<path d="M60.5 55V54.5H59.5V55H60H60.5ZM60 245H59.5V245.5H60V245ZM147.333 245C147.333 246.473 148.527 247.667 150 247.667C151.473 247.667 152.667 246.473 152.667 245C152.667 243.527 151.473 242.333 150 242.333C148.527 242.333 147.333 243.527 147.333 245ZM60 55H59.5V245H60H60.5V55H60ZM60 245V245.5H150V245V244.5H60V245Z" fill="#D0B585"/>
</svg>
