<svg width="239" height="128" viewBox="0 0 239 128" fill="none" xmlns="http://www.w3.org/2000/svg">
<rect width="239" height="128" fill="white" fill-opacity="0.25"/>
<path d="M12.38 20.8H27.62V22.42H12.38V20.8ZM13.28 27.2H26.74V28.8H13.28V27.2ZM11.26 34.32H28.76V35.94H11.26V34.32ZM47.14 31.96L48.54 32.32L48.42 34.98C48.34 36.42 47.72 36.9 45.88 36.9H42.32C40.62 36.9 40 36.42 40 34.72V30.36H39.94C38.8 33.52 36.44 35.58 31.98 37.46L31.24 35.96C35.22 34.34 37.32 32.76 38.36 30.36H33.04V25.56C32.66 25.88 32.28 26.18 31.88 26.48L31.2 25.06C33.36 23.4 35.5 21.08 36.92 18.74L38.26 19.34C38.02 19.76 37.76 20.18 37.48 20.6H44.9V21.92L42.56 24.3H47.1V30.36H41.44V34.24C41.44 35.26 41.72 35.5 42.8 35.5H45.46C46.74 35.5 47.06 35.28 47.08 34.24C47.08 33.76 47.12 32.46 47.14 31.96ZM42.82 21.96H36.5C35.86 22.78 35.16 23.56 34.42 24.3H40.46L42.82 21.96ZM34.52 25.72V28.92H38.84C39.08 27.98 39.2 26.92 39.26 25.72H34.52ZM40.36 28.92H45.6V25.72H40.78C40.72 26.9 40.58 27.96 40.36 28.92ZM45.94 33L44.96 34.08C44.28 33.4 43.16 32.32 42.54 31.82L43.44 30.78C44.06 31.3 45.22 32.3 45.94 33ZM58.1 24.36H55.48V26.32C56.28 26.98 57.68 28.22 58.34 28.84L57.48 29.98C56.96 29.48 56.16 28.72 55.48 28.1V37.32H54.04V28.24C53.36 29.88 52.52 31.48 51.66 32.78L51.12 31C52.14 29.54 53.34 26.94 54.04 24.52V24.36H51.38V22.94H54.04V19.1H55.48V22.94H58.1V24.36ZM58.96 37.32V20.42H67.88V37.28H66.42V35.84H60.42V37.32H58.96ZM66.42 25.12V21.92H60.42V25.12H66.42ZM66.42 26.56H60.42V29.76H66.42V26.56ZM60.42 31.18V34.36H66.42V31.18H60.42ZM85.88 24.86L85.16 34.78H88.74V36.26H71.26V34.78H83.54L83.78 31.72H73.92L75.52 21.94H71.88V20.42H88.18V21.94H77.2L76.7 24.86H85.88ZM76.44 26.38L75.78 30.2H83.9L84.22 26.38H76.44ZM98.78 28.28H107.14V33.36H97.28V21.14H100.46C100.78 20.42 101.12 19.56 101.26 19L102.9 19.2C102.74 19.66 102.44 20.46 102.16 21.14H106.92V26.18H98.78V28.28ZM95.46 23.18L94.28 24.2C93.66 23.22 92.3 21.3 91.62 20.36L92.76 19.48C93.46 20.4 94.8 22.2 95.46 23.18ZM105.44 24.86V22.48H98.78V24.86H105.44ZM99.72 35.28H108.82L108.52 36.74H99.52C96.74 36.74 95.46 36.3 93.94 34.46L91.72 37.26L91.08 35.54L93.14 33.04V27.5H91.24V26.02H94.62V33.02C95.9 34.88 97.18 35.28 99.72 35.28ZM98.78 32H105.66V29.64H98.78V32ZM115.56 23.12L114.34 24.02C113.72 22.92 112.58 21.16 111.84 20.12L113.02 19.28C113.78 20.34 114.94 22.02 115.56 23.12ZM116.48 33.14L115.94 31.86C118.58 30.6 120.78 29.14 122.56 27.24C122.44 26.86 122.3 26.48 122.14 26.1C120.48 27.48 118.62 28.62 116.52 29.58L116.02 28.3C118.06 27.42 120.02 26.26 121.52 24.96C121.3 24.58 121.06 24.22 120.8 23.84C119.42 24.78 117.96 25.6 116.5 26.22L115.96 24.9C118.06 24.08 120.08 22.88 121.68 21.58H116.76V20.18H128.3V21.58H123.76C123.16 22.08 122.54 22.58 121.9 23.06C122.58 23.96 123.1 24.82 123.5 25.74C124.82 24.84 126.08 23.92 127.32 22.78L128.18 23.74C126.78 25 125.48 26.04 123.96 27.04C123.96 27.06 123.98 27.08 123.98 27.1C125.3 28.04 127.96 30.12 128.66 30.74L127.84 31.92C127.28 31.42 125.46 29.88 124.32 28.94C124.4 29.58 124.44 30.26 124.44 30.98C124.44 33.66 123.64 34.4 121.26 34.4H119.58L119.34 33.02H120.92C122.56 33.02 123.06 32.54 123.06 30.78C123.06 30.04 123.02 29.38 122.92 28.72C121.1 30.5 119.28 31.72 116.48 33.14ZM119.72 35.42H128.84L128.54 36.82H119.62C116.98 36.82 115.62 36.24 114.02 34.28L111.72 36.92L111.04 35.32L113.3 32.94V27.34H111.26V25.9H114.8V32.92C116.04 34.88 117.18 35.42 119.72 35.42ZM145.02 35.28H148.88L148.6 36.64H145.12C142.78 36.64 141.18 35.7 140.2 33.74C139.76 35.1 139.18 36.2 138.4 37.38L137.28 36.52C138.9 34.24 139.5 32.18 139.7 28.48L140.98 28.58C140.92 29.68 140.84 30.62 140.7 31.46C141.12 33.08 141.82 34.24 142.94 34.82V26.32H139.22V25.08C139.06 25.32 138.88 25.56 138.72 25.78L137.68 24.92C138.96 23.16 140.22 20.92 140.84 18.94L142.18 19.3C141.96 19.98 141.68 20.64 141.38 21.32H148.8V22.72H140.66C140.24 23.48 139.8 24.24 139.32 24.94H148.46V26.38L147.44 28.62L146.26 28.1L147.1 26.32H144.28V30.1H148.14V31.48H144.28V35.24C144.52 35.26 144.76 35.28 145.02 35.28ZM134.24 26.32H137.52C137.5 27.08 137.32 34.22 137.28 34.84C137.22 36.22 136.54 36.6 135.12 36.6H133.84L133.6 35.2H134.72C135.7 35.2 135.92 34.96 135.96 34.08C136 33.14 136.14 28.72 136.16 27.62H134.24C134.16 32.08 133.58 34.26 132.14 37.36L131 36.36C132.36 33.8 132.9 31.42 132.9 26.76V23.6H131.38V22.18H134.56C134.24 21.04 133.92 20.06 133.68 19.3L135.06 18.96C135.34 19.74 135.7 20.92 136.04 22.18H138.14V23.6H134.24V26.32ZM159.04 31.6L159.08 32.4L159.12 33.06C158.64 33.12 157.7 33.26 156.64 33.42V37.4H155.24V33.64C153.62 33.88 152 34.12 151.3 34.24L151.14 32.74C151.76 32.68 153.52 32.44 155.24 32.2V29.24H151.78V27.82C152.3 26.6 152.92 24.9 153.44 23.2H151.38V21.8H153.88C154.18 20.76 154.44 19.76 154.64 18.9L156.06 19.16C155.9 19.84 155.64 20.78 155.34 21.8H158.82V23.2H154.9C154.32 25 153.68 26.82 153.24 27.84H155.28V24.32H156.64V27.84H158.8V29.24H156.64V31.98C157.74 31.82 158.66 31.66 159.04 31.6ZM168.78 25.68V27.08H162.3C162.08 27.92 161.86 28.68 161.66 29.34H167.62V30.8C167.04 31.76 165.74 33.72 164.98 34.8L167.3 36.2L166.54 37.52C164.76 36.38 161.5 34.38 159.7 33.36L160.34 32.06C161.24 32.58 162.5 33.32 163.76 34.08C164.46 33.1 165.4 31.66 165.94 30.76H160.16V29.34C160.38 28.66 160.6 27.88 160.8 27.08H158.76V25.68H161.16C161.36 24.88 161.56 24.06 161.72 23.24H159.52V21.86H162C162.2 20.86 162.36 19.88 162.48 19.02L164 19.2C163.88 19.98 163.7 20.88 163.5 21.86H168.34V23.24H163.2C163.02 24.06 162.84 24.88 162.64 25.68H168.78ZM174.1 39L173.62 38.18C174.62 37.7 175.08 37.04 175.08 36H173.94V33.9H176.02V36C176.02 37.2 175.52 38.28 174.1 39ZM195.68 23.2L194.42 24.04C193.88 23.04 192.64 21.04 192.02 20.14L193.22 19.38C193.84 20.24 195.06 22.16 195.68 23.2ZM201.56 31.18H198.36V34.32H196.94V24.04H201.3C200.32 23.36 199.16 22.6 198.56 22.2L199.28 21.2H196.94V19.92H207.52V21.16C206.6 21.78 204.52 23.1 203.32 23.84L203.62 24.04H207.62V32.42C207.62 33.86 207.06 34.26 205.52 34.26H204.08L203.8 33.04H205.16C206.02 33.04 206.24 32.86 206.24 31.9V31.18H202.96V34.08H201.56V31.18ZM205.14 21.2H199.34C199.96 21.6 201.1 22.34 202.16 23.04C203.16 22.44 204.42 21.68 205.14 21.2ZM201.56 27.04V25.22H198.36V27.04H201.56ZM202.96 27.04H206.24V25.22H202.96V27.04ZM199.68 35.34H208.8L208.54 36.76H199.58C196.92 36.76 195.58 36.34 194 34.32L191.84 36.94L191.1 35.5L193.3 32.96V27.24H191.12V25.8H194.72V32.94C196.02 35.02 197.12 35.34 199.68 35.34ZM198.36 28.26V29.98H201.56V28.26H198.36ZM202.96 28.26V29.98H206.24V28.26H202.96ZM24.38 57.36V50.98H17.08V49.5H24.38V46.08H25.86V49.5H28.66V50.98H25.86V57.76C25.86 60.02 25.4 60.54 23 60.54H20.36L20.04 59.04H22.62C24.18 59.04 24.38 58.74 24.38 57.36ZM16.26 50.22L15.08 51.2C14.4 50.26 13.06 48.42 12.32 47.48L13.44 46.56C14.16 47.48 15.5 49.22 16.26 50.22ZM17.74 52.84L18.84 52C19.48 52.84 21.2 55.1 21.94 56.14L20.76 57.06C20.06 56 18.44 53.74 17.74 52.84ZM20.32 62.12H28.88L28.58 63.62H20.1C17.32 63.62 15.96 63.1 14.5 61.14L11.74 63.96L11.14 62.32L13.76 59.74V54.42H11.3V52.94H15.26V59.74C16.48 61.62 17.56 62.12 20.32 62.12ZM44.28 51.28V56.28H48.72V57.84H31.2V56.28H35.48V51.28H31.78V49.76H35.48V45.98H37.1V49.76H42.7V45.98H44.28V49.76H48.14V51.28H44.28ZM42.7 51.28H37.1V56.28H42.7V51.28ZM32.26 64.28L31.38 62.96C33.2 61.98 35.66 60.12 37.32 58.66L38.34 59.88C36.68 61.28 34.06 63.16 32.26 64.28ZM41.56 59.92L42.5 58.66C44.02 59.66 46.92 61.72 48.44 62.92L47.44 64.2C45.88 62.9 43.12 60.9 41.56 59.92ZM53.02 55.38V47.26H67.6V61.84C67.6 63.58 66.96 64.1 65.1 64.1H63.06L62.82 62.56H64.64C65.84 62.56 66.04 62.36 66.04 61.32V58.54H61.02V63.98H59.48V58.54H54.46C54.28 60.9 53.74 62.46 52.56 64.46L51.14 63.72C52.76 61.08 53.02 59.9 53.02 55.38ZM59.48 52.24V48.76H54.56V52.24H59.48ZM61.02 52.24H66.04V48.76H61.02V52.24ZM54.54 57.04H59.48V53.74H54.56V55.92C54.56 56.32 54.56 56.68 54.54 57.04ZM61.02 53.74V57.04H66.04V53.74H61.02ZM88.8 59.28L88.78 60.78L85.66 60.92V64.38H84.08V61C78.94 61.24 71.4 61.6 71.22 61.6L71.14 60.1L74.12 59.96V48.74H71.64V47.3H88.34V48.74H85.66V59.44C87.48 59.34 88.74 59.28 88.8 59.28ZM84.08 51.46V48.74H75.66V51.46H84.08ZM84.08 52.84H75.66V55.6H84.08V52.84ZM75.66 57V59.9L84.08 59.5V57H75.66ZM100.6 49.76H99.1C98.96 50.88 98.74 52.16 98.48 53.26H101.18V54.7H91.16V53.26H93.72C93.54 52.18 93.24 50.6 93.02 49.76H91.66V48.34H95.56C95.4 47.7 95.22 47.08 94.96 46.38L96.44 46.02C96.7 46.8 96.92 47.54 97.12 48.34H100.6V49.76ZM108.46 48.82L106.8 53.92C108.22 55.78 108.7 57.06 108.7 58.64C108.7 60.9 107.84 61.78 105.56 61.78H104.42L104.12 60.36H105.16C106.72 60.36 107.28 59.88 107.28 58.4C107.28 57.14 106.7 55.86 105.32 54.22L106.94 48.8H103.58V64.42H102.16V47.32H108.46V48.82ZM97.74 49.76H94.44C94.64 50.72 94.96 52.26 95.14 53.26H97.12C97.38 52.16 97.6 50.84 97.74 49.76ZM93.72 64.06H92.32V56.52H99.96V62.72H93.72V64.06ZM98.56 61.36V57.94H93.72V61.36H98.56ZM118.46 54.18L118.58 55.1L118.64 55.66C117.9 55.88 116.88 56.18 115.82 56.48V61.82C115.82 63.56 115.34 63.98 113.4 63.98H111.66L111.36 62.42H112.92C114.1 62.42 114.3 62.26 114.3 61.28V56.94C113.22 57.26 112.2 57.56 111.5 57.8L111.18 56.28C112 56.06 113.14 55.76 114.3 55.44V51.34H111.48V49.84H114.3V46.08H115.82V49.84H118.38V51.34H115.82V55C116.78 54.72 117.72 54.44 118.46 54.18ZM118.9 47.6H128.8V49.12H125.5V61.58C125.5 63.38 124.78 63.98 122.68 63.98H120.4L120.08 62.44H122.26C123.58 62.44 123.9 62.2 123.9 61.2V49.12H118.9V47.6ZM148.98 62.98L148.24 64.36C146.44 63.48 145.02 62.56 143.88 61.44C142.78 62.48 141.42 63.44 139.66 64.46L138.82 63.14C140.56 62.2 141.88 61.34 142.92 60.38C141.86 59.06 141.08 57.46 140.44 55.36H140.02C139.94 59.32 139.36 61.2 137.34 64.44L136.12 63.68C138.2 60.62 138.62 58.86 138.62 54.02V48.72H143.02V46.1H144.46V48.72H148.62V50.12L148.04 52.34L146.6 52.16L147.08 50.16H144.46V53.88H147.52V55.26C146.84 57.36 146.04 58.98 144.84 60.42C145.92 61.44 147.26 62.26 148.98 62.98ZM136.98 53.18V62.08H133.94V63.32H132.66V56.18C132.32 56.8 131.96 57.4 131.54 58L131.02 56.4C132.28 54.62 133.32 51.88 133.84 49.22H131.46V47.8H137.74V49.22H135.22C134.88 50.64 134.5 51.94 134.04 53.18H136.98ZM143.02 53.88V50.16H140.02V53.88H143.02ZM133.94 60.6H135.74V54.62H133.94V60.6ZM146 55.36H141.88C142.4 57 143.04 58.3 143.88 59.38C144.84 58.26 145.48 56.98 146 55.36ZM166.64 50.1H168.84V51.64H166.64V61.44C166.64 63.44 166.04 64.04 163.72 64.04H161.26L160.96 62.44H163.28C164.86 62.44 165.1 62.2 165.1 60.98V51.64H158.96V50.1H165.1V46.1H166.64V50.1ZM153.48 63.54H152.04V47.7H158.12V62.06H153.48V63.54ZM156.7 54.12V49.26H153.48V54.12H156.7ZM163.44 57.8L162.14 58.5C161.48 57.18 160.26 54.96 159.62 53.88L160.84 53.2C161.48 54.26 162.8 56.56 163.44 57.8ZM153.48 55.6V60.48H156.7V55.6H153.48ZM186.38 49.76H173.6V52.34H172.08V48.32H179.5C179.32 47.7 179.02 46.78 178.84 46.3L180.4 46.02C180.56 46.42 181 47.72 181.2 48.32H187.92V52.36H186.38V49.76ZM181.22 52.5L181.9 51.14C183.28 51.86 187.12 53.94 188.76 54.92L188 56.26C186.22 55.14 182.76 53.26 181.22 52.5ZM177.96 51.16L178.78 52.5C176.88 53.78 174.22 55.34 171.92 56.48L171.26 55.04C173.52 54.02 176.18 52.48 177.96 51.16ZM186.38 57.8H180.82V62H188.36V63.46H171.66V62H179.2V57.8H173.64V56.34H186.38V57.8ZM194.6 53.84H208L207.82 61.06C207.7 63.32 206.96 63.98 204.18 63.98H201.88L201.6 62.58H203.78C205.9 62.58 206.24 62.2 206.32 60.72C206.34 60.22 206.5 55.76 206.5 55.24H194.56C194.44 59.04 193.94 61.22 192.42 64.2L191.12 63.46C192.86 60.06 193.16 58 193.16 52.82V47.02H207.14V51.98H194.6V52.98V53.84ZM205.66 50.58V48.4H194.6V50.58H205.66ZM196.12 56.86H203.72V61.84H196.12V56.86ZM197.5 60.58H202.32V58.1H197.5V60.58ZM17.46 73.96V75.3L15.92 80.06C16.92 81.68 17.5 83.38 17.5 84.76C17.5 86.92 16.78 87.64 14.84 87.64H13.94L13.66 86.26H14.46C15.78 86.26 16.14 85.9 16.14 84.48C16.14 83.44 15.6 81.86 14.52 80.32L16 75.32H13.42V91.26H12V73.96H17.46ZM25.04 86.8C25.96 87.92 27.2 88.76 28.96 89.54L28.06 90.8C24.38 88.92 22.8 86.82 21.76 82.76H20.06V89.3L23.06 87.8L23.28 89.24L18.64 91.4L18 90.06C18.54 89.76 18.64 89.62 18.64 89.18V74.1H27.36V82.76H23.06C23.4 83.92 23.8 84.9 24.3 85.74C25.38 85.04 26.5 84.2 27.46 83.32L28.3 84.36C27.26 85.22 26.1 86.1 25.04 86.8ZM25.98 77.82V75.42H20.06V77.82H25.98ZM25.98 79.14H20.06V81.46H25.98V79.14ZM34.1 93L33.62 92.18C34.62 91.7 35.08 91.04 35.08 90H33.94V87.9H36.02V90C36.02 91.2 35.52 92.28 34.1 93ZM67.52 73.94V77.56H54.46V80.18C54.46 85.38 54.16 87.62 52.24 91.34L51.12 90.44C52.64 87.38 53.06 84.96 53.06 80.12V73.94H67.52ZM66.16 76.48V75.08H54.46V76.48H66.16ZM62.2 84.12V85.24H67.74V89.44C67.74 90.82 67.28 91.2 65.58 91.2H63.86L63.66 90.14H65.2C66.24 90.14 66.42 89.92 66.42 89.28V86.26H62.2V88.1C62.82 88.06 63.38 88.04 63.86 88C63.68 87.68 63.52 87.38 63.4 87.12L64.32 86.78C64.7 87.42 65.26 88.54 65.66 89.36L64.7 89.66C64.6 89.48 64.5 89.26 64.38 89.02L57.54 89.34L57.48 88.28C57.96 88.28 59.4 88.22 60.88 88.16V86.26H56.64V91.12H55.28V85.24H60.88V84.12H56.02V80.92H60.88V79.76C58.8 79.84 56.78 79.9 55.3 79.94L55.22 78.86C58.7 78.82 64.06 78.62 67.44 78.38L67.5 79.44C65.98 79.54 64.1 79.62 62.2 79.7V80.92H67.02V84.12H62.2ZM57.36 81.94V83.12H60.88V81.94H57.36ZM65.72 83.12V81.94H62.2V83.12H65.72ZM84.26 81.02V83.5H88.28C88.26 83.84 88.1 87.14 88.06 87.48C87.96 88.98 87.28 89.28 85.86 89.28H85.04L84.78 87.84H85.56C86.44 87.84 86.66 87.64 86.74 86.96C86.76 86.72 86.9 85.2 86.9 84.94H84.26V91.36H82.9V84.94H80.54C80.3 88.08 79.24 89.64 76.68 91.54L75.62 90.36C78.22 88.44 79.04 87.34 79.18 84.94H75.94L76.34 79.64H79.22V77.06H75.96V75.68H79.22V73.1H80.6V75.68H82.9V73.08H84.26V75.68H87.64V81.02H84.26ZM74.56 73.12L75.92 73.48C75.5 74.96 75.04 76.34 74.56 77.64V91.34H73.16V80.84C72.68 81.78 72.16 82.68 71.58 83.54L70.9 81.88C72.1 80 73.6 76.6 74.56 73.12ZM82.9 77.06H80.6V79.64H82.9V77.06ZM84.26 79.64H86.28V77.06H84.26V79.64ZM79.22 81.02H77.6L77.36 83.5H79.22V81.02ZM80.6 83.5H82.9V81.02H80.6V83.3V83.5ZM100.1 86.16L100.12 86.66L96.8 87.08V89.24C96.8 90.74 96.38 91.16 94.7 91.16H92.74L92.48 89.76H94.12C95.24 89.76 95.42 89.58 95.42 88.66V87.26L91.44 87.78L91.32 86.4L95.42 85.88V84.96L97.52 83.16H94.74C93.84 83.96 92.88 84.72 91.82 85.52L91.08 84.46C91.68 84.04 92.24 83.6 92.8 83.16H91.8V81.94H94.2C94.8 81.38 95.36 80.82 95.9 80.22H91.32V78.94H94.52V76.74H92.08V75.52H94.52V73.08H95.9V75.52H98.08V76.74H95.9V78.94H96.96C98.02 77.6 98.92 76.18 99.68 74.64L100.82 75.26C100.14 76.62 99.42 77.82 98.6 78.94H100.02V80.22H97.62C97.12 80.82 96.6 81.38 96.04 81.94H99.34V83.14L96.8 85.34V85.7L100.08 85.28L100.1 86.16ZM104.96 85.94C105.92 87.34 107.18 88.64 108.86 89.92L107.94 91.34C106.28 90.06 105.02 88.74 104.02 87.3C102.92 88.72 101.48 90.06 99.62 91.46L98.64 90.16C100.66 88.74 102.14 87.44 103.22 85.98C102.4 84.42 101.84 82.74 101.48 80.86C101.18 81.42 100.84 81.96 100.48 82.46L99.58 81.3C100.92 79.32 102.34 75.58 102.8 73.08L104.26 73.24C104.02 74.3 103.72 75.36 103.38 76.4H108.72V77.82H107.4C106.98 81.22 106.28 83.74 104.96 85.94ZM102.5 78.78C102.8 81.04 103.3 82.9 104.14 84.56C105.14 82.74 105.68 80.64 106.04 77.82H102.88C102.76 78.14 102.62 78.46 102.5 78.78ZM112.5 78.3H111.28L110.92 73.2H112.88L112.5 78.3ZM128.089 78.28V83.28H132.529V84.84H115.009V83.28H119.289V78.28H115.589V76.76H119.289V72.98H120.909V76.76H126.509V72.98H128.089V76.76H131.949V78.28H128.089ZM126.509 78.28H120.909V83.28H126.509V78.28ZM116.069 91.28L115.189 89.96C117.009 88.98 119.469 87.12 121.129 85.66L122.149 86.88C120.489 88.28 117.869 90.16 116.069 91.28ZM125.369 86.92L126.309 85.66C127.829 86.66 130.729 88.72 132.249 89.92L131.249 91.2C129.689 89.9 126.929 87.9 125.369 86.92ZM145.029 84.16V88.86H152.609V90.34H135.429V88.86H143.429V84.16H137.169V82.66H143.429V78.56H138.669C138.089 79.84 137.429 80.98 136.649 82.06L135.309 81.24C136.829 79.22 137.929 76.84 138.689 73.86L140.209 74.22C139.929 75.24 139.629 76.18 139.309 77.04H143.429V73.12H145.029V77.04H151.869V78.56H145.029V82.66H151.189V84.16H145.029ZM156.009 74.14H171.449V88.6C171.449 90.5 170.789 90.98 168.869 90.98H166.569L166.289 89.56H168.369C169.609 89.56 169.889 89.34 169.889 88.2V75.56H157.549V91.14H156.009V74.14ZM158.809 77.9H168.689V79.26H158.809V77.9ZM159.969 81.4H167.469V87.72H159.969V81.4ZM161.369 82.72V86.4H166.069V82.72H161.369ZM184.609 75.82H191.909C191.869 76.5 191.589 87.52 191.569 88.24C191.509 90.2 190.709 90.86 188.549 90.86H185.629L185.349 89.32H187.989C189.689 89.32 190.109 89.02 190.169 87.52L190.449 77.3H183.949C183.389 78.52 182.729 79.66 182.089 80.58L180.909 79.8C182.249 77.86 183.469 75.24 184.129 72.92L185.509 73.3C185.269 74.1 184.969 74.96 184.609 75.82ZM179.129 78.42V80.42C179.969 81.1 181.129 82.1 181.849 82.82L180.989 84C180.449 83.42 179.769 82.74 179.129 82.16V91.4H177.729V81.58C177.089 83.44 176.249 85.2 175.369 86.58L174.829 84.82C175.849 83.18 176.889 80.78 177.549 78.42H175.309V76.94H177.729V73H179.129V76.94H181.389V78.42H179.129ZM189.669 86.94L188.449 87.52C188.309 87.18 188.169 86.8 187.989 86.4L181.909 86.92L181.489 85.6C182.809 83.46 183.949 80.6 184.529 78.68L185.889 79.14C185.269 81.02 183.949 84 183.229 85.38L187.409 85.04C186.869 83.8 186.309 82.54 185.909 81.72L187.069 81.14C187.749 82.52 189.089 85.42 189.669 86.94ZM195.569 77.84L195.149 77.08C196.069 76.64 196.489 76.04 196.489 75.08H195.429V73.18H197.329V75.08C197.329 76.18 196.889 77.18 195.569 77.84ZM198.249 77.84L197.829 77.08C198.749 76.64 199.169 76.04 199.169 75.08H198.109V73.18H200.009V75.08C200.009 76.18 199.569 77.18 198.249 77.84ZM211.985 79.38L210.725 78.7C212.005 76.94 213.025 74.86 213.725 72.94L215.045 73.36L214.445 74.94H220.145V76.32H216.685C217.065 76.9 217.485 77.56 217.785 78.12L216.625 78.78C216.205 78.06 215.545 76.98 215.145 76.32H213.805C213.265 77.42 212.665 78.44 211.985 79.38ZM206.705 76.32H205.985C205.305 77.48 204.485 78.64 203.645 79.62L202.625 78.44C203.925 77.14 205.445 74.52 206.105 72.98L207.505 73.34C207.305 73.84 207.045 74.38 206.765 74.94H211.745V76.32H208.345C208.765 76.88 209.265 77.6 209.605 78.16L208.405 78.86C208.005 78.2 207.185 76.98 206.705 76.32ZM206.725 78.82L208.005 79.38C207.665 80.14 207.305 80.86 206.945 81.52V91.24H205.465V83.78C204.825 84.6 204.105 85.4 203.205 86.2L202.525 84.86C204.285 83.16 205.625 81.14 206.725 78.82ZM217.305 81.46H220.225V82.96H217.305V88.82C217.305 90.58 216.745 91.12 214.645 91.12H212.145L211.845 89.6H214.245C215.605 89.6 215.805 89.36 215.805 88.36V82.96H208.165V81.46H215.805V79.34H217.305V81.46ZM213.225 86.84L212.085 87.88C211.345 86.92 210.025 85.44 209.305 84.66L210.425 83.66C211.105 84.4 212.445 85.88 213.225 86.84ZM13.72 101H26.28V106.32H13.72V101ZM15.32 105H24.7V102.34H15.32V105ZM28.92 108.16V109.5H16.38L15.96 111.58H26.08C26.04 112.12 25.84 114.58 25.78 115.16C25.52 117.42 24.82 117.96 22.02 117.96H17.82L17.54 116.46H21.56C23.54 116.46 23.92 116.28 24.08 114.82C24.12 114.36 24.24 113.34 24.26 112.9H14L14.7 109.5H11.12V108.16H28.92ZM32.26 115.7C32.26 114.1 33.4 112.98 35 112.98C36.6 112.98 37.74 114.1 37.74 115.7C37.74 117.3 36.6 118.44 35 118.44C33.4 118.44 32.26 117.3 32.26 115.7ZM33.32 115.7C33.32 116.68 34.02 117.38 35 117.38C35.98 117.38 36.68 116.68 36.68 115.7C36.68 114.72 35.98 114.02 35 114.02C34.02 114.02 33.32 114.72 33.32 115.7Z" fill="#EEDAB3"/>
</svg>
