<svg width="206" height="316" viewBox="0 0 206 316" fill="none" xmlns="http://www.w3.org/2000/svg">
<rect width="206" height="55" rx="16" fill="#2E2E2E"/>
<path d="M26.632 16.56L26.888 16.368C35.432 17.52 32.104 23.728 28.808 21.232C28.616 19.6 27.592 17.744 26.632 16.56ZM41.736 29.776L44.424 31.888C43.272 30.576 42.568 29.168 42.152 27.952H33.576C32.904 28.816 32.168 29.648 31.368 30.416L33.768 31.344H40.072L41.736 29.776ZM51.144 27.952H42.92C44.264 29.584 47.304 31.152 52.392 32.08L52.36 32.464C50.728 32.848 49.864 33.552 49.736 35.504C47.56 34.704 45.96 33.552 44.744 32.272C44.552 32.496 44.2 32.624 43.656 32.72C43.56 35.984 43.24 37.648 42.12 38.416C41.352 38.896 40.296 39.184 38.696 39.184C38.728 38.32 38.632 37.552 38.152 37.072C37.64 36.656 36.552 36.272 35.368 36.048V35.6C36.552 35.696 38.6 35.824 39.112 35.824C39.56 35.824 39.784 35.792 39.944 35.632C40.232 35.344 40.296 34.224 40.36 32.24H33.352V40.016C33.352 40.592 33.544 40.752 35.048 40.752H39.848C41.512 40.752 43.08 40.72 43.752 40.688C44.328 40.656 44.584 40.528 44.872 40.176C45.288 39.6 45.832 38.288 46.504 36.304H46.856L46.984 40.304C48.2 40.688 48.52 41.104 48.52 41.84C48.52 43.536 46.888 44.144 39.464 44.144H34.664C30.696 44.144 29.576 43.6 29.576 40.816V32.016C27.528 33.616 25.096 34.96 22.088 36.016L21.832 35.696C25.48 33.648 28.168 30.96 30.152 27.952H22.92L22.664 27.024H30.696C31.464 25.712 32.104 24.4 32.648 22.992H24.648L24.392 22.096H32.968C33.8 19.664 34.312 17.136 34.664 14.608L39.848 15.824C39.752 16.24 39.464 16.496 38.6 16.528C38.184 18.416 37.576 20.272 36.84 22.096H40.04C40.904 20.336 42.024 17.776 42.664 15.824L46.824 18.128C46.664 18.448 46.184 18.64 45.512 18.544C44.328 19.6 42.728 21.008 41.16 22.096H45L46.792 19.504C46.792 19.504 48.872 21.296 50.056 22.48C49.96 22.832 49.64 22.992 49.192 22.992H36.456C35.816 24.4 35.08 25.712 34.216 27.024H46.6L48.552 24.304C48.552 24.304 50.76 26.16 52.008 27.44C51.912 27.792 51.56 27.952 51.144 27.952ZM62.344 19.504H54.28L54.056 18.576H62.344V14.832L67.112 15.248C67.048 15.664 66.824 15.952 65.992 16.08V18.576H71.752V14.832L76.584 15.216C76.552 15.664 76.296 15.952 75.464 16.08V18.576H78.664L80.552 16.08C80.552 16.08 82.696 17.808 83.944 18.992C83.848 19.344 83.528 19.504 83.08 19.504H75.464V21.616C75.464 21.936 74.056 22.416 72.36 22.416H71.752V19.504H65.992V21.776C65.992 22.064 64.584 22.544 62.952 22.544H62.344V19.504ZM62.344 32.912H75.56V29.136H62.344V32.912ZM75.56 24.592H62.344V28.24H75.56V24.592ZM78.376 37.616L80.424 34.96C80.424 34.96 82.664 36.752 84.072 37.968C83.976 38.32 83.624 38.48 83.144 38.48H70.824V43.92C70.792 44.112 69.64 44.848 67.72 44.848H67.048V38.48H54.312L54.024 37.616H67.048V33.84H62.344V34.736C62.344 35.12 60.744 35.888 59.24 35.888H58.696V22.128L62.568 23.696H75.24L76.936 21.904L80.424 24.496C80.264 24.72 79.848 25.008 79.272 25.104V34.224C79.24 34.512 77.448 35.312 76.2 35.312H75.56V33.84H70.824V37.616H78.376ZM106.12 37.2H94.44C96.232 38.544 98.632 39.472 101.352 40.112C103.176 39.28 104.744 38.32 106.12 37.2ZM106.216 33.552H109.256V30.384H106.216V33.552ZM92.616 30.384V33.552H95.72V30.384H92.616ZM102.664 30.384H99.24V33.552H102.664V30.384ZM106.632 22.512H95.112V24.208H106.632V22.512ZM95.112 26.864H106.632V25.136H95.112V26.864ZM109.64 35.376L112.04 37.424C111.784 37.712 111.304 37.808 110.44 37.872C109 38.992 107.368 39.952 105.544 40.848C108.648 41.232 112.008 41.36 115.336 41.296V41.712C113.928 42.128 113.16 43.28 112.904 44.912C108.424 44.528 104.392 43.856 101 42.544C96.936 43.76 92.104 44.496 86.28 44.784L86.12 44.272C90.728 43.536 94.856 42.608 98.344 41.36C96.392 40.272 94.728 38.928 93.416 37.2H90.248L89.96 36.272H106.888L108.712 34.608L109.256 35.056V34.448H92.616V34.736C92.616 35.056 90.92 35.824 89.48 35.824H88.968V27.952L91.496 28.944V20.112L95.336 21.616H106.312L107.976 19.824L111.464 22.448C111.304 22.672 110.888 22.96 110.28 23.056V27.632C110.248 27.888 108.456 28.624 107.24 28.624H106.632V27.792H95.112V27.856C95.112 28.144 93.48 28.944 92.008 28.944H91.528L92.936 29.488H108.936L110.6 27.696L114.184 30.32C113.992 30.576 113.576 30.832 112.968 30.96V34.416C112.968 34.64 111.112 35.376 109.928 35.376H109.64ZM110.888 17.936L112.712 15.664C112.712 15.664 114.728 17.2 115.944 18.352C115.848 18.704 115.528 18.864 115.08 18.864H107.464V20.208C107.464 20.464 106.12 20.88 104.36 20.88H103.784V18.864H97.928V20.336C97.928 20.592 96.584 21.04 94.92 21.04H94.344V18.864H86.248L86.056 17.936H94.344V14.832L99.08 15.248C99.016 15.664 98.76 15.984 97.928 16.08V17.936H103.784V14.832L108.584 15.216C108.552 15.664 108.264 15.984 107.464 16.08V17.936H110.888ZM136.872 35.664V19.696C134.504 19.984 132.008 20.144 129.64 20.144L129.544 19.696C134.504 18.704 140.392 16.624 143.4 14.928L147.048 18.352C146.664 18.672 145.992 18.704 145 18.32C143.72 18.64 142.152 18.96 140.456 19.216V26.224H141.832L143.56 23.568C143.56 23.568 145.512 25.392 146.6 26.608C146.536 26.96 146.216 27.12 145.768 27.12H140.456V35.664H142.408L144.328 32.912C144.328 32.912 146.504 34.768 147.72 36.048C147.624 36.4 147.336 36.56 146.856 36.56H134.6L133.512 38.32L129.992 36.24C130.216 35.952 130.6 35.632 130.952 35.376V23.152L135.496 23.6C135.432 24.08 135.144 24.368 134.344 24.496V35.664H136.872ZM127.048 25.744L130.184 28.432C129.992 28.752 129.704 28.88 129 28.944C128.488 32.272 127.592 35.472 125.896 38.256C129.352 40.08 134.152 40.496 140.744 40.496C142.44 40.496 146.312 40.496 148.296 40.464V40.848C146.856 41.168 146.12 42.48 146.024 43.952H140.456C133.064 43.952 127.976 43.184 124.488 40.144C122.92 41.968 120.872 43.536 118.152 44.752L117.896 44.368C120.136 42.768 121.768 40.784 122.92 38.544C121.32 36.592 120.104 33.904 119.176 30.384L119.528 30.192C120.584 33.104 121.96 35.248 123.72 36.784C124.744 34.224 125.288 31.408 125.576 28.464H123.432L122.344 29.616L119.24 27.632C119.528 27.408 119.976 27.152 120.392 26.96C121.544 24.816 123.144 21.264 124.008 19.024H118.664L118.376 18.096H123.976L125.544 16.496L128.68 19.376C128.424 19.664 127.912 19.824 127.272 19.888C126.44 21.872 124.84 25.328 123.72 27.536H125.352L127.048 25.744ZM165.8 15.12L166.056 14.96C175.144 16.56 171.624 23.44 168.136 20.688C167.976 18.704 166.92 16.56 165.8 15.12ZM151.848 36.528L150.184 32.464C150.184 32.464 151.016 32.272 151.336 32.048C152.84 30.832 154.76 28.304 156.232 25.776C155.144 26.352 153.832 26.928 152.456 27.504C152.232 27.792 152.008 27.984 151.752 28.08L150.088 24.016C150.088 24.016 150.824 23.856 151.112 23.664C152.776 22.128 154.984 17.456 155.624 14.992L160.296 16.816C160.168 17.136 159.784 17.424 159.144 17.392C157.608 19.536 154.984 22.32 152.648 24.112C153.96 24.08 155.624 23.984 157.352 23.856C157.896 22.8 158.376 21.808 158.664 20.976L162.984 23.376C162.824 23.664 162.408 23.888 161.768 23.792C159.912 26.352 156.36 29.936 153.256 32.336C155.656 32.08 159.016 31.696 162.376 31.248L162.408 31.664C160.456 32.624 156.872 34.256 152.648 35.888C152.392 36.208 152.136 36.432 151.848 36.528ZM163.08 35.984L163.176 36.304C160.968 37.872 157.64 40.016 152.84 42.576C152.712 42.992 152.392 43.344 152.008 43.44L150.184 39.056C152.456 38.672 157.896 37.392 163.08 35.984ZM172.488 22.352H164.232C165.224 26.992 166.952 30.832 169.416 33.84C171.24 30.416 172.136 26.512 172.488 22.352ZM179.432 22.352H176.648C175.976 27.632 174.568 32.336 171.688 36.144C174.088 38.256 176.968 39.728 180.36 40.56L180.296 40.912C178.792 41.36 177.48 42.736 177 44.72C173.704 43.312 171.144 41.456 169.192 38.928C166.472 41.424 162.92 43.44 158.152 44.848L157.96 44.496C162.312 42.384 165.416 39.728 167.688 36.656C165.608 33.04 164.392 28.336 163.752 22.352H161.448L161.192 21.424H174.216L176.392 18.48C176.392 18.48 178.888 20.464 180.36 21.84C180.264 22.192 179.912 22.352 179.432 22.352Z" fill="#EEDAB3"/>
<path d="M33.5 55V54.5H32.5V55H33H33.5ZM33 313H32.5V313.5H33V313ZM88.3333 313C88.3333 314.473 89.5272 315.667 91 315.667C92.4728 315.667 93.6667 314.473 93.6667 313C93.6667 311.527 92.4728 310.333 91 310.333C89.5272 310.333 88.3333 311.527 88.3333 313ZM33 55H32.5V313H33H33.5V55H33ZM33 313V313.5H91V313V312.5H33V313Z" fill="#D0B585"/>
</svg>
