<svg width="253" height="128" viewBox="0 0 253 128" fill="none" xmlns="http://www.w3.org/2000/svg">
<rect width="253" height="128" fill="white" fill-opacity="0.25"/>
<path d="M34 41.78L32.76 42.72C32.26 41.8 31.68 40.8 31.08 39.74C30.06 41.56 28.74 43.38 26.94 45.44L25.84 44.18C27.74 42.08 29.12 40.14 30.14 38.12C28.92 36.04 27.68 33.98 26.78 32.54L27.98 31.72C28.76 32.96 29.82 34.68 30.88 36.48C31.62 34.64 32.12 32.7 32.44 30.5H26.46V28.96H33.92V30.5C33.5 33.5 32.9 35.88 31.88 38.14C32.66 39.44 33.4 40.7 34 41.78ZM39.58 40C40.68 41.56 42.12 42.96 44 44.4L43.02 45.8C41.2 44.3 39.76 42.86 38.62 41.32C37.34 42.9 35.68 44.38 33.46 45.98L32.44 44.64C34.8 43.04 36.48 41.6 37.72 39.98C36.16 37.42 35.28 34.46 34.74 30.48V28.96H42.74V30.48C42.06 34.6 41.2 37.5 39.58 40ZM41.2 30.48H36.22C36.72 33.9 37.46 36.44 38.66 38.6C39.94 36.46 40.62 33.94 41.2 30.48ZM62.94 28.64V33.62H49.66V35.38C49.66 40.52 49.32 42.72 47.4 45.96L46.16 45C47.76 42.24 48.18 40.58 48.18 34.96V28.64H62.94ZM61.44 32.36V29.94H49.66V32.36H61.44ZM62.5 35.62V36.9H51.28V35.62H62.5ZM63.72 40.3H56.06C55.1 41.46 53.66 42.9 52.78 43.76L60.06 43.42C59.48 42.72 58.88 42.04 58.4 41.52L59.48 40.7C60.56 41.86 62.4 43.92 63.36 45.12L62.32 46.14C62 45.74 61.56 45.22 61.08 44.64L50.86 45.22L50.56 43.88C52.14 42.58 53.36 41.32 54.26 40.3H50.08V39.02H63.72V40.3ZM72.4 31.72H70.94V30.54H66.42V29.26H70.94V27.7H72.4V29.26H77.64V27.7H79.1V29.26H83.64V30.54H79.1V31.72H77.64V30.54H72.4V31.72ZM75.74 35.28H83.66V36.52H78.48C79.9 37.14 82.42 38.32 83.66 38.96L83.08 40.14C81.7 39.46 79.1 38.18 77.66 37.58L78.2 36.52H71.8L72.34 37.48C70.72 38.52 68.64 39.64 66.86 40.5L66.26 39.2C67.9 38.5 69.9 37.42 71.44 36.52H66.36V35.28H74.28V33.8H67.88V32.56H74.28V31.26H75.74V32.56H82.14V33.8H75.74V35.28ZM80.52 38.96V39.96C79.36 41.18 78.18 42.18 76.68 43.02C78.42 43.6 80.62 44.02 83.58 44.38L83.16 45.76C79.6 45.32 77.04 44.72 75.04 43.84C73 44.7 70.38 45.38 66.74 45.98L66.36 44.68C69.44 44.2 71.72 43.68 73.5 43.06C72.58 42.52 71.8 41.92 71.06 41.22C70.12 41.88 69.02 42.5 67.78 43.1L67.08 42.04C69.72 40.74 72 39.02 73.38 37.48L74.32 38.26C74.12 38.5 73.92 38.74 73.7 38.96H80.52ZM72.16 40.4C73.02 41.22 73.96 41.86 75.1 42.4C76.42 41.78 77.42 41.04 78.3 40.16H72.44C72.36 40.24 72.26 40.32 72.16 40.4ZM96.86 33.74L96.02 32.5C97.86 31.4 100.14 29.46 101.6 27.78L102.64 28.82C101.12 30.58 98.82 32.46 96.86 33.74ZM96.84 35.58V37.02H94.38V45.64H92.94V37.02H90C89.92 41.38 89.4 42.92 87.4 45.82L86.06 45.02C88.06 42.36 88.52 41.1 88.6 37.02H86.32V35.58H88.62V35.36V30.3H86.74V28.84H96.34V30.3H94.38V35.58H96.84ZM90.02 35.58H92.94V30.3H90.02V35.32V35.58ZM96.84 39.6L95.98 38.34C98.14 36.98 100.4 35.02 102 33.18L103.04 34.28C101.38 36.16 99.1 38.1 96.84 39.6ZM102.7 38.38L103.72 39.42C102 41.46 99.76 43.84 96.24 45.8L95.34 44.5C98.76 42.74 101 40.34 102.7 38.38ZM107.26 45.66V28.68H122.72V42.98C122.72 44.98 122.18 45.5 119.88 45.5H117.68L117.38 44.04H119.48C120.94 44.04 121.22 43.82 121.22 42.54V30.12H108.78V45.66H107.26ZM115 40.44L113.8 41.2C113.46 40.44 113.02 39.52 112.56 38.56C111.8 40.16 110.98 41.6 110.16 42.84L109.04 41.98C110 40.58 110.94 38.9 111.82 37.04C110.94 35.28 110.06 33.54 109.46 32.46L110.58 31.8C111.06 32.68 111.78 34.06 112.52 35.5C113.06 34.22 113.56 32.88 114.02 31.5L115.24 31.94C114.66 33.68 114 35.4 113.28 37.02C113.92 38.28 114.54 39.5 115 40.44ZM120.82 41.66L119.68 42.38L117.9 38.74C117.16 40.26 116.34 41.68 115.5 42.98L114.36 42.16C115.32 40.68 116.28 39 117.14 37.22C116.36 35.68 115.6 34.24 115.06 33.3L116.14 32.54C116.6 33.36 117.18 34.48 117.82 35.72C118.42 34.36 118.96 32.96 119.38 31.58L120.58 32.02C120.04 33.8 119.36 35.56 118.6 37.26C119.4 38.82 120.2 40.42 120.82 41.66ZM139.12 34.84C140.4 35.64 141.96 36.26 143.86 36.72L143.36 38.12C141.18 37.54 139.42 36.76 137.96 35.72C136.46 36.76 134.66 37.6 132.4 38.3L131.82 37L131.48 37.46C130.98 37 130.52 36.6 130.06 36.2V45.68H128.66V36.52C128.04 38.1 127.3 39.62 126.54 40.8L125.8 39.3C126.88 37.74 128.02 35.08 128.64 32.76H126.32V31.3H128.66V27.46H130.06V31.3H132.1V32.76H130.06V34.48C130.94 35.16 131.68 35.72 132.36 36.3L131.88 36.94C133.86 36.36 135.46 35.66 136.78 34.8C135.98 34.06 135.24 33.24 134.58 32.28C134.04 33.02 133.46 33.68 132.9 34.26L131.98 33.22C133.42 31.78 135.08 29.06 135.8 27.28L137.24 27.74C137 28.26 136.74 28.8 136.44 29.34H142.4V30.68C141.52 32.3 140.46 33.66 139.12 34.84ZM135.4 31.08C136.12 32.2 136.94 33.16 137.92 33.98C139.02 33.06 139.92 31.98 140.7 30.68H135.66C135.58 30.82 135.5 30.96 135.4 31.08ZM134.84 45.82H133.44V38.48H141.94V45.82H140.54V44.62H134.84V45.82ZM140.54 43.3V39.82H134.84V43.3H140.54ZM163.82 44.28L162.94 45.76C160.6 44.64 158.64 43.46 157 42.12C155.28 43.54 153.18 44.76 150.54 45.94L149.72 44.52C152.22 43.46 154.2 42.36 155.82 41.08C153.98 39.32 152.62 37.3 151.66 34.9C151.28 39.16 150.06 42.14 147.4 45.64L146.12 44.66C148.88 41.2 150.02 38.36 150.3 33.66L150.46 30.2H147.14V28.74H160.44V30.22L158.16 33.78H162.02V35.24C161.02 37.58 159.78 39.46 158.14 41.08C159.72 42.3 161.6 43.34 163.82 44.28ZM151.86 31.36C152.92 35.06 154.54 37.86 156.96 40.08C158.36 38.74 159.46 37.16 160.36 35.24H156.22V33.96L158.54 30.2H151.92L151.86 31.36ZM180.78 30.22H175.58C174.98 34.66 173.36 36.34 167.12 38.42L166.42 37.08C172.08 35.32 173.54 33.94 174.06 30.22H167.64V28.76H182.38C182.32 29.26 181.88 34.04 181.82 34.66C181.62 36.56 180.9 37.16 178.64 37.16H176.06L175.74 35.68H178.3C179.84 35.68 180.18 35.38 180.34 34.18C180.42 33.76 180.74 30.68 180.78 30.22ZM170.34 30.8L171.34 31.74C170.42 32.94 169.14 34.24 167.96 35.3L167.06 34.2C168.2 33.22 169.42 32 170.34 30.8ZM173.78 38.34L174.92 37.52C175.56 38.38 176.72 39.96 177.4 40.92L176.24 41.86C175.64 40.86 174.5 39.28 173.78 38.34ZM179.9 39.52L181.14 38.8C181.9 40.06 183.22 42.4 183.92 43.78L182.62 44.5C181.9 43.1 180.66 40.84 179.9 39.52ZM178.18 42.8C178.2 42.4 178.26 41.2 178.26 40.96L179.64 41.26C179.64 41.56 179.54 42.86 179.5 43.44C179.32 44.96 178.76 45.38 176.92 45.38H173.22C171.58 45.38 170.96 44.78 170.96 43.24V38.82H172.42V42.7C172.42 43.74 172.72 43.98 173.68 43.98H176.74C177.84 43.98 178.12 43.8 178.18 42.8ZM167.62 44.8L166.24 44.18C166.94 42.8 167.66 40.92 168.12 39.3L169.48 39.72C169.04 41.34 168.32 43.34 167.62 44.8ZM196.46 35.2C198.4 36.16 200.8 36.92 203.92 37.56L203.4 39.12C199.98 38.28 197.3 37.32 195.08 36.04C192.82 37.28 190.1 38.36 186.72 39.36L186.16 37.88C189.1 37.1 191.58 36.18 193.64 35.14C192.4 34.28 191.3 33.3 190.24 32.14C189.36 33.12 188.4 34.02 187.4 34.8L186.54 33.64C188.54 32.04 190.8 29.32 191.94 27.28L193.42 27.84C193.12 28.36 192.78 28.88 192.42 29.4H201.48V30.8C200.04 32.5 198.44 33.94 196.46 35.2ZM191.22 31C192.32 32.36 193.52 33.46 195.02 34.4C196.86 33.32 198.32 32.12 199.44 30.78H191.4L191.22 31ZM190.88 39.54L191.18 38.1C192.98 38.52 196.98 39.46 199.14 39.98L198.86 41.46C196.7 40.9 192.86 39.98 190.88 39.54ZM188.66 43.12L188.98 41.7C191.72 42.28 197.48 43.52 200.54 44.16L200.16 45.66C197.24 44.96 191.54 43.72 188.66 43.12ZM209.78 34.7L206.66 35.12L206.38 33.66C207.74 31.94 209 29.4 209.94 27.42L211.2 27.96C210.24 29.94 209.02 32.26 208.12 33.58L210.58 33.34C210.9 32.74 211.18 32.2 211.4 31.74L212.68 32.46C211.74 34.24 210.22 36.74 208.68 38.68L212.52 38.12L212.56 39.54L207 40.32L206.72 38.86C207.98 37.42 209 35.98 209.78 34.7ZM219.02 40.78C220.24 42.12 221.82 43.2 223.88 44.2L223.08 45.7C220.98 44.62 219.32 43.42 218.02 41.98C216.7 43.36 214.92 44.6 212.54 45.94L211.6 44.56C214 43.4 215.76 42.22 217.08 40.78C215.56 38.62 214.66 35.92 214.18 32.28H212.68V30.8H217.7C217.32 29.8 216.74 28.28 216.56 27.78L218.06 27.48C218.24 27.94 218.96 29.9 219.3 30.8H223.8V32.28H221.92C221.36 36.06 220.58 38.66 219.02 40.78ZM220.46 32.28H215.64C216.06 35.36 216.8 37.68 218.06 39.54C219.34 37.68 220.04 35.4 220.46 32.28ZM206.12 42.92L212.72 41.82L212.8 43.38L206.34 44.46L206.12 42.92ZM35.8 57.32H43.1C43.06 58 42.78 69.02 42.76 69.74C42.7 71.7 41.9 72.36 39.74 72.36H36.82L36.54 70.82H39.18C40.88 70.82 41.3 70.52 41.36 69.02L41.64 58.8H35.14C34.58 60.02 33.92 61.16 33.28 62.08L32.1 61.3C33.44 59.36 34.66 56.74 35.32 54.42L36.7 54.8C36.46 55.6 36.16 56.46 35.8 57.32ZM30.32 59.92V61.92C31.16 62.6 32.32 63.6 33.04 64.32L32.18 65.5C31.64 64.92 30.96 64.24 30.32 63.66V72.9H28.92V63.08C28.28 64.94 27.44 66.7 26.56 68.08L26.02 66.32C27.04 64.68 28.08 62.28 28.74 59.92H26.5V58.44H28.92V54.5H30.32V58.44H32.58V59.92H30.32ZM40.86 68.44L39.64 69.02C39.5 68.68 39.36 68.3 39.18 67.9L33.1 68.42L32.68 67.1C34 64.96 35.14 62.1 35.72 60.18L37.08 60.64C36.46 62.52 35.14 65.5 34.42 66.88L38.6 66.54C38.06 65.3 37.5 64.04 37.1 63.22L38.26 62.64C38.94 64.02 40.28 66.92 40.86 68.44ZM62.28 56.74L61.24 57.72C60.56 56.98 59.56 55.96 58.84 55.34L59.82 54.34C60.56 55.02 61.6 56.04 62.28 56.74ZM62.72 67.04L64.04 67.48C63.92 68.16 63.72 69.22 63.52 70.1C63.06 72.08 62.26 72.58 61.28 72.58C60.34 72.58 59.6 71.94 58.58 70.36C58.38 70.04 58.2 69.7 58.04 69.34C57.12 70.38 56.04 71.4 54.76 72.44L53.7 71.24C55.22 70.04 56.44 68.88 57.42 67.72C56.72 65.62 56.26 62.86 55.92 59.34H49.34V62.32H54.34C54.34 63.06 54.16 67.2 54.08 68.02C53.92 69.82 53.38 70.54 51.24 70.54H49.86L49.56 69.02H50.88C52.38 69.02 52.56 68.8 52.66 67.62C52.72 66.96 52.82 64.3 52.82 63.78H49.34C49.3 67.86 48.88 70.1 47.5 72.84L46.02 72.16C47.52 69.42 47.88 67.54 47.88 62.96V57.84H55.78C55.68 56.68 55.56 54.96 55.52 54.5H57C57.02 55.04 57.14 56.52 57.24 57.84H63.58V59.34H57.36C57.62 62.16 58 64.44 58.52 66.28C59.64 64.62 60.42 62.84 61.14 60.74L62.48 61.3C61.58 63.84 60.58 65.98 59.1 68.02C59.36 68.7 59.68 69.3 60.02 69.84C60.6 70.7 60.98 70.92 61.32 70.92C61.7 70.92 62.02 70.68 62.32 69.4C62.42 68.86 62.6 67.86 62.72 67.04ZM69.1 74.5L68.62 73.68C69.62 73.2 70.08 72.54 70.08 71.5H68.94V69.4H71.02V71.5C71.02 72.7 70.52 73.78 69.1 74.5ZM92.4 58.72H90.94V57.54H86.42V56.26H90.94V54.7H92.4V56.26H97.64V54.7H99.1V56.26H103.64V57.54H99.1V58.72H97.64V57.54H92.4V58.72ZM95.74 62.28H103.66V63.52H98.48C99.9 64.14 102.42 65.32 103.66 65.96L103.08 67.14C101.7 66.46 99.1 65.18 97.66 64.58L98.2 63.52H91.8L92.34 64.48C90.72 65.52 88.64 66.64 86.86 67.5L86.26 66.2C87.9 65.5 89.9 64.42 91.44 63.52H86.36V62.28H94.28V60.8H87.88V59.56H94.28V58.26H95.74V59.56H102.14V60.8H95.74V62.28ZM100.52 65.96V66.96C99.36 68.18 98.18 69.18 96.68 70.02C98.42 70.6 100.62 71.02 103.58 71.38L103.16 72.76C99.6 72.32 97.04 71.72 95.04 70.84C93 71.7 90.38 72.38 86.74 72.98L86.36 71.68C89.44 71.2 91.72 70.68 93.5 70.06C92.58 69.52 91.8 68.92 91.06 68.22C90.12 68.88 89.02 69.5 87.78 70.1L87.08 69.04C89.72 67.74 92 66.02 93.38 64.48L94.32 65.26C94.12 65.5 93.92 65.74 93.7 65.96H100.52ZM92.16 67.4C93.02 68.22 93.96 68.86 95.1 69.4C96.42 68.78 97.42 68.04 98.3 67.16H92.44C92.36 67.24 92.26 67.32 92.16 67.4ZM119.12 61.84C120.4 62.64 121.96 63.26 123.86 63.72L123.36 65.12C121.18 64.54 119.42 63.76 117.96 62.72C116.46 63.76 114.66 64.6 112.4 65.3L111.82 64L111.48 64.46C110.98 64 110.52 63.6 110.06 63.2V72.68H108.66V63.52C108.04 65.1 107.3 66.62 106.54 67.8L105.8 66.3C106.88 64.74 108.02 62.08 108.64 59.76H106.32V58.3H108.66V54.46H110.06V58.3H112.1V59.76H110.06V61.48C110.94 62.16 111.68 62.72 112.36 63.3L111.88 63.94C113.86 63.36 115.46 62.66 116.78 61.8C115.98 61.06 115.24 60.24 114.58 59.28C114.04 60.02 113.46 60.68 112.9 61.26L111.98 60.22C113.42 58.78 115.08 56.06 115.8 54.28L117.24 54.74C117 55.26 116.74 55.8 116.44 56.34H122.4V57.68C121.52 59.3 120.46 60.66 119.12 61.84ZM115.4 58.08C116.12 59.2 116.94 60.16 117.92 60.98C119.02 60.06 119.92 58.98 120.7 57.68H115.66C115.58 57.82 115.5 57.96 115.4 58.08ZM114.84 72.82H113.44V65.48H121.94V72.82H120.54V71.62H114.84V72.82ZM120.54 70.3V66.82H114.84V70.3H120.54ZM136.28 57.16H143.5V58.7H126.5V57.16H134.58C134.26 56.42 133.88 55.54 133.56 54.84L135.14 54.44C135.5 55.2 135.86 56.06 136.28 57.16ZM143.26 63.88L142.34 65.2C140.96 63.98 138 61.56 136.5 60.5L137.42 59.34C138.9 60.38 141.82 62.68 143.26 63.88ZM127.58 65.48L126.7 64.12C128.72 62.78 130.66 61.04 132.12 59.4L133.24 60.42C131.68 62.2 129.62 64.04 127.58 65.48ZM143.82 71.22L143.24 72.88C139.52 71.82 136.98 70.78 135 69.24C133.06 70.76 130.52 71.9 126.84 73L126.16 71.44C129.6 70.52 132 69.54 133.82 68.22C132.64 67.06 131.66 65.68 130.68 63.9L131.98 63.12C132.9 64.82 133.86 66.14 135 67.22C136.16 66.12 137.04 64.78 137.84 63.1L139.26 63.78C138.36 65.56 137.4 67 136.18 68.2C138.06 69.54 140.44 70.42 143.82 71.22ZM163.78 71.28L163 72.92C159.58 71.46 157.02 70.08 154.98 68.42C152.86 70.1 150.22 71.52 146.9 72.98L146.12 71.36C149.34 69.94 151.78 68.66 153.68 67.24C151.3 64.86 149.72 61.86 148.18 57.44V55.88H161.74V57.44C160.52 61.84 158.84 64.9 156.26 67.32C158.16 68.76 160.56 69.96 163.78 71.28ZM160.02 57.44H149.9C151.32 61.5 152.76 64.14 154.94 66.22C157.4 64 158.84 61.36 160.02 57.44ZM153.12 58.94L154.34 58.1C155.08 59.14 156.12 60.68 156.78 61.78L155.56 62.66C154.92 61.64 153.84 59.98 153.12 58.94ZM175.26 60.4H181.68V66.86H168.36V60.4H173.66V54.64H175.26V56.64H183.18V58.14H175.26V60.4ZM169.86 65.4H180.18V61.9H169.86V65.4ZM179.92 68.16L181.22 67.54C181.98 68.82 183.06 70.78 183.68 71.96L182.38 72.74C181.78 71.5 180.68 69.52 179.92 68.16ZM167.54 72.96L166.2 72.18C167.1 70.84 168.06 68.92 168.52 67.56L169.88 68.12C169.32 69.66 168.3 71.66 167.54 72.96ZM175.76 68.28L177.1 67.86C177.6 69.02 178.3 70.92 178.62 72.02L177.22 72.42C176.9 71.24 176.24 69.48 175.76 68.28ZM171.48 68.34L172.88 68.04C173.18 69.2 173.6 71.16 173.82 72.3L172.34 72.62C172.14 71.26 171.74 69.52 171.48 68.34ZM200.54 55.3H202V58.94H188.04V55.32H189.52V57.56H194.28V54.52H195.74V57.56H200.54V55.3ZM203.14 62.82L201.88 65.8L200.68 65.24L201.72 62.92H197.38C196.94 64.02 196.44 65.04 195.82 66.1L194.64 65.32C195.66 63.66 196.54 61.58 197.18 59.42L198.48 59.78C198.3 60.4 198.1 61 197.9 61.56H203.14V62.82ZM195.22 63.06H193.6V71.28H189.14V72.6H187.74V63.06H186.28V61.68H187.74V59.86H189.14V61.68H192.2V59.82H193.6V61.68H195.22V63.06ZM192.2 65.72V63.06H189.14V65.72H192.2ZM199.34 65.36C199.68 68.02 201.18 69.98 203.96 71.54L203.1 72.84C201.06 71.6 199.56 70.1 198.76 68.2C198.12 70.04 196.9 71.46 194.64 72.98L193.82 71.7C196.5 69.88 197.42 68.2 197.9 65.72C198.04 64.96 198.16 64.08 198.2 63.6H199.54C199.52 64.08 199.44 64.72 199.34 65.36ZM189.14 67.1V69.92H192.2V67.1H189.14ZM215.76 57.4C216.36 63.12 218.62 67.58 223.82 71.18L222.74 72.58C218.62 69.54 216.22 66.26 215.02 61.52C213.94 65.06 211.62 68.84 207.2 72.56L206.06 71.24C211.7 66.78 213.78 62 214.3 57.7C214.08 57.18 213.56 57 212.56 57H209.82V55.4H213.16C214.82 55.4 215.6 55.96 215.76 57.4ZM27.36 99.84V83.08H42.78V99.84H41.28V98.34H28.84V99.84H27.36ZM28.84 84.52V96.86H41.28V93.44H39.06C37.26 93.44 36.48 92.86 36.48 90.96V84.52H33.62V87.58C33.62 91.14 32.9 92.4 30.34 94.54L29.24 93.52C31.7 91.6 32.14 90.56 32.14 87.52V84.52H28.84ZM39.5 91.92H41.28V84.52H37.94V90.4C37.94 91.64 38.24 91.92 39.5 91.92ZM63.84 89.36V90.68H61.7V93.52H63.58V94.82H61.7V99.8H60.42V94.82H58.62V93.52H60.42V90.68H58.14V89.36H59.32L58.98 85.28H58.24V83.98H60.5C60.34 83.24 60.1 82.18 59.96 81.6L61.14 81.42C61.26 82 61.54 83.22 61.7 83.98H63.78V85.28H63.08L62.74 89.36H63.84ZM51.54 93.3V94.6H49.64C49.5 96.78 48.98 98.18 47.5 100.06L46.4 99.34C47.78 97.68 48.26 96.44 48.4 94.6H46.36V93.3H48.44V93.2C48.44 92.74 48.44 91.32 48.44 90.64H46.18V89.34H47.44C47.34 88.18 47.18 86.1 47.08 85.18H46.44V83.86H48.66C48.52 83.16 48.32 82.22 48.16 81.62L49.34 81.44C49.48 82.08 49.72 82.96 49.96 83.86H51.52V85.18H50.88C50.82 86.28 50.68 88.22 50.58 89.34H51.72V90.64H49.68V93.22C49.68 93.24 49.68 93.28 49.68 93.3H51.54ZM57.4 83.48C57.36 88.02 57.56 93.06 59.54 98.5L58.56 99.28C56.54 93.12 56.36 89.42 56.4 83.72C56.06 83.8 55.72 83.86 55.38 83.94V88.84C55.38 92.54 55.12 94.54 54.44 97.2L56.06 96.8C55.78 95.48 55.5 94.08 55.32 93.14L56.18 92.98C56.58 94.7 57.22 97.8 57.48 99.22L56.56 99.38L56.28 97.94L53.58 98.64L53.18 97.52C54.12 94.48 54.34 92 54.34 88.92V84.12L53.26 84.3C53.26 84.74 53.26 88.28 53.26 89.58C53.26 94.3 52.8 96.68 51.3 99.68L50.18 99.06C51.74 96.18 52.2 94.1 52.2 89.52V83.12C53.96 82.86 55.88 82.54 57.8 81.98L58.12 83.28C57.88 83.36 57.64 83.42 57.4 83.48ZM49.8 85.18H48.1C48.2 86.16 48.38 88.22 48.48 89.34H49.54C49.62 88.22 49.76 86.26 49.8 85.18ZM61.98 85.28H60C60.1 86.28 60.28 88.32 60.38 89.36H61.66C61.78 88.22 61.94 86.3 61.98 85.28ZM70.22 97.78H72.68C74.1 97.78 74.32 97.48 74.32 96.12V81.86H76.02V96.62C76.02 98.8 75.28 99.4 73.04 99.4H70.54L70.22 97.78ZM78.1 85.9L79.58 85.3C80.8 87.76 83.02 93.14 83.96 95.86L82.34 96.56C81.36 93.6 79.36 88.58 78.1 85.9ZM67.5 96.4L66 95.68C67.62 92.72 69 88.48 69.68 85.54L71.32 85.88C70.5 89.2 69.1 93.36 67.5 96.4ZM98.82 81.48V83.74H103.7V85.22H98.82V86.94H97.36V85.22H92.64V86.8H91.18V85.22H86.42V83.74H91.18V81.48H92.64V83.74H97.36V81.48H98.82ZM91.2 87.08L92.52 87.82C92 88.78 91.46 89.64 90.92 90.44V99.92H89.46V92.36C88.66 93.3 87.78 94.18 86.74 95.1L86.12 93.56C88.3 91.64 89.68 89.9 91.2 87.08ZM101.98 96.26C102 95.76 102.02 94.42 102.02 94.04L103.46 94.34C103.46 94.8 103.4 96.28 103.38 96.8C103.32 98.78 102.7 99.22 100.62 99.22H97.78C96.12 99.22 95.4 98.58 95.4 96.74V94.32C94.34 94.9 93.24 95.44 92.16 95.94L91.58 94.46C92.86 93.9 94.16 93.26 95.4 92.56V87.48H96.92V91.68C98.9 90.48 100.72 89.18 102.2 87.86L103.2 89.08C101.44 90.6 99.26 92.12 96.92 93.48V96.26C96.92 97.44 97.26 97.78 98.32 97.78H100.26C101.62 97.78 101.94 97.52 101.98 96.26ZM123.54 91.28H119.12C120.26 93.6 122 95.56 124.02 97.02L123.14 98.36C121.22 96.82 119.74 95.04 118.7 92.98V99.82H117.24V92.8C116.02 95.2 114.34 97.14 112.36 98.72L111.3 97.6C113.42 96 115.26 94 116.66 91.28H112.46V89.86H117.24V86.58H114.56C114.28 87.46 113.98 88.3 113.64 89.08L112.22 88.64C113 86.94 113.68 84.74 114.1 82.64L115.5 82.9C115.34 83.66 115.18 84.4 114.98 85.14H117.24V81.58H118.7V85.14H122.9V86.58H118.7V89.86H123.54V91.28ZM112.18 94.76L112.4 96.2C111.42 96.5 107.5 97.6 106.36 97.88L106.04 96.44C106.56 96.34 107.6 96.06 108.7 95.76V90.72H106.62V89.24H108.7V84.86H106.4V83.38H112.46V84.86H110.18V89.24H112.12V90.72H110.18V95.34C111.04 95.1 111.78 94.88 112.18 94.76ZM136.1 83.86H143.68V85.26H135.5C135.02 86.32 134.48 87.26 133.84 88.24L132.66 87.48C133.74 85.72 134.88 83.58 135.48 81.36L136.84 81.76C136.58 82.52 136.34 83.22 136.1 83.86ZM130.5 88.52L131.46 85.56H129.14C128.5 87.32 127.74 88.94 126.84 90.48L125.94 89.1C127.26 86.88 128.18 84.34 128.84 81.44L130.24 81.74C130.04 82.58 129.84 83.4 129.6 84.18H132.78V85.52L131.6 88.94L130.5 88.52ZM137.52 86.1H138.88V89.06H142.9V95.56C142.9 97.22 142.4 97.7 140.88 97.7H139.7L139.44 96.3H140.42C141.32 96.3 141.56 96.08 141.56 95.1V90.42H138.88V99.92H137.52V90.42H134.86V97.84H133.52V89.06H137.52V86.1ZM129.92 88V96.54L132.28 94.46L132.74 95.94L128.74 99.18L127.92 97.92C128.4 97.46 128.52 97.18 128.52 96.64V88H129.92ZM147.26 97.2C147.26 95.6 148.4 94.48 150 94.48C151.6 94.48 152.74 95.6 152.74 97.2C152.74 98.8 151.6 99.94 150 99.94C148.4 99.94 147.26 98.8 147.26 97.2ZM148.32 97.2C148.32 98.18 149.02 98.88 150 98.88C150.98 98.88 151.68 98.18 151.68 97.2C151.68 96.22 150.98 95.52 150 95.52C149.02 95.52 148.32 96.22 148.32 97.2Z" fill="#EEDAB3"/>
</svg>
