<svg width="253" height="128" viewBox="0 0 253 128" fill="none" xmlns="http://www.w3.org/2000/svg">
<rect width="253" height="128" fill="white" fill-opacity="0.25"/>
<path d="M30.16 27.58L31.68 27.98C31.44 28.9 31.16 29.84 30.84 30.78H35.56V32.3C34.58 38.08 32.6 41.72 27.5 45.86L26.4 44.56C31.48 40.64 33.04 37.44 34.06 32.3H30.26C29.92 33.18 29.54 34.06 29.12 34.88C30.04 35.5 31.32 36.42 32.06 36.94L31.16 38.36C30.4 37.72 29.3 36.92 28.38 36.26C27.98 37 27.54 37.68 27.1 38.3L26.04 37.08C27.76 34.54 29.3 31 30.16 27.58ZM43.8 37.38L42.88 38.7C41.98 37.82 40.12 36.16 38.74 34.98V45.82H37.26V27.64H38.74V33.06C40.1 34.14 42.8 36.38 43.8 37.38ZM62.94 28.64V33.62H49.66V35.38C49.66 40.52 49.32 42.72 47.4 45.96L46.16 45C47.76 42.24 48.18 40.58 48.18 34.96V28.64H62.94ZM61.44 32.36V29.94H49.66V32.36H61.44ZM62.5 35.62V36.9H51.28V35.62H62.5ZM63.72 40.3H56.06C55.1 41.46 53.66 42.9 52.78 43.76L60.06 43.42C59.48 42.72 58.88 42.04 58.4 41.52L59.48 40.7C60.56 41.86 62.4 43.92 63.36 45.12L62.32 46.14C62 45.74 61.56 45.22 61.08 44.64L50.86 45.22L50.56 43.88C52.14 42.58 53.36 41.32 54.26 40.3H50.08V39.02H63.72V40.3ZM83.72 36.08V37.48H80.36V40.04H83.12V41.36H75.72V43.78H82.46V45.04H67.52V43.78H74.26V41.36H66.88V40.04H69.64V37.48H66.26V36.08H69.64V33.56H66.88V32.24H74.26V30.16C71.74 30.32 69.3 30.42 67.6 30.46L67.48 29.16C71.24 29.08 78.22 28.62 81.9 28.26L82.18 29.58C80.46 29.74 78.12 29.92 75.72 30.08V32.24H83.12V33.56H80.36V36.08H83.72ZM74.26 33.56H71.08V36.08H74.26V33.56ZM78.9 36.08V33.56H75.72V36.08H78.9ZM71.08 37.48V40.04H74.26V37.48H71.08ZM75.72 40.04H78.9V37.48H75.72V40.04ZM92.6 30.9V40.62C92.6 41.7 92.32 42.02 91.36 42.02H90.7L90.44 40.74H91.04C91.38 40.74 91.48 40.58 91.48 39.92V32.3H90.24V45.76H89.16V32.3H88V41.98H86.86V30.9H89.14V27.54H90.26V30.9H92.6ZM94.1 28.36H102.38V33.7H94.1V28.36ZM101.08 30.56V29.38H95.32V30.56H101.08ZM95.32 31.48V32.7H101.08V31.48H95.32ZM93.4 34.82H103.2V38.44H93.4V34.82ZM96.38 35.72H94.6V37.54H96.38V35.72ZM99.2 37.54V35.72H97.42V37.54H99.2ZM100.26 37.54H102V35.72H100.26V37.54ZM103.76 44.52L103.44 45.8C101.48 45.44 99.74 44.88 98.24 44.12C96.76 44.86 94.94 45.42 92.62 45.92L92.24 44.68C94.2 44.3 95.72 43.88 96.96 43.38C95.86 42.66 94.92 41.78 94.1 40.78V39.68H102.34V40.78C101.54 41.82 100.64 42.68 99.56 43.38C100.78 43.88 102.16 44.24 103.76 44.52ZM100.86 40.78H95.7C96.48 41.58 97.32 42.22 98.28 42.76C99.28 42.2 100.08 41.56 100.86 40.78ZM112.54 42.26L111.38 41.04C114.18 38.6 114.94 37.08 115.24 32.44H111.96V30.88H115.32C115.36 29.86 115.42 28.26 115.42 27.6H116.9L116.78 30.88H122.5C122.46 31.68 122.1 38.3 122.04 39.16C121.88 41.32 121.14 41.84 118.78 41.84H116.92L116.58 40.3H118.48C120.14 40.3 120.38 40.06 120.48 38.64C120.54 37.78 120.8 33.34 120.86 32.44H116.7C116.38 37.62 115.46 39.56 112.54 42.26ZM110.98 31.56L109.78 32.58C109.14 31.68 107.74 29.86 107.02 29L108.2 28.06C108.9 28.9 110.28 30.64 110.98 31.56ZM115.28 43.66H123.84L123.5 45.24H115.18C112.2 45.24 110.6 44.68 109.2 42.96L106.78 45.5L105.98 44L108.5 41.48V35.94H106.22V34.4H110.04V41.5C111.1 43.1 112.62 43.66 115.28 43.66ZM129.4 34.66L126.4 35.12L126.14 33.76C127.46 31.98 128.62 29.4 129.5 27.42L130.7 28C129.78 29.94 128.66 32.24 127.8 33.58L130.14 33.3C130.5 32.62 130.82 31.98 131.1 31.38L132.32 32.08C131.2 34.28 129.66 36.74 128.34 38.66L131.38 38.16L131.42 39.56L126.82 40.32L126.54 38.88C127.68 37.46 128.62 36 129.4 34.66ZM143.74 43.38L142.88 44.58C141.48 42.92 140.6 41.18 139.9 39.06L139.12 39.52C139.34 40.46 139.42 41.48 139.42 42.68C139.42 44.8 138.78 45.52 136.78 45.52H135.08L134.82 44.26H136.38C137.74 44.26 138.12 43.84 138.12 42.28C138.12 41.82 138.1 41.4 138.06 40.98C136.36 42.56 134 44.08 131.78 45.14L131.28 43.86C133.46 42.94 135.94 41.28 137.82 39.56C137.74 39.24 137.64 38.94 137.52 38.64C136 39.74 134.06 40.88 132.14 41.72L131.6 40.52C133.36 39.8 135.48 38.64 137 37.54C136.84 37.26 136.68 36.98 136.48 36.68C135.06 37.5 133.54 38.26 132.3 38.76L131.88 37.52C133.44 36.96 135.26 36.06 136.64 35.2H132.04V34.04H139.58L139.84 32.66H133.3L134.46 27.6L135.76 27.72L135.46 29H141.8L140.94 34.04H143.66V35.2H138.84C138.44 35.48 137.98 35.78 137.52 36.06C138.04 36.82 138.42 37.52 138.72 38.24C139.96 37.52 141.44 36.52 142.34 35.76L143.12 36.8C142.6 37.24 141.8 37.8 140.98 38.36C141.66 40.46 142.34 41.92 143.74 43.38ZM135.18 30.12L134.84 31.54H140.06L140.32 30.12H135.18ZM126.16 42.86L131.5 41.92L131.58 43.48L126.36 44.38L126.16 42.86ZM156.34 40.4V41.12C156.14 41.16 155.42 41.26 154.52 41.4V45.86H153.14V41.62C151.68 41.86 150.2 42.1 149.88 42.16L149.8 40.64C150.14 40.6 151.66 40.38 153.14 40.16V37.44H150.28V35.98C150.72 34.86 151.22 33.24 151.7 31.52H150.34V30.08H152.06C152.28 29.18 152.48 28.28 152.64 27.44L154 27.6C153.82 28.4 153.62 29.24 153.42 30.08H156.48V31.52H153.04C152.58 33.24 152.08 34.84 151.68 35.98H153.26V32.7H154.52V35.98H156.32V37.44H154.52V39.94C155.4 39.8 156.1 39.68 156.32 39.64L156.34 40.4ZM150.18 30.64L149.26 31.74C148.48 30.92 147.24 29.68 146.58 29.04L147.52 28C148.16 28.62 149.4 29.82 150.18 30.64ZM158.68 34.28H163.8V35.76H162.14V45.78H160.78V35.76H158.68C158.66 40.96 158.26 42.92 156.58 45.98L155.38 45.2C157.04 42.42 157.28 40.74 157.28 35.5V29.48C159.3 29.26 161.44 28.78 163.14 28.2L163.56 29.6C162.12 30.14 160.3 30.58 158.68 30.8V34.28ZM146.1 33.7L147 32.62C147.74 33.32 148.94 34.54 149.74 35.34L148.78 36.48C147.94 35.56 146.8 34.36 146.1 33.7ZM148.24 37.9L149.56 38.22C149.36 39 147.78 44.86 147.62 45.56L146.26 45.14C146.52 44.3 148.08 38.7 148.24 37.9ZM172.62 33.64L171.68 32.56C173.32 31.16 174.74 29.24 175.68 27.4L177.04 27.8C176.8 28.28 176.52 28.76 176.24 29.22H181.42V30.36L179.64 32.56H182.62V39.4H177.64C177.98 40 178.64 41.22 179 41.96L177.96 42.54C177.64 41.82 176.94 40.46 176.62 39.92L177.58 39.4H172.94V38.2H181.22V36.58H173.16V35.42H181.22V33.82H173.3V32.96C173.08 33.2 172.86 33.42 172.62 33.64ZM172.18 39.26C172.18 41.42 171.5 42.08 169.72 42.08H169.02L168.76 40.78H169.36C170.6 40.78 170.92 40.44 170.92 39.1C170.92 37.94 170.42 36.54 169.34 34.96L170.92 29.84H168.38V45.88H167V28.52H172.24V29.84L170.72 34.76C171.74 36.44 172.18 37.84 172.18 39.26ZM178.06 32.56L179.82 30.42H175.44C174.9 31.16 174.32 31.88 173.68 32.56H178.06ZM181.04 40.74L182.1 40.24C182.7 41.42 183.54 43.32 183.94 44.5L182.84 44.98C182.42 43.8 181.58 41.86 181.04 40.74ZM172.1 45.12L170.98 44.58C171.68 43.22 172.3 41.74 172.72 40.42L173.82 40.82C173.38 42.28 172.76 43.8 172.1 45.12ZM179.66 43.16C179.66 42.88 179.68 41.96 179.7 41.46L180.9 41.68C180.9 42.36 180.86 43.34 180.84 43.64C180.76 45.02 180.26 45.46 178.62 45.46H176.56C175.06 45.46 174.52 44.98 174.52 43.48V40.48H175.9V43.14C175.9 43.94 176.12 44.2 176.86 44.18H178.5C179.4 44.18 179.66 43.98 179.66 43.16ZM196.12 35.18H203.76V36.72H196.12V43.02C196.12 44.9 195.4 45.52 193.24 45.52H190.48L190.18 43.96H192.82C194.18 43.96 194.48 43.6 194.48 42.48V36.72H186.2V35.18H194.48V30.38H187.62V28.88H202.36V30.38H196.12V35.18ZM221.84 32.36H209.52V36.84C209.52 41.28 209 43.26 207.3 45.94L206 45.12C207.8 42.5 208.1 40.8 208.1 36.62V31.08H213.8V27.5H215.24V28.84H222.46V30.02H215.24V31.08H223.3V32.3L222.62 34.34L221.28 34.1L221.84 32.36ZM220.22 37.8H215.6C214.3 37.8 213.86 37.16 213.86 35.84V35.44L210.18 35.68L210.14 34.46L213.86 34.24V32.86H215.28V34.16L220.12 33.86L220.18 35.02L215.28 35.34V35.62C215.28 36.4 215.4 36.7 216.22 36.7H219.88C220.82 36.7 220.94 36.42 221.02 35.78C221.06 35.42 221.06 34.78 221.06 34.78L222.36 35.06C222.36 35.06 222.34 35.64 222.3 35.98C222.2 37.32 221.88 37.8 220.22 37.8ZM218.88 38.56V43.86H223.56V45.12H209.2V43.86H213.84V38.56H215.24V43.86H217.52V38.56H218.88ZM221.74 38.58L222.78 39.32C222.32 40.06 221.26 41.6 220.54 42.58L219.48 41.82C220.24 40.86 221.28 39.34 221.74 38.58ZM213.2 41.72L212.18 42.5C211.56 41.54 210.72 40.36 210.12 39.52L211.1 38.76C211.7 39.56 212.56 40.76 213.2 41.72ZM41.38 58.26H28.6V60.84H27.08V56.82H34.5C34.32 56.2 34.02 55.28 33.84 54.8L35.4 54.52C35.56 54.92 36 56.22 36.2 56.82H42.92V60.86H41.38V58.26ZM36.22 61L36.9 59.64C38.28 60.36 42.12 62.44 43.76 63.42L43 64.76C41.22 63.64 37.76 61.76 36.22 61ZM32.96 59.66L33.78 61C31.88 62.28 29.22 63.84 26.92 64.98L26.26 63.54C28.52 62.52 31.18 60.98 32.96 59.66ZM41.38 66.3H35.82V70.5H43.36V71.96H26.66V70.5H34.2V66.3H28.64V64.84H41.38V66.3ZM49.1 74.5L48.62 73.68C49.62 73.2 50.08 72.54 50.08 71.5H48.94V69.4H51.02V71.5C51.02 72.7 50.52 73.78 49.1 74.5ZM83.98 71.48L83.24 72.86C81.44 71.98 80.02 71.06 78.88 69.94C77.78 70.98 76.42 71.94 74.66 72.96L73.82 71.64C75.56 70.7 76.88 69.84 77.92 68.88C76.86 67.56 76.08 65.96 75.44 63.86H75.02C74.94 67.82 74.36 69.7 72.34 72.94L71.12 72.18C73.2 69.12 73.62 67.36 73.62 62.52V57.22H78.02V54.6H79.46V57.22H83.62V58.62L83.04 60.84L81.6 60.66L82.08 58.66H79.46V62.38H82.52V63.76C81.84 65.86 81.04 67.48 79.84 68.92C80.92 69.94 82.26 70.76 83.98 71.48ZM71.98 61.68V70.58H68.94V71.82H67.66V64.68C67.32 65.3 66.96 65.9 66.54 66.5L66.02 64.9C67.28 63.12 68.32 60.38 68.84 57.72H66.46V56.3H72.74V57.72H70.22C69.88 59.14 69.5 60.44 69.04 61.68H71.98ZM78.02 62.38V58.66H75.02V62.38H78.02ZM68.94 69.1H70.74V63.12H68.94V69.1ZM81 63.86H76.88C77.4 65.5 78.04 66.8 78.88 67.88C79.84 66.76 80.48 65.48 81 63.86ZM103.3 64.34V65.8H98.62V70.66C98.62 72.24 98.06 72.6 96.48 72.6H94.76L94.44 71.2H96C97 71.2 97.26 71 97.26 70.14V65.8H92.68V64.34H97.26V61.96H94.36V60.82C93.84 61.3 93.28 61.78 92.68 62.24L91.88 60.96C94.2 59.28 96.06 57.1 97.22 54.78H98.7C99.86 57 101.82 59.16 103.96 60.68L103.22 62.08C101.08 60.48 99.2 58.34 98 56.22C97.12 57.78 95.98 59.24 94.62 60.56H101.4V61.96H98.62V64.34H103.3ZM92.24 66.64C92.24 68.92 91.58 69.48 89.8 69.48H88.92L88.64 68.12H89.38C90.64 68.12 90.96 67.72 90.96 66.36C90.96 65.26 90.5 63.9 89.4 62.3L90.84 57.32H88.32V72.9H86.96V55.88H92.22V57.34L90.76 62.08C91.8 63.82 92.24 65.14 92.24 66.64ZM94.24 66.5L95.46 67.14C94.7 68.72 93.52 70.52 92.38 71.92L91.32 71.02C92.44 69.72 93.52 68.02 94.24 66.5ZM99.68 67.34L100.7 66.56C101.58 67.68 103.18 69.94 103.9 70.98L102.8 71.86C102.16 70.78 100.52 68.48 99.68 67.34ZM112.48 58.16H111.08V57.08H106.22V55.8H111.08V54.44H112.48V55.8H117.24V54.44H118.64V55.8H123.62V57.08H118.64V58.18H117.24V57.08H112.48V58.16ZM111 60.44L110.2 61.6C109.36 60.9 107.74 59.68 106.9 59.1L107.58 58.04C108.4 58.58 110.1 59.78 111 60.44ZM112.38 58.64H121.44V61.92H112.38V58.64ZM113.72 60.9H120.08V59.66H113.72V60.9ZM110.2 64.22L109.42 65.38C108.5 64.66 107.02 63.5 106.18 62.9L106.94 61.82C107.76 62.38 109.32 63.56 110.2 64.22ZM116.16 66.06H111.22V62.92H116.16V66.06ZM117.54 62.92H122.6V66.06H117.54V62.92ZM115 63.86H112.42V65.16H115V63.86ZM118.72 65.14H121.4V63.86H118.72V65.14ZM123.8 71.08L123.28 72.34C120.86 71.54 119.1 70.74 117.56 69.52V72.8H116.18V69.54C114.64 70.72 112.84 71.56 110.2 72.46L109.52 71.2C112.18 70.46 114 69.66 115.48 68.58H110.52V67.38H116.18V66.3H117.56V67.38H123.3V68.58H118.26C119.72 69.68 121.4 70.44 123.8 71.08ZM108.68 66.38L109.42 66.7L109.92 66.9L107.74 72.7L106.46 72.14L108.68 66.38ZM139.6 64.6H143.84V66.12H139.6V72.86H137.98V66.12H132.32C131.98 69.18 130.94 70.76 128.2 73.06L127 71.86C129.52 69.8 130.44 68.62 130.74 66.12H126.18V64.6H130.84C130.86 64.2 130.86 63.76 130.86 63.3V59.96H126.8V58.42H130.86V54.76H132.44V58.42H137.98V54.72H139.6V58.42H143.24V59.96H139.6V64.6ZM132.42 64.6H137.98V59.96H132.44V63.16C132.44 63.68 132.44 64.16 132.42 64.6ZM163.62 57.56V59.06H157.48V62.3H162.62V63.84H157.48V67.08H163.04V68.64H157.48V72.9H155.98V59.06H154.78C153.96 60.68 153 62.2 151.86 63.56L150.84 62.4C152.56 60.28 154.02 57.5 155.02 54.54L156.46 54.98C156.16 55.86 155.84 56.72 155.48 57.56H163.62ZM150.16 54.84L151.68 55.32C151.2 56.8 150.66 58.16 150.08 59.42V72.78H148.56V62.34C147.98 63.32 147.36 64.24 146.7 65.14L145.96 63.58C147.38 61.48 149.08 58.28 150.16 54.84ZM174.98 59.2H182.58C182.52 60.58 182.2 67.64 182.04 69.72C181.9 71.7 180.92 72.32 178.54 72.32H175.48L175.14 70.78H178.02C179.88 70.78 180.32 70.5 180.46 69C180.62 67.36 180.88 62 180.92 60.74H174.82C174.14 66.08 172.38 69.22 167.58 72.82L166.44 71.6C170.9 68.32 172.56 65.5 173.2 60.74H166.86V59.2H173.38C173.46 58.28 173.66 55.52 173.7 54.64H175.3C175.3 55.54 175.06 58.22 174.98 59.2ZM171.96 57.6L170.84 58.66C170.26 57.92 168.84 56.28 168.24 55.66L169.34 54.7C169.98 55.36 171.34 56.88 171.96 57.6ZM179.2 66.18L178.06 67.26C177.46 66.48 175.82 64.66 175.14 63.98L176.24 62.96C176.98 63.7 178.56 65.4 179.2 66.18ZM202.24 56.16V58.94H203.8V60.14H202.24V62.94H197.8V64.54H202.62V65.76H197.8V67.34H203.34V68.54H197.8V70.14H196.44V68.54H191.66V67.34H196.44V65.76H192.6V64.54H196.44V62.94H192.74V61.76H196.44V60.14H191.98V58.94H196.44V57.3H192.76V56.16H196.44V54.48H197.8V56.16H202.24ZM189.9 68.7C191.34 70.3 193.18 70.76 195.72 70.76H203.8L203.58 72.12H195.68C193.02 72.12 190.9 71.66 189.22 69.96C188.64 70.9 187.92 71.84 187 72.86L185.98 71.72C186.94 70.78 187.7 69.84 188.28 68.82C187.54 67.72 186.9 66.28 186.38 64.42L187.46 64.02C187.92 65.42 188.42 66.56 188.96 67.46C189.54 66.1 189.92 64.62 190.18 62.9H186.62V61.64L189.96 57.32H186.32V56.04H191.58V57.34L188.26 61.62H191.5V62.84C191.16 65.18 190.72 67 189.9 68.7ZM200.82 57.3H197.8V58.94H200.82V57.3ZM197.8 61.76H200.82V60.14H197.8V61.76ZM210.08 57.9H209.3C208.66 59.02 207.92 60.12 207.16 61.04L206.06 60.16C207.36 58.58 208.74 56.18 209.42 54.38L210.88 54.68C210.66 55.24 210.4 55.86 210.06 56.5H215.14V57.9H211.6C212.06 58.66 212.64 59.6 212.92 60.1L211.74 60.74C211.32 59.94 210.56 58.66 210.08 57.9ZM215.54 60.78L214.3 60.1C215.48 58.24 216.42 56.28 217.06 54.42L218.52 54.66C218.3 55.28 218.06 55.9 217.8 56.5H223.62V57.9H220.08C220.62 58.64 221.26 59.54 221.62 60.02L220.46 60.76C219.98 60.02 218.96 58.64 218.42 57.9H217.16C216.66 58.92 216.12 59.9 215.54 60.78ZM222.56 67.28L223.92 67.66C223.92 68.14 223.84 70.12 223.82 70.6C223.72 71.9 223.18 72.32 221.84 72.32H221.2C220.1 72.32 219.46 71.96 219.46 70.52V62.88H215.06V65.24C215.06 68.7 214.96 70.7 211.8 73.2L210.64 72.24C213.44 69.92 213.6 68.76 213.6 64.9V61.4H220.9V70.08C220.9 70.72 221.02 70.84 221.54 70.84H221.86C222.32 70.84 222.46 70.74 222.48 70.08C222.5 69.74 222.56 67.64 222.56 67.28ZM210.46 68.52L212.66 68.12L212.68 69.6L206.28 70.84L206.08 69.34L209 68.8V63.04H206.62V61.6H212.82V63.04H210.46V68.52ZM215.28 65.54L216.32 64.7C217 65.42 218.56 67.2 219.12 67.86L218.02 68.82C217.5 68.18 215.9 66.26 215.28 65.54ZM35.8 84.32H43.1C43.06 85 42.78 96.02 42.76 96.74C42.7 98.7 41.9 99.36 39.74 99.36H36.82L36.54 97.82H39.18C40.88 97.82 41.3 97.52 41.36 96.02L41.64 85.8H35.14C34.58 87.02 33.92 88.16 33.28 89.08L32.1 88.3C33.44 86.36 34.66 83.74 35.32 81.42L36.7 81.8C36.46 82.6 36.16 83.46 35.8 84.32ZM30.32 86.92V88.92C31.16 89.6 32.32 90.6 33.04 91.32L32.18 92.5C31.64 91.92 30.96 91.24 30.32 90.66V99.9H28.92V90.08C28.28 91.94 27.44 93.7 26.56 95.08L26.02 93.32C27.04 91.68 28.08 89.28 28.74 86.92H26.5V85.44H28.92V81.5H30.32V85.44H32.58V86.92H30.32ZM40.86 95.44L39.64 96.02C39.5 95.68 39.36 95.3 39.18 94.9L33.1 95.42L32.68 94.1C34 91.96 35.14 89.1 35.72 87.18L37.08 87.64C36.46 89.52 35.14 92.5 34.42 93.88L38.6 93.54C38.06 92.3 37.5 91.04 37.1 90.22L38.26 89.64C38.94 91.02 40.28 93.92 40.86 95.44ZM58.92 92.08H63.84V93.58H58.92V99.88H57.32V93.58H51.32V92.08H57.32V87.28H54.16C53.78 88.5 53.38 89.68 52.94 90.72L51.4 90.04C52.4 87.88 53.3 85 53.82 82.64L55.26 83C55.06 83.92 54.84 84.84 54.58 85.76H57.32V81.34H58.92V85.76H63.16V87.28H58.92V92.08ZM50.06 81.4L51.52 81.88C51.12 83.42 50.6 84.94 50 86.4V100H48.48V89.56C47.88 90.66 47.24 91.68 46.54 92.6L45.96 90.8C47.44 88.62 49.18 84.72 50.06 81.4ZM77.58 84.66H83.12C83.1 85.52 82.76 96.04 82.72 96.84C82.64 98.74 81.9 99.38 79.76 99.38H77.24L76.94 97.82H79.3C80.8 97.82 81.24 97.52 81.28 96.08C81.32 95.34 81.56 87.02 81.6 86.18H76.96C76.54 87.18 76.04 88.16 75.5 89.06L74.18 88.18C75.5 86.18 76.6 83.28 77.1 81.16L78.58 81.52C78.34 82.5 78 83.58 77.58 84.66ZM70 81.3L71.58 81.58C71.42 82.38 71.1 83.62 70.82 84.6H73.96V98.36H68.52V99.68H67.08V84.6H69.2C69.52 83.6 69.82 82.2 70 81.3ZM68.52 90.74H72.52V86.14H68.52V90.74ZM79.76 93.14L78.48 94.04C77.66 92.78 76.46 91.12 75.62 90.04L76.72 89.14C77.64 90.26 78.88 91.86 79.76 93.14ZM68.52 92.28V96.82H72.52V92.28H68.52ZM95.56 84.74H103.14C103.14 84.74 102.76 95.5 102.66 96.42C102.52 98.36 101.7 99.08 99.68 99.08H97.48L97.2 97.66H99.24C100.76 97.66 101.2 97.26 101.26 95.78C101.32 94.92 101.7 87 101.72 86.18H100.48C99.68 91.96 98.46 95.46 94.24 99.38L93.22 98.3C97.12 94.8 98.46 91.22 99.22 86.18H97.6C96.82 90.28 95.58 92.82 92.6 95.84L91.58 94.74C94.28 92.16 95.6 89.72 96.3 86.18H94.88C94.3 87.3 93.64 88.36 92.92 89.38L91.86 88.48C93.3 86.54 94.58 83.92 95.36 81.38L96.7 81.76C96.38 82.8 96 83.78 95.56 84.74ZM92.84 91.34L92.9 91.88C92.64 92 91.78 92.32 90.76 92.7V99.78H89.3V93.24C88 93.72 86.78 94.16 86.46 94.3L86.08 92.8C86.46 92.68 87.86 92.18 89.3 91.68V87.06H87.96C87.78 88.4 87.58 89.72 87.34 90.86L86.1 90.62C86.54 88.42 86.92 85.62 87.08 83.2L88.34 83.3C88.3 84.02 88.22 84.8 88.14 85.6H89.3V81.54H90.76V85.6H92.54V87.06H90.76V91.16C91.68 90.82 92.46 90.54 92.76 90.42L92.84 91.34ZM118.66 95.4V97.74H123.76V99.12H111.8V97.74H117.2V95.4H112.8V94.04H117.2V91.84H113.1V82.7H122.74V91.84H118.66V94.04H123.2V95.4H118.66ZM112.26 95.44L112.32 96.22L112.38 96.92C111.28 97.12 107.32 98 106.32 98.26L106.1 96.84C106.56 96.76 107.58 96.54 108.68 96.28V90.8H106.42V89.38H108.68V84.74H106.26V83.32H112.28V84.74H110.08V89.38H112.14V90.8H110.08V95.96L112.26 95.44ZM117.2 86.6V84.08H114.58V86.6H117.2ZM118.66 86.6H121.32V84.08H118.66V86.6ZM114.58 87.94V90.46H117.2V87.94H114.58ZM118.66 87.94V90.46H121.32V87.94H118.66ZM132.54 96.26L131.38 95.04C134.18 92.6 134.94 91.08 135.24 86.44H131.96V84.88H135.32C135.36 83.86 135.42 82.26 135.42 81.6H136.9L136.78 84.88H142.5C142.46 85.68 142.1 92.3 142.04 93.16C141.88 95.32 141.14 95.84 138.78 95.84H136.92L136.58 94.3H138.48C140.14 94.3 140.38 94.06 140.48 92.64C140.54 91.78 140.8 87.34 140.86 86.44H136.7C136.38 91.62 135.46 93.56 132.54 96.26ZM130.98 85.56L129.78 86.58C129.14 85.68 127.74 83.86 127.02 83L128.2 82.06C128.9 82.9 130.28 84.64 130.98 85.56ZM135.28 97.66H143.84L143.5 99.24H135.18C132.2 99.24 130.6 98.68 129.2 96.96L126.78 99.5L125.98 98L128.5 95.48V89.94H126.22V88.4H130.04V95.5C131.1 97.1 132.62 97.66 135.28 97.66ZM163.88 94.12L163.26 95.54C161.74 95.06 160.3 94.46 159.02 93.78V99.84H157.48V93.4H158.36C157.02 92.6 155.88 91.7 155.04 90.76C154.24 91.64 153.06 92.54 151.6 93.38H152.76V94.44C152.76 96.56 151.72 98.4 148.66 100.08L147.72 98.8C150.54 97.44 151.26 96.18 151.26 94.44V93.58C149.92 94.32 148.38 95 146.72 95.58L146.08 94.18C149.22 93.22 151.76 91.82 153.62 90.22H148.04V82.36H161.96V90.22H156.3C158.12 91.92 160.56 93.2 163.88 94.12ZM154.28 85.72V83.7H149.52V85.72H154.28ZM155.7 85.72H160.48V83.7H155.7V85.72ZM154.28 86.92H149.52V88.92H154.28V86.92ZM155.7 86.92V88.92H160.48V86.92H155.7ZM167.26 97.2C167.26 95.6 168.4 94.48 170 94.48C171.6 94.48 172.74 95.6 172.74 97.2C172.74 98.8 171.6 99.94 170 99.94C168.4 99.94 167.26 98.8 167.26 97.2ZM168.32 97.2C168.32 98.18 169.02 98.88 170 98.88C170.98 98.88 171.68 98.18 171.68 97.2C171.68 96.22 170.98 95.52 170 95.52C169.02 95.52 168.32 96.22 168.32 97.2Z" fill="#EEDAB3"/>
</svg>
