<svg width="224" height="131" viewBox="0 0 224 131" fill="none" xmlns="http://www.w3.org/2000/svg">
<rect width="224" height="131" fill="white" fill-opacity="0.25"/>
<path d="M19.5 42.28L18.26 43.22C17.76 42.3 17.18 41.3 16.58 40.24C15.56 42.06 14.24 43.88 12.44 45.94L11.34 44.68C13.24 42.58 14.62 40.64 15.64 38.62C14.42 36.54 13.18 34.48 12.28 33.04L13.48 32.22C14.26 33.46 15.32 35.18 16.38 36.98C17.12 35.14 17.62 33.2 17.94 31H11.96V29.46H19.42V31C19 34 18.4 36.38 17.38 38.64C18.16 39.94 18.9 41.2 19.5 42.28ZM25.08 40.5C26.18 42.06 27.62 43.46 29.5 44.9L28.52 46.3C26.7 44.8 25.26 43.36 24.12 41.82C22.84 43.4 21.18 44.88 18.96 46.48L17.94 45.14C20.3 43.54 21.98 42.1 23.22 40.48C21.66 37.92 20.78 34.96 20.24 30.98V29.46H28.24V30.98C27.56 35.1 26.7 38 25.08 40.5ZM26.7 30.98H21.72C22.22 34.4 22.96 36.94 24.16 39.1C25.44 36.96 26.12 34.44 26.7 30.98ZM48.44 29.14V34.12H35.16V35.88C35.16 41.02 34.82 43.22 32.9 46.46L31.66 45.5C33.26 42.74 33.68 41.08 33.68 35.46V29.14H48.44ZM46.94 32.86V30.44H35.16V32.86H46.94ZM48 36.12V37.4H36.78V36.12H48ZM49.22 40.8H41.56C40.6 41.96 39.16 43.4 38.28 44.26L45.56 43.92C44.98 43.22 44.38 42.54 43.9 42.02L44.98 41.2C46.06 42.36 47.9 44.42 48.86 45.62L47.82 46.64C47.5 46.24 47.06 45.72 46.58 45.14L36.36 45.72L36.06 44.38C37.64 43.08 38.86 41.82 39.76 40.8H35.58V39.52H49.22V40.8ZM53 32.84L52.76 31.92C54.66 31.76 56.36 31.54 57.88 31.3C56.32 31.04 54.94 30.82 54.04 30.68L54.28 29.84C55.5 30.02 57.94 30.4 60.48 30.82C62.2 30.44 63.64 30.04 64.82 29.64H53.36V28.66H67.08V29.68C65.64 30.26 64.2 30.76 62.68 31.16L67.48 31.98L67.28 32.9C65.72 32.62 63.04 32.16 60.44 31.72C58.22 32.2 55.8 32.56 53 32.84ZM52.26 37.14L51.88 36.24C53.16 35.96 54.2 35.7 55.06 35.46C54.18 35.18 53.38 34.94 52.94 34.82L53.26 33.96C53.82 34.12 55.18 34.54 56.56 34.96C57.36 34.66 57.98 34.34 58.56 33.96H52.48V33.04H60.22V33.94C59.64 34.44 58.84 34.92 57.88 35.36C58.82 35.66 59.64 35.92 60.08 36.08L59.76 36.96C59.2 36.76 57.88 36.34 56.54 35.92C55.28 36.38 53.82 36.8 52.26 37.14ZM60.88 33.04H68.26V33.98C67.66 34.44 66.82 34.9 65.86 35.32C67.18 35.68 68.38 36.02 68.98 36.2L68.72 37.14C68.02 36.9 66.22 36.36 64.48 35.88C63.38 36.28 62.18 36.62 60.94 36.9L60.54 36.06C61.44 35.86 62.24 35.64 62.94 35.44L60.86 34.88L61.12 34.06C61.74 34.2 63.08 34.56 64.5 34.94C65.36 34.64 66.04 34.3 66.6 33.96H60.88V33.04ZM68.58 37.3V40.2H67.2V38.3H53.64V40.2H52.28V37.3H68.58ZM66.46 39.24V44.74H69.16V45.86H51.7V44.74H54.46V39.24H66.46ZM65.08 41.16V40.18H55.84V41.16H65.08ZM55.84 42.96H65.08V42.02H55.84V42.96ZM65.08 43.8H55.84V44.74H65.08V43.8ZM74.4 28.04H75.9C75.9 28.6 75.86 30.26 75.84 31.58H80.1C80.08 32.48 79.86 42.28 79.82 43.16C79.76 45.16 79.1 45.72 77.02 45.72H75.42L75.1 44.14H76.66C78.2 44.14 78.3 43.84 78.34 42.44C78.38 41.52 78.56 33.92 78.58 33.1H75.8C75.56 39.68 75.08 42.32 72.64 46.4L71.42 45.32C73.56 41.74 74.22 39.34 74.34 33.1H71.9V31.58H74.36C74.38 30.26 74.4 28.62 74.4 28.04ZM81.98 45.98V30.48H88.36V45.98H86.94V44.3H83.42V45.98H81.98ZM83.42 32V42.82H86.94V32H83.42ZM109.16 44.82L108.86 46.26C105.82 45.86 103.28 45.28 101.12 44.48C98.76 45.3 95.96 45.9 92.48 46.44L92.06 45.16C94.9 44.78 97.3 44.28 99.28 43.7C97.96 43.06 96.82 42.32 95.78 41.46C94.74 42.38 93.68 43.1 92.42 43.76L91.72 42.58C93.82 41.46 95.54 40.06 96.7 38.56H94.24V32.82C93.64 33.48 93 34.14 92.26 34.82L91.48 33.48C93.3 31.9 94.92 29.82 95.88 27.94L97.4 28.26C97.12 28.78 96.86 29.24 96.58 29.7H108.8V30.98H95.72C95.38 31.46 95.04 31.9 94.66 32.34H107.24V38.56H98.42C98.02 39.06 97.64 39.52 97.28 39.94H107.32V41.1C106.02 42.16 104.62 43 103.02 43.72C104.84 44.24 106.88 44.6 109.16 44.82ZM105.72 34.94V33.54H95.74V34.94H105.72ZM105.72 35.96H95.74V37.42H105.72V35.96ZM105.14 41.1H97.36C98.46 41.9 99.7 42.56 101.12 43.1C102.82 42.48 104.14 41.8 105.14 41.1ZM119.82 28.14H121.18C123.02 30.98 126.02 33.32 129.34 34.84L128.6 36.32C127.48 35.78 126.4 35.16 125.4 34.46V35.74H115.54V34.58C114.54 35.3 113.5 35.98 112.4 36.58L111.72 35.06C114.94 33.36 118.14 30.74 119.82 28.14ZM115.92 34.3H125.16C123.32 33 121.74 31.48 120.5 29.74C119.4 31.3 117.78 32.88 115.92 34.3ZM115.7 46.18H114.14V38.2H126.78V46.2H125.26V45.12H115.7V46.18ZM125.26 43.72V39.64H115.7V43.72H125.26ZM144.32 27.98V30.24H149.2V31.72H144.32V33.44H142.86V31.72H138.14V33.3H136.68V31.72H131.92V30.24H136.68V27.98H138.14V30.24H142.86V27.98H144.32ZM136.7 33.58L138.02 34.32C137.5 35.28 136.96 36.14 136.42 36.94V46.42H134.96V38.86C134.16 39.8 133.28 40.68 132.24 41.6L131.62 40.06C133.8 38.14 135.18 36.4 136.7 33.58ZM147.48 42.76C147.5 42.26 147.52 40.92 147.52 40.54L148.96 40.84C148.96 41.3 148.9 42.78 148.88 43.3C148.82 45.28 148.2 45.72 146.12 45.72H143.28C141.62 45.72 140.9 45.08 140.9 43.24V40.82C139.84 41.4 138.74 41.94 137.66 42.44L137.08 40.96C138.36 40.4 139.66 39.76 140.9 39.06V33.98H142.42V38.18C144.4 36.98 146.22 35.68 147.7 34.36L148.7 35.58C146.94 37.1 144.76 38.62 142.42 39.98V42.76C142.42 43.94 142.76 44.28 143.82 44.28H145.76C147.12 44.28 147.44 44.02 147.48 42.76ZM154.6 48L154.12 47.18C155.12 46.7 155.58 46.04 155.58 45H154.44V42.9H156.52V45C156.52 46.2 156.02 47.28 154.6 48ZM189.34 35.86V37.18H187.2V40.02H189.08V41.32H187.2V46.3H185.92V41.32H184.12V40.02H185.92V37.18H183.64V35.86H184.82L184.48 31.78H183.74V30.48H186C185.84 29.74 185.6 28.68 185.46 28.1L186.64 27.92C186.76 28.5 187.04 29.72 187.2 30.48H189.28V31.78H188.58L188.24 35.86H189.34ZM177.04 39.8V41.1H175.14C175 43.28 174.48 44.68 173 46.56L171.9 45.84C173.28 44.18 173.76 42.94 173.9 41.1H171.86V39.8H173.94V39.7C173.94 39.24 173.94 37.82 173.94 37.14H171.68V35.84H172.94C172.84 34.68 172.68 32.6 172.58 31.68H171.94V30.36H174.16C174.02 29.66 173.82 28.72 173.66 28.12L174.84 27.94C174.98 28.58 175.22 29.46 175.46 30.36H177.02V31.68H176.38C176.32 32.78 176.18 34.72 176.08 35.84H177.22V37.14H175.18V39.72C175.18 39.74 175.18 39.78 175.18 39.8H177.04ZM182.9 29.98C182.86 34.52 183.06 39.56 185.04 45L184.06 45.78C182.04 39.62 181.86 35.92 181.9 30.22C181.56 30.3 181.22 30.36 180.88 30.44V35.34C180.88 39.04 180.62 41.04 179.94 43.7L181.56 43.3C181.28 41.98 181 40.58 180.82 39.64L181.68 39.48C182.08 41.2 182.72 44.3 182.98 45.72L182.06 45.88L181.78 44.44L179.08 45.14L178.68 44.02C179.62 40.98 179.84 38.5 179.84 35.42V30.62L178.76 30.8C178.76 31.24 178.76 34.78 178.76 36.08C178.76 40.8 178.3 43.18 176.8 46.18L175.68 45.56C177.24 42.68 177.7 40.6 177.7 36.02V29.62C179.46 29.36 181.38 29.04 183.3 28.48L183.62 29.78C183.38 29.86 183.14 29.92 182.9 29.98ZM175.3 31.68H173.6C173.7 32.66 173.88 34.72 173.98 35.84H175.04C175.12 34.72 175.26 32.76 175.3 31.68ZM187.48 31.78H185.5C185.6 32.78 185.78 34.82 185.88 35.86H187.16C187.28 34.72 187.44 32.8 187.48 31.78ZM199.72 28.18H201.24V35.06H199.72V28.18ZM208.84 34.58L207.7 35.84C206.56 34.68 204 32.14 202.9 31.1L204 29.94C205.12 31 207.72 33.46 208.84 34.58ZM196.84 30L198 31.14C196.8 32.66 194.88 34.66 193.3 36L192.22 34.76C193.78 33.44 195.6 31.58 196.84 30ZM208.72 39.26H201.32C202.72 42.2 204.92 43.54 209.38 44.74L208.72 46.4C204.54 45.14 202 43.62 200.54 40.96C199.44 43.26 196.98 44.86 192.22 46.38L191.58 44.82C196.78 43.3 198.88 41.8 199.5 39.26H192.28V37.7H199.7V37.62C199.72 37.18 199.68 36.8 199.72 35.8H201.28C201.24 36.6 201.28 37.22 201.26 37.66V37.7H208.72V39.26ZM21.26 58.2H27.94V70.58C27.94 72.54 27.4 72.98 25.3 72.98H22.78L22.48 71.46H24.84C26.22 71.46 26.44 71.26 26.44 70.08V59.72H21.26C21.24 60.72 21.14 61.62 20.94 62.46C22.32 63.8 24.64 66.2 25.86 67.46L24.8 68.66C23.64 67.4 21.74 65.42 20.38 64.02C19.6 65.74 18.24 67.3 16.08 69.02L15.08 67.72C18.68 64.94 19.7 62.96 19.76 59.72H14.58V73.18H13.06V58.2H19.76V55.14H21.26V58.2ZM39.48 68.66H41.88C42.92 68.66 43.1 68.46 43.2 67.74L43.24 66.88H36.9V70.3C36.9 71.42 37.22 71.74 38.34 71.74H44.04C45.44 71.74 45.72 71.54 45.8 70.44C45.84 70.2 45.9 68.92 45.9 68.6L47.38 68.98C47.38 69 47.24 70.62 47.22 70.98C47.08 72.62 46.54 73.08 44.48 73.08H37.84C36.02 73.08 35.38 72.44 35.38 70.64V67.04C34.48 67.72 33.44 68.4 32.24 69.1L31.42 67.72C33.84 66.46 35.58 65.1 36.84 63.56H31.84V62.26H37.78C38.18 61.62 38.5 60.94 38.78 60.24H32.74V58.94H39.22C39.52 57.84 39.84 56.42 40 55.2L41.48 55.34C41.3 56.6 41.06 57.84 40.74 58.94H48.24V60.24H40.32C40.08 60.96 39.78 61.62 39.46 62.26H49.14V63.56H44.2C45.44 64.98 47.12 66.02 49.48 66.92L48.84 68.34C47.32 67.68 45.94 66.86 44.76 65.92L44.62 68.04C44.54 69.48 44 69.96 42.38 69.96H39.68L39.48 68.66ZM37.46 58.02L36.32 58.82C35.72 57.98 34.86 57.02 34.2 56.22L35.34 55.5C35.92 56.16 36.92 57.3 37.46 58.02ZM45.66 55.5L46.82 56.22C46.2 57 45.24 58.12 44.54 58.9L43.44 58.08C44.24 57.22 44.98 56.36 45.66 55.5ZM37.04 65.58H44.36C43.66 64.96 43.04 64.28 42.52 63.56H38.7C38.22 64.28 37.68 64.94 37.04 65.58ZM59.82 58.78V60.22C59.42 64.12 58.92 66.54 57.64 68.6C58.78 69.5 59.9 70.4 60.76 71.12L59.74 72.36C58.84 71.54 57.8 70.68 56.76 69.82C55.76 71.02 54.44 72.16 52.62 73.5L51.46 72.4C53.32 71.12 54.66 70.06 55.62 68.92C54.56 68.1 53.54 67.32 52.62 66.66C53.2 64.62 53.66 62.54 54.02 60.32H51.78V58.78H54.24C54.4 57.58 54.54 56.32 54.64 55L56.16 55.14C56.04 56.42 55.9 57.64 55.74 58.78H59.82ZM61.44 73V57.46H68.24V72.88H66.82V71.22H62.88V73H61.44ZM62.88 58.96V69.68H66.82V58.96H62.88ZM54.3 66.06C54.98 66.54 55.74 67.12 56.5 67.72C57.6 65.92 58.04 63.76 58.36 60.32H55.52C55.16 62.64 54.72 64.6 54.3 66.06ZM77.92 62.66H75.56V65.14H78.4V66.52H75.56V70.94L77.96 69.38L78.36 70.78L74.36 73.22L73.62 72.06C74.1 71.68 74.22 71.44 74.22 71.04V66.52H71.82V65.14H74.22V62.66H72.8V61.64L72.38 62.26L71.54 61.02C72.56 59.6 73.76 57.06 74.38 54.9L75.74 55.22C75.52 55.98 75.24 56.78 74.92 57.56H78.46V58.96H74.3C73.92 59.76 73.48 60.54 73.02 61.28H77.92V62.66ZM81.52 57.82H88.64L88.34 70.34C88.28 72.32 87.44 72.98 85.26 72.98H82.66L82.34 71.46H84.7C86.4 71.46 86.84 71.1 86.9 69.62L87.18 59.26H80.84C80.38 60.14 79.9 60.98 79.44 61.72L78.28 60.84C79.38 59.32 80.44 57.04 81.12 54.96L82.52 55.32C82.24 56.14 81.9 56.98 81.52 57.82ZM86.48 68.88L85.28 69.48C85.14 69.14 84.98 68.78 84.82 68.38L78.88 68.94L78.5 67.58C79.84 65.48 81.04 62.5 81.66 60.64L83.04 61.12C82.38 62.94 81.06 65.96 80.22 67.42L84.24 67.08C83.72 65.88 83.18 64.68 82.78 63.86L83.92 63.28C84.58 64.68 85.86 67.36 86.48 68.88ZM94.6 75L94.12 74.18C95.12 73.7 95.58 73.04 95.58 72H94.44V69.9H96.52V72C96.52 73.2 96.02 74.28 94.6 75ZM128.02 55.94V59.56H114.96V62.18C114.96 67.38 114.66 69.62 112.74 73.34L111.62 72.44C113.14 69.38 113.56 66.96 113.56 62.12V55.94H128.02ZM126.66 58.48V57.08H114.96V58.48H126.66ZM122.7 66.12V67.24H128.24V71.44C128.24 72.82 127.78 73.2 126.08 73.2H124.36L124.16 72.14H125.7C126.74 72.14 126.92 71.92 126.92 71.28V68.26H122.7V70.1C123.32 70.06 123.88 70.04 124.36 70C124.18 69.68 124.02 69.38 123.9 69.12L124.82 68.78C125.2 69.42 125.76 70.54 126.16 71.36L125.2 71.66C125.1 71.48 125 71.26 124.88 71.02L118.04 71.34L117.98 70.28C118.46 70.28 119.9 70.22 121.38 70.16V68.26H117.14V73.12H115.78V67.24H121.38V66.12H116.52V62.92H121.38V61.76C119.3 61.84 117.28 61.9 115.8 61.94L115.72 60.86C119.2 60.82 124.56 60.62 127.94 60.38L128 61.44C126.48 61.54 124.6 61.62 122.7 61.7V62.92H127.52V66.12H122.7ZM117.86 63.94V65.12H121.38V63.94H117.86ZM126.22 65.12V63.94H122.7V65.12H126.22ZM141.62 62.68H149.26V64.22H141.62V70.52C141.62 72.4 140.9 73.02 138.74 73.02H135.98L135.68 71.46H138.32C139.68 71.46 139.98 71.1 139.98 69.98V64.22H131.7V62.68H139.98V57.88H133.12V56.38H147.86V57.88H141.62V62.68ZM153.84 59.64H151.94V57.74C151.94 56.64 152.38 55.64 153.7 54.98L154.12 55.74C153.2 56.18 152.78 56.78 152.78 57.74H153.84V59.64ZM156.52 59.64H154.62V57.74C154.62 56.64 155.06 55.64 156.38 54.98L156.8 55.74C155.88 56.18 155.46 56.78 155.46 57.74H156.52V59.64ZM174.517 58.7H161.717V60.72H160.197V57.26H167.637C167.317 56.5 166.857 55.48 166.737 55.22L168.397 54.9C168.517 55.14 169.057 56.4 169.417 57.26H176.097V60.72H174.517V58.7ZM168.857 67.08V71H176.717V72.44H159.537V71H167.277V67.08H161.117V65.68H167.277V62.88H160.617V61.44H175.577V62.88H168.857V65.68H175.137V67.08H168.857ZM174.137 69.84L172.957 70.78C172.337 69.88 171.617 68.96 170.997 68.18L172.137 67.3C172.717 68.02 173.517 68.98 174.137 69.84ZM184.377 63.5V60.74C182.937 61.46 180.497 62.72 180.197 62.88L179.577 61.6C179.997 61.44 183.057 59.94 184.377 59.28V55.04H185.757V63.5H184.377ZM187.017 61.08H190.957V58.7H186.577V57.44H190.957V55.04H192.337V57.44H196.837V58.7H192.337V61.08H196.217V62.3H187.017V61.08ZM183.697 58.52L182.737 59.4C182.057 58.62 180.897 57.36 180.137 56.62L181.037 55.76C181.857 56.56 182.937 57.68 183.697 58.52ZM192.077 69.44C193.357 70.32 194.937 70.92 196.977 71.4L196.337 72.82C191.917 71.68 189.717 69.96 187.857 66.66C187.217 67.28 186.477 67.86 185.637 68.42V71.56L189.657 70.26L189.777 71.64L184.037 73.52L183.557 72.38C184.117 72.06 184.257 71.9 184.257 71.42V69.28C182.937 70.04 181.437 70.76 179.777 71.44L179.197 70.06C182.297 68.9 184.577 67.68 186.457 66.12H179.557V64.76H187.877C187.597 64.2 187.277 63.56 187.037 63.2L188.417 62.7C188.677 63.2 189.117 64.08 189.437 64.76H196.737V66.12H189.097C189.657 67.08 190.257 67.86 190.957 68.54C192.237 67.92 193.777 67.06 194.717 66.5L195.437 67.64C194.597 68.16 193.177 68.9 192.077 69.44ZM18.3 86.5H16.84V85.06H11.9V83.78H16.84V82.06H18.3V83.78H23.08V82.06H24.54V83.78H29.22V85.06H24.54V86.44H23.08V85.06H18.3V86.5ZM24.06 95.78V97.9H22.64V95.78H16.68V94.46H22.64V92.52H17.88V91.22C18.34 90.54 18.86 89.68 19.36 88.8H17.1V87.5H20.06C20.4 86.82 20.72 86.16 20.96 85.58L22.3 86C22.1 86.48 21.88 87 21.62 87.5H28.44V88.8H20.96C20.5 89.68 20 90.52 19.5 91.24H22.64V89.48H24.06V91.24H28.12V92.52H24.06V94.46H29.12V95.78H24.06ZM16.3 89.12L15.24 90.06C14.56 89.12 13.46 87.64 12.8 86.82L13.8 85.88C14.52 86.74 15.6 88.16 16.3 89.12ZM20.54 98.48H29.32L29 99.86H20.32C17.8 99.86 16.44 99.4 15 97.64L12.46 100.1L11.66 98.68L14.22 96.32V92.44H11.72V91.06H15.64V96.3C16.88 98.06 18.2 98.48 20.54 98.48ZM44.32 81.98V84.24H49.2V85.72H44.32V87.44H42.86V85.72H38.14V87.3H36.68V85.72H31.92V84.24H36.68V81.98H38.14V84.24H42.86V81.98H44.32ZM36.7 87.58L38.02 88.32C37.5 89.28 36.96 90.14 36.42 90.94V100.42H34.96V92.86C34.16 93.8 33.28 94.68 32.24 95.6L31.62 94.06C33.8 92.14 35.18 90.4 36.7 87.58ZM47.48 96.76C47.5 96.26 47.52 94.92 47.52 94.54L48.96 94.84C48.96 95.3 48.9 96.78 48.88 97.3C48.82 99.28 48.2 99.72 46.12 99.72H43.28C41.62 99.72 40.9 99.08 40.9 97.24V94.82C39.84 95.4 38.74 95.94 37.66 96.44L37.08 94.96C38.36 94.4 39.66 93.76 40.9 93.06V87.98H42.42V92.18C44.4 90.98 46.22 89.68 47.7 88.36L48.7 89.58C46.94 91.1 44.76 92.62 42.42 93.98V96.76C42.42 97.94 42.76 98.28 43.82 98.28H45.76C47.12 98.28 47.44 98.02 47.48 96.76ZM52.26 86.84L51.84 86.08C52.76 85.64 53.18 85.04 53.18 84.08H52.12V82.18H54.02V84.08C54.02 85.18 53.58 86.18 52.26 86.84ZM54.94 86.84L54.52 86.08C55.44 85.64 55.86 85.04 55.86 84.08H54.8V82.18H56.7V84.08C56.7 85.18 56.26 86.18 54.94 86.84ZM66.7367 90.74H65.2967V85.7H59.6967V84.3H67.5967C67.4167 83.68 67.1967 82.98 66.9367 82.32L68.5367 82C68.8167 82.8 69.0567 83.48 69.2767 84.3H76.6167V85.7H71.0167V90.74H69.5767V85.7H66.7367V90.74ZM63.3567 86.78L64.3167 87.72C63.2367 88.96 61.7167 90.38 60.0767 91.5L59.2767 90.34C60.7967 89.26 62.2567 88.02 63.3567 86.78ZM72.0367 87.88L72.8967 86.78C73.8767 87.52 75.7367 89.08 76.9567 90.06L76.1167 91.26C74.8167 90.16 73.1367 88.72 72.0367 87.88ZM73.8367 91.72V93.04C72.7167 94.68 71.4567 95.98 69.6967 97.08C71.5567 97.8 73.8567 98.36 76.8767 98.84L76.3967 100.38C72.9167 99.72 70.2767 98.94 68.1367 97.92C66.0767 98.92 63.4367 99.72 59.8567 100.5L59.3767 99.02C62.2967 98.5 64.6567 97.84 66.5367 97.06C64.8367 96 63.4767 94.72 62.2167 93.08V91.72H73.8367ZM71.9567 93.08H64.0367C65.1967 94.44 66.4367 95.5 68.0567 96.34C69.7567 95.42 71.0167 94.34 71.9567 93.08ZM97.0567 95.46L96.1367 97.02C94.0567 94.72 92.1567 91.72 90.9367 88.6V95.5H93.9767V96.94H90.9367V100.38H89.4167V96.94H86.3567V95.5H89.4167V88.6C88.2367 91.7 86.5767 94.4 84.1367 97.14L83.1567 95.7C85.6167 93.18 87.4367 90.36 88.7167 87.08H84.4367V85.66H89.4167V82.08H90.9367V85.66H96.3567V87.08H91.6967C92.9367 90.3 94.8767 93.24 97.0567 95.46ZM83.0167 82.2L84.5767 82.46C84.1167 84.06 83.5567 85.6 82.9367 87.08V100.3H81.4967V90.04C80.9367 91.06 80.3567 91.98 79.7367 92.82L79.0167 91.14C80.4367 89.1 82.0767 85.58 83.0167 82.2ZM100.397 97.7C100.397 96.1 101.537 94.98 103.137 94.98C104.737 94.98 105.877 96.1 105.877 97.7C105.877 99.3 104.737 100.44 103.137 100.44C101.537 100.44 100.397 99.3 100.397 97.7ZM101.457 97.7C101.457 98.68 102.157 99.38 103.137 99.38C104.117 99.38 104.817 98.68 104.817 97.7C104.817 96.72 104.117 96.02 103.137 96.02C102.157 96.02 101.457 96.72 101.457 97.7Z" fill="#EEDAB3"/>
</svg>
