<svg width="253" height="128" viewBox="0 0 253 128" fill="none" xmlns="http://www.w3.org/2000/svg">
<rect width="253" height="128" fill="white" fill-opacity="0.25"/>
<path d="M42.22 38.88L43.72 39.58C43.58 40.44 43.3 41.7 43.06 42.46C42.56 43.96 41.92 44.46 40.5 44.46C39.42 44.46 38.32 43.94 37.34 42.74C35.68 40.7 34.98 37.88 34.98 32.64V29.5H26.34V27.96H36.56V32.64V32.78C38.16 31.52 40.44 29.58 41.54 28.46L42.66 29.72C41.56 30.76 39.6 32.34 38.04 33.52C39.58 34.44 41.66 35.72 42.84 36.48L41.98 37.9C40.72 37.04 38.3 35.44 36.76 34.48C36.7 34.52 36.64 34.56 36.6 34.6C36.74 38.2 37.34 40.1 38.56 41.6C39.22 42.42 39.84 42.74 40.4 42.74C41.14 42.74 41.5 42.42 41.74 41.44C41.92 40.76 42.14 39.52 42.22 38.88ZM63.48 35.24H55.84C56.92 38.96 59.4 41.26 63.76 43.14L62.92 44.8C58.7 42.68 56.32 40.54 55.08 37.36C54.04 40.02 51.64 42.64 47.16 44.9L46.26 43.4C50.96 41.14 53.48 38.48 54.02 35.24H46.44V33.74H54.12V29.38H47.52V27.94H62.38V29.38H55.74V33.74H63.48V35.24ZM67.72 40.84L68.62 39.78C69.94 40.64 71.5 42.04 72.66 43.44L71.34 44.56C70.4 43.2 69 41.76 67.72 40.84ZM98.86 29.42L98.38 31.32H103.88V32.48H86.18V31.32H91.46L91.02 29.42H87.24V28.3H94.44C94.3 27.76 94.1 27.12 93.94 26.66L95.56 26.54C95.66 26.94 95.86 27.68 96.04 28.3H102.8V29.42H98.86ZM97.42 29.42H92.46L92.92 31.32H96.96L97.42 29.42ZM102.4 41.94H95.74V43.22H103.72V44.32H86.34V43.22H94.32V41.94H87.68V40.8H94.32V39.52H88.36V33.74H101.72V39.52H95.74V40.8H102.4V41.94ZM94.32 36.1V34.84H89.76V36.1H94.32ZM95.74 36.1H100.3V34.84H95.74V36.1ZM89.76 37.16V38.42H94.32V37.16H89.76ZM95.74 37.16V38.42H100.3V37.16H95.74ZM115.96 35.1H123.72V36.62H115.96V41.92C115.96 43.84 115.38 44.42 113.22 44.42H110.5L110.2 42.82H112.7C114.1 42.82 114.38 42.6 114.38 41.38V36.62H106.32V35.1H114.38V33.22L119.78 29.36H107.8V27.88H122.38V29.38L115.96 33.92V35.1ZM127.72 40.84L128.62 39.78C129.94 40.64 131.5 42.04 132.66 43.44L131.34 44.56C130.4 43.2 129 41.76 127.72 40.84ZM161.94 40.96C161.96 40.62 162.04 38.46 162.04 37.98L163.52 38.3L163.4 41.54C163.34 43.34 162.66 44.04 160.56 44.04H157.82C156.12 44.04 155.42 43.4 155.42 41.46V26.78H156.96V34.36C158.76 33.06 161.22 31 162.52 29.66L163.54 30.88C161.86 32.56 158.92 34.98 156.96 36.3V40.92C156.96 42.16 157.24 42.5 158.42 42.5H160.3C161.6 42.5 161.9 42.24 161.94 40.96ZM147.8 26.98H149.34V32.6H154.2V34.18H149.34V42L154 40.02L154.14 41.66L147.82 44.42L147.2 42.84C147.72 42.56 147.8 42.38 147.8 41.92V26.98ZM179.1 35.38V42.16H183.86V43.62H166.18V42.16H169.24V28.5C172.6 28.32 177.12 27.86 181.48 26.9L181.92 28.38C178.12 29.24 173.66 29.72 170.86 29.94V33.9H183.08V35.38H179.1ZM177.52 35.38H170.86V42.16H177.52V35.38ZM204.02 39.06L202.94 40.2C201.82 38.68 199.7 36.1 198.48 34.62V44.86H196.96V34.76C195.92 36.62 194.64 38.38 193.04 40.12L191.92 38.9C194.68 36.22 196.46 32.94 197.74 29.46H193.34V27.9H203.38V29.46H199.28C199.04 30.2 198.78 30.92 198.48 31.64V34.4L199.42 33.5C200.64 34.94 202.88 37.58 204.02 39.06ZM192.74 40.3L192.84 41L192.94 41.84C191.84 42.04 187.5 42.88 186.4 43.1L186.18 41.64C186.66 41.56 187.78 41.32 188.98 41.08V35.7H186.74V34.22H188.98V29.6H186.54V28.1H192.8V29.6H190.46V34.22H192.7V35.7H190.46V40.78C191.44 40.58 192.32 40.4 192.74 40.3ZM209.62 33.64L206.54 34.1L206.22 32.74C207.62 30.94 208.88 28.38 209.8 26.4L211.02 26.98C210.08 28.9 208.9 31.22 208 32.56L210.44 32.26C210.82 31.6 211.16 30.96 211.46 30.38L212.74 31.12C211.56 33.3 209.9 35.72 208.52 37.64L211.72 37.12L211.76 38.52L206.86 39.3L206.58 37.84C207.76 36.42 208.78 35 209.62 33.64ZM215.44 30.56L212.88 30.96L212.66 29.6L215.02 29.24C214.82 28.5 214.6 27.66 214.36 26.62L215.82 26.5C216.02 27.5 216.22 28.32 216.42 29.02L222.74 28.04L222.94 29.42L216.84 30.36C217.1 31.08 217.38 31.68 217.7 32.3C217.76 32.4 217.82 32.5 217.86 32.6C219.32 31.92 220.62 31.12 221.64 30.26L222.34 31.26C221.28 32.18 220.02 32.98 218.62 33.7C219.38 34.6 220.2 35.02 220.98 35.02C221.9 35.02 222.18 34.66 222.32 33.96C222.42 33.52 222.56 32.9 222.68 32.26L223.82 32.82C223.68 33.42 223.48 34.26 223.26 34.8C222.84 36 222.3 36.4 220.92 36.4C219.72 36.4 218.4 35.7 217.3 34.3C215.9 34.92 214.38 35.44 212.74 35.9L212.32 34.54C213.78 34.2 215.22 33.72 216.58 33.18C216.52 33.08 216.46 32.98 216.42 32.88C216.04 32.14 215.74 31.44 215.44 30.56ZM222.48 41.92C222.5 41.62 222.54 40.12 222.54 39.84L223.78 40.14C223.78 40.44 223.7 42.1 223.68 42.42C223.58 43.92 223.14 44.34 221.72 44.34H220.28C218.96 44.34 218.44 43.78 218.44 42.34V38.54H216.24V38.68C216.22 42.18 215.02 43.34 212.02 44.84L211.18 43.62C214.16 42.32 214.74 41.24 214.84 38.62V38.54H212.46V37.16H223.46V38.54H219.86V41.92C219.86 42.88 220.1 43 220.76 43H221.5C222.34 43 222.44 42.9 222.48 41.92ZM206.24 41.82L212.16 40.84L212.24 42.38L206.42 43.34L206.24 41.82ZM42.22 65.88L43.72 66.58C43.58 67.44 43.3 68.7 43.06 69.46C42.56 70.96 41.92 71.46 40.5 71.46C39.42 71.46 38.32 70.94 37.34 69.74C35.68 67.7 34.98 64.88 34.98 59.64V56.5H26.34V54.96H36.56V59.64V59.78C38.16 58.52 40.44 56.58 41.54 55.46L42.66 56.72C41.56 57.76 39.6 59.34 38.04 60.52C39.58 61.44 41.66 62.72 42.84 63.48L41.98 64.9C40.72 64.04 38.3 62.44 36.76 61.48C36.7 61.52 36.64 61.56 36.6 61.6C36.74 65.2 37.34 67.1 38.56 68.6C39.22 69.42 39.84 69.74 40.4 69.74C41.14 69.74 41.5 69.42 41.74 68.44C41.92 67.76 42.14 66.52 42.22 65.88ZM51.06 53.64L52.18 54.66C50.88 56.36 48.68 58.52 46.98 59.84L46.22 58.44C47.74 57.32 49.82 55.24 51.06 53.64ZM53.76 54.8H63.06V56.3H53.76V54.8ZM51.06 58.74L52.24 59.66C51.74 60.44 51.1 61.3 50.38 62.16V71.74H48.88V63.86C48.1 64.7 47.34 65.48 46.68 66.08L46.02 64.62C47.64 63.12 49.78 60.7 51.06 58.74ZM52.84 60.72H63.86V62.2H60.64V68.98C60.64 70.82 59.96 71.5 57.92 71.5H55.22L54.9 69.94H57.56C58.76 69.94 59.1 69.66 59.1 68.54V62.2H52.84V60.72ZM69.1 73.5L68.62 72.68C69.62 72.2 70.08 71.54 70.08 70.5H68.94V68.4H71.02V70.5C71.02 71.7 70.52 72.78 69.1 73.5ZM103.48 62.24H95.84C96.92 65.96 99.4 68.26 103.76 70.14L102.92 71.8C98.7 69.68 96.32 67.54 95.08 64.36C94.04 67.02 91.64 69.64 87.16 71.9L86.26 70.4C90.96 68.14 93.48 65.48 94.02 62.24H86.44V60.74H94.12V56.38H87.52V54.94H102.38V56.38H95.74V60.74H103.48V62.24ZM123.6 54.72V56.14H115.74V58.64H122.6V69.08C122.6 70.86 122 71.42 120.04 71.42H118.06L117.78 70H119.68C120.86 70 121.14 69.8 121.14 68.72V60.06H115.74V71.18H114.26V60.06H108.86V71.48H107.4V58.64H114.26V56.14H106.38V54.72H123.6ZM109.7 62.38L110.42 61.32C111.54 62.06 112.48 62.7 113.52 63.48L112.84 64.6C111.78 63.82 110.82 63.1 109.7 62.38ZM120.42 63.54L119.7 64.62C118.68 63.84 117.6 63.08 116.5 62.36L117.14 61.32C118.28 62.02 119.36 62.78 120.42 63.54ZM120.26 67.46L119.5 68.52C118.48 67.74 117.42 66.96 116.34 66.24L117.04 65.2C118.14 65.92 119.24 66.68 120.26 67.46ZM109.52 66.28L110.26 65.24C111.38 65.96 112.46 66.74 113.5 67.52L112.72 68.6C111.7 67.8 110.62 67.04 109.52 66.28ZM135.68 59.88V62.78H134.2V59.84C132.82 61.16 130.98 62.36 128.88 63.4H140.98V71.8H139.42V70.92H130.28V71.82H128.74V63.46C128.08 63.78 127.4 64.1 126.7 64.38L126.16 62.96C128.78 62.02 131.12 60.84 132.92 59.36H126.62V58.06H134.2V56.06C131.8 56.18 129.48 56.28 127.86 56.32L127.72 54.96C131.54 54.9 137.84 54.54 141.58 54.14L141.78 55.52C140.14 55.68 137.94 55.84 135.68 55.98V58.06H143.28V59.36H136.92C138.66 60.8 140.84 61.8 143.8 62.8L143.28 64.18C140.12 63 137.56 61.66 135.68 59.88ZM139.42 66.52V64.68H130.28V66.52H139.42ZM130.28 67.78V69.7H139.42V67.78H130.28ZM158.82 53.48V55.74H163.7V57.22H158.82V58.94H157.36V57.22H152.64V58.8H151.18V57.22H146.42V55.74H151.18V53.48H152.64V55.74H157.36V53.48H158.82ZM151.2 59.08L152.52 59.82C152 60.78 151.46 61.64 150.92 62.44V71.92H149.46V64.36C148.66 65.3 147.78 66.18 146.74 67.1L146.12 65.56C148.3 63.64 149.68 61.9 151.2 59.08ZM161.98 68.26C162 67.76 162.02 66.42 162.02 66.04L163.46 66.34C163.46 66.8 163.4 68.28 163.38 68.8C163.32 70.78 162.7 71.22 160.62 71.22H157.78C156.12 71.22 155.4 70.58 155.4 68.74V66.32C154.34 66.9 153.24 67.44 152.16 67.94L151.58 66.46C152.86 65.9 154.16 65.26 155.4 64.56V59.48H156.92V63.68C158.9 62.48 160.72 61.18 162.2 59.86L163.2 61.08C161.44 62.6 159.26 64.12 156.92 65.48V68.26C156.92 69.44 157.26 69.78 158.32 69.78H160.26C161.62 69.78 161.94 69.52 161.98 68.26ZM169.1 73.5L168.62 72.68C169.62 72.2 170.08 71.54 170.08 70.5H168.94V68.4H171.02V70.5C171.02 71.7 170.52 72.78 169.1 73.5ZM201.76 53.9L202.86 54.74C201.08 56.94 199.04 58.72 197.1 59.98L196.32 58.74C198.16 57.6 200 56.04 201.76 53.9ZM195.9 54.24L196.14 55.64C193.56 56.06 189.44 56.54 186.7 56.68L186.54 55.22C189.38 55.14 193.38 54.68 195.9 54.24ZM194.38 61.12L193.2 60.58C193.84 59.42 194.56 57.8 195.02 56.62L196.26 57.12C195.78 58.2 194.96 59.98 194.38 61.12ZM192.66 59.66L191.46 60.2C191.16 59.46 190.5 57.96 190.14 57.16L191.34 56.64C191.74 57.5 192.32 58.88 192.66 59.66ZM189.58 60.38L188.42 61.02C188.04 60.14 187.14 58.4 186.68 57.56L187.86 56.92C188.36 57.84 189.16 59.5 189.58 60.38ZM197.22 65.54L196.4 64.2C198.48 62.98 200.64 61.06 202.32 58.96L203.4 59.82C201.74 62 199.34 64.14 197.22 65.54ZM196.1 67.82L195.32 69.1C194.24 68.2 193.22 67.32 192.18 66.52V71.88H190.78V65.92C189.74 67.7 188.42 69.16 186.9 70.38L186.16 69.1C187.98 67.66 189.42 66 190.44 63.9H186.62V62.54H190.78V60.84H192.18V62.54H195.98V63.9H192.18V64.98C193.54 65.86 194.86 66.86 196.1 67.82ZM202.9 64.42L204 65.24C201.94 67.86 198.7 70.32 195.7 71.92L194.98 70.6C197.9 69.16 200.8 67.02 202.9 64.42ZM207.94 54.82H222.04V56.32H207.94V54.82ZM223.62 61.88H214.78C213.3 64.24 211.24 67.42 209.58 69.14L219.44 68.36C218.5 66.9 217.56 65.46 216.92 64.56L218.18 63.8C219.42 65.48 221.68 68.92 222.96 70.96L221.66 71.9C221.28 71.28 220.82 70.52 220.3 69.72L207.98 70.76L207.44 69.14C209.44 67.24 211.5 64.22 212.88 61.88H206.38V60.36H223.62V61.88ZM28.52 81.64H41.54V87.22H28.52V81.64ZM30.02 85.84H40.04V83.04H30.02V85.84ZM35.74 94.16V96.7H43.6V98.06H26.42V96.7H34.26V94.16H27.94V92.8H34.26V90.48H27.22V89.08H42.86V90.48H35.74V92.8H42.14V94.16H35.74ZM50.88 83.5L49.52 84.06C49.24 83.2 48.64 81.76 48.24 80.9L49.52 80.38C49.94 81.24 50.54 82.64 50.88 83.5ZM58.9 92.76H63.82V94.28H58.9V98.84H57.36V94.28H52.18V92.76H57.36V89.86H53.48V88.36H57.36V85.46H53.18V83.98H55.98C55.6 83.3 54.62 81.78 54.3 81.28L55.46 80.54C55.88 81.14 56.88 82.64 57.28 83.28L56.22 83.98H58.8C59.48 82.94 60.36 81.4 60.8 80.48L62.12 81.14C61.74 81.82 61.04 83.04 60.42 83.98H63.3V85.46H58.9V88.36H62.94V89.86H58.9V92.76ZM53.08 91.32L52.18 92.48C51.7 92 50.86 91.28 50.22 90.76V98.86H48.78V90.98C48.12 91.72 47.4 92.44 46.62 93.14L46 91.62C48.06 89.78 49.4 87.92 50.6 85.78H46.46V84.28H52.16V85.8C51.58 86.98 50.94 88.08 50.22 89.12C50.98 89.7 52.52 90.82 53.08 91.32ZM67.26 96.2C67.26 94.6 68.4 93.48 70 93.48C71.6 93.48 72.74 94.6 72.74 96.2C72.74 97.8 71.6 98.94 70 98.94C68.4 98.94 67.26 97.8 67.26 96.2ZM68.32 96.2C68.32 97.18 69.02 97.88 70 97.88C70.98 97.88 71.68 97.18 71.68 96.2C71.68 95.22 70.98 94.52 70 94.52C69.02 94.52 68.32 95.22 68.32 96.2Z" fill="#EEDAB3"/>
</svg>
