<svg width="457" height="121" viewBox="0 0 457 121" fill="none" xmlns="http://www.w3.org/2000/svg">
<path d="M35.904 34.292L36.416 33.908C53.696 36.276 46.912 48.884 40.256 43.892C39.808 40.564 37.76 36.788 35.904 34.292ZM36.736 47.284H24.832L24.32 45.428H51.776L55.488 40.116C55.488 40.116 59.84 43.764 62.336 46.26C62.144 46.964 61.504 47.284 60.544 47.284H41.024L46.336 49.012C46.08 49.652 45.376 50.164 44.16 50.164C41.216 53.492 36.48 57.524 32.128 60.404C35.456 60.34 39.744 60.212 44.224 60.084C46.208 57.332 48 54.388 49.664 51.188L58.048 55.732C57.664 56.372 56.896 56.628 55.36 56.372C46.4 68.916 35.392 76.66 21.568 81.716L21.056 80.756C29.184 76.212 36.224 70.516 42.176 62.9C38.912 63.924 35.136 65.14 30.976 66.292C30.336 67.188 29.696 67.764 28.992 68.02L26.56 60.34C26.56 60.34 27.84 60.084 28.48 59.7C31.36 57.524 35.072 51.38 36.736 47.284ZM18.048 51.38V58.164C31.808 64.18 25.856 74.292 20.928 69.684C20.928 66.484 19.52 62.708 18.048 59.764V92.02C18.048 92.724 15.04 94.26 12.416 94.26H11.008V68.468C8.512 72.5 5.504 76.212 1.92 79.54L1.152 78.772C5.824 71.348 8.768 61.108 10.24 51.38H2.56L2.048 49.524H11.008V34.036L20.352 34.932C20.224 35.892 19.776 36.532 18.048 36.788V49.524H18.944L22.144 45.172C22.144 45.172 25.664 48.244 27.84 50.356C27.648 51.06 27.008 51.38 26.112 51.38H18.048ZM19.904 94.132L19.52 93.172C33.344 86.9 45.12 78.196 53.568 62.9L62.336 67.764C61.824 68.532 61.056 68.724 59.456 68.468C56.448 72.5 53.312 75.892 49.92 78.836C68.096 84.34 62.208 97.588 54.976 92.532C53.824 88.5 50.88 83.956 48.064 80.372C39.872 87.028 30.656 91.188 19.904 94.132ZM73.792 53.492L74.624 53.428C79.424 65.076 77.568 73.14 74.56 77.428C72.512 80.564 68.864 80.948 66.88 78.964C65.408 77.108 65.856 74.804 67.456 73.012C70.72 70.004 73.92 62.068 73.792 53.492ZM112 54.836C135.232 68.852 124.736 86.324 118.656 78.324C118.272 72.116 116.544 62.26 111.424 55.348L112 54.836ZM81.92 45.748L91.712 46.708C91.648 47.54 91.072 48.244 89.472 48.436V81.588C89.472 83.188 90.24 83.7 93.12 83.7H100.928C103.808 83.7 106.176 83.636 107.328 83.572C108.416 83.444 108.992 83.188 109.504 82.42C110.336 81.076 111.552 77.3 112.96 72.436H113.664L113.92 82.868C116.224 83.764 116.8 84.66 116.8 86.132C116.8 89.716 113.6 91.316 100.224 91.316H92.032C84.416 91.316 81.92 89.972 81.92 83.828V45.748ZM91.904 35.06C114.24 42.484 108.16 58.932 100.352 52.98C99.136 47.028 95.168 40.116 91.328 35.444L91.904 35.06ZM161.6 34.74L162.112 34.42C180.288 37.62 173.248 51.38 166.272 45.876C165.952 41.908 163.84 37.62 161.6 34.74ZM133.696 77.556L130.368 69.428C130.368 69.428 132.032 69.044 132.672 68.596C135.68 66.164 139.52 61.108 142.464 56.052C140.288 57.204 137.664 58.356 134.912 59.508C134.464 60.084 134.016 60.468 133.504 60.66L130.176 52.532C130.176 52.532 131.648 52.212 132.224 51.828C135.552 48.756 139.968 39.412 141.248 34.484L150.592 38.132C150.336 38.772 149.568 39.348 148.288 39.284C145.216 43.572 139.968 49.14 135.296 52.724C137.92 52.66 141.248 52.468 144.704 52.212C145.792 50.1 146.752 48.116 147.328 46.452L155.968 51.252C155.648 51.828 154.816 52.276 153.536 52.084C149.824 57.204 142.72 64.372 136.512 69.172C141.312 68.66 148.032 67.892 154.752 66.996L154.816 67.828C150.912 69.748 143.744 73.012 135.296 76.276C134.784 76.916 134.272 77.364 133.696 77.556ZM156.16 76.468L156.352 77.108C151.936 80.244 145.28 84.532 135.68 89.652C135.424 90.484 134.784 91.188 134.016 91.38L130.368 82.612C134.912 81.844 145.792 79.284 156.16 76.468ZM174.976 49.204H158.464C160.448 58.484 163.904 66.164 168.832 72.18C172.48 65.332 174.272 57.524 174.976 49.204ZM188.864 49.204H183.296C181.952 59.764 179.136 69.172 173.376 76.788C178.176 81.012 183.936 83.956 190.72 85.62L190.592 86.324C187.584 87.22 184.96 89.972 184 93.94C177.408 91.124 172.288 87.412 168.384 82.356C162.944 87.348 155.84 91.38 146.304 94.196L145.92 93.492C154.624 89.268 160.832 83.956 165.376 77.812C161.216 70.58 158.784 61.172 157.504 49.204H152.896L152.384 47.348H178.432L182.784 41.46C182.784 41.46 187.776 45.428 190.72 48.18C190.528 48.884 189.824 49.204 188.864 49.204ZM220.608 34.932L221.184 34.548C238.016 39.54 231.168 51.828 224.896 46.452C224.512 42.484 222.464 38.068 220.608 34.932ZM243.84 74.676L247.68 69.428C247.68 69.428 252.032 73.012 254.592 75.444C254.464 76.148 253.824 76.468 252.864 76.468H237.568V92.468C237.568 92.916 235.328 94.452 231.616 94.452H230.336V76.468H216.448L215.936 74.676H230.336V62.58H221.056L220.544 60.724H230.336V50.356H219.776L219.968 50.548C219.84 51.252 219.2 51.572 218.304 51.572H210.624V56.564C224.832 61.748 218.88 72.18 213.696 67.572C213.504 64.564 212.16 61.044 210.624 58.292V91.956C210.624 92.66 207.616 94.196 204.992 94.196H203.584V67.956C200.96 72.18 197.76 76.084 193.92 79.54L193.152 78.772C198.016 71.476 201.088 61.3 202.688 51.572H195.136L194.624 49.716H203.584V34.1L212.928 34.996C212.736 35.956 212.288 36.596 210.624 36.852V49.716H210.688L214.016 44.852C214.016 44.852 217.6 48.052 219.776 50.356L219.264 48.5H235.904C237.312 44.148 238.912 38.26 239.808 34.164L249.856 37.62C249.536 38.452 248.704 38.9 247.36 38.772C244.928 41.396 241.216 45.3 237.568 48.5H242.432L246.144 43.572C246.144 43.572 250.432 46.964 252.992 49.332C252.8 50.036 252.16 50.356 251.264 50.356H237.568V60.724H240.64L244.352 55.668C244.352 55.668 248.512 59.124 251.008 61.556C250.816 62.26 250.176 62.58 249.28 62.58H237.568V74.676H243.84ZM293.12 54.9L292.608 54.004C299.008 49.204 304.448 42.548 308.864 34.932L317.696 40.372C317.184 41.076 316.608 41.204 315.136 40.948C308.992 46.9 301.12 51.7 293.12 54.9ZM290.624 72.82L290.176 71.924C297.664 66.996 303.872 60.148 308.736 51.38L317.952 56.692C317.44 57.396 316.864 57.652 315.328 57.332C308.48 64.5 300.032 69.556 290.624 72.82ZM272.832 59.7H279.68V41.716H272.832V59.444V59.7ZM295.808 61.556H286.976V91.444C286.912 91.892 284.736 93.492 280.96 93.492H279.68V61.556H272.832C272.704 72.884 271.104 85.684 258.304 94.26L257.664 93.748C264.512 84.404 265.536 72.756 265.6 61.556H258.304L257.792 59.7H265.6V59.508V41.716H259.648L259.136 39.924H285.12L288.96 34.804C288.96 34.804 293.376 38.324 296 40.692C295.872 41.396 295.168 41.716 294.272 41.716H286.976V59.7H287.232L290.944 54.388C290.944 54.388 295.104 58.036 297.472 60.532C297.28 61.236 296.64 61.556 295.808 61.556ZM309.44 67.828L319.168 72.628C318.72 73.396 318.016 73.652 316.48 73.46C308.992 84.084 299.52 90.228 287.424 94.004L287.04 93.108C296.768 87.54 304.064 79.796 309.44 67.828ZM331.008 71.796H331.904C334.912 80.244 332.16 86.068 328.704 88.052C326.464 89.46 323.456 89.076 322.624 86.772C321.856 84.66 323.136 82.868 324.992 81.844C327.936 80.372 330.944 76.468 331.008 71.796ZM367.488 77.684L367.68 85.236C369.984 86.004 370.496 86.772 370.496 88.18C370.496 91.444 367.424 92.404 354.816 92.404H346.688C339.392 92.404 337.664 91.188 337.664 86.196V70.836L347.2 71.604C347.072 72.436 346.496 73.012 345.216 73.204V84.788C345.216 85.684 345.536 85.94 347.904 85.94H355.648C358.272 85.94 360.768 85.94 361.856 85.876C362.88 85.812 363.264 85.62 363.648 84.98C364.416 83.892 365.504 81.332 366.784 77.684H367.488ZM348.48 68.724L349.056 68.34C366.208 72.372 360.064 85.172 353.728 80.116C353.344 76.212 350.848 71.668 348.48 68.724ZM367.488 72.372L368.128 71.924C388.096 77.108 381.76 92.276 374.592 86.644C374.08 81.588 370.944 75.956 367.488 72.372ZM379.904 47.028H356.416C361.408 55.54 371.904 60.468 382.016 62.9L381.952 63.604C379.008 64.244 376.96 66.548 376 70.132C366.208 65.396 358.848 58.42 355.136 47.028H353.152C351.872 50.42 350.144 53.556 347.84 56.436C363.2 58.228 359.232 70.068 352.704 66.612C351.68 63.668 349.12 60.34 346.496 57.972C341.44 63.412 333.76 67.7 322.176 70.452L321.728 69.748C335.488 64.244 342.144 56.052 345.216 47.028H323.84L323.328 45.172H345.792C346.816 41.524 347.328 37.748 347.584 33.972L358.08 35.572C357.888 36.596 357.12 37.108 355.712 37.172C355.264 39.924 354.688 42.612 353.856 45.172H370.752L374.592 40.18C374.592 40.18 379.008 43.572 381.696 46.004C381.504 46.708 380.864 47.028 379.904 47.028Z" fill="#EEDAB3"/>
</svg>
