<svg width="206" height="316" viewBox="0 0 206 316" fill="none" xmlns="http://www.w3.org/2000/svg">
<rect width="206" height="55" rx="16" fill="#2E2E2E"/>
<path d="M29.088 19.152H21.632L21.408 18.256H29.088V14.736L33.632 15.184C33.568 15.6 33.312 15.92 32.544 16.016V18.256H39.488V14.768L44.128 15.184C44.096 15.6 43.84 15.92 43.008 16.016V18.256H45.824L47.616 15.92C47.616 15.92 49.664 17.488 50.88 18.64C50.816 18.992 50.464 19.152 50.016 19.152H43.008V21.04C43.008 21.296 41.792 21.712 40.064 21.712H39.488V19.152H32.544V21.168C32.544 21.424 31.2 21.872 29.632 21.872H29.088V19.152ZM44.928 27.344L46.848 24.976C46.848 24.976 48.992 26.608 50.336 27.76C50.24 28.112 49.92 28.272 49.472 28.272H30.24L34.592 30.16C34.432 30.544 33.92 30.768 32.928 30.704C30.304 32.4 25.984 34.352 21.664 35.248L21.44 34.896C24.608 33.296 28.128 30.32 29.728 28.272H22.336L22.08 27.344H33.984V24.24H25.28L25.056 23.312H33.984V20.208L38.592 20.592C38.592 20.976 38.368 21.232 37.696 21.36V23.312H41.824L43.712 21.136C43.712 21.136 45.856 22.608 47.2 23.728C47.104 24.08 46.784 24.24 46.336 24.24H37.696V27.344H44.928ZM38.464 29.552L38.656 29.168C50.656 28.624 51.072 35.632 47.136 35.088C45.216 33.168 41.248 30.736 38.464 29.552ZM39.712 35.408H33.216C32.8 35.728 32.352 36.016 31.904 36.304C33.056 37.36 34.464 38.192 36.128 38.832C37.568 37.84 38.752 36.688 39.712 35.408ZM51.36 40.816L51.392 41.232C49.824 41.744 48.928 43.024 48.64 44.848C43.808 44.368 39.648 43.472 36.384 41.648C32.224 43.536 27.104 44.592 21.376 44.912L21.248 44.464C26.112 43.568 30.592 42.128 34.112 40.112C32.992 39.184 32 38.096 31.136 36.784C28.864 38.128 26.176 39.28 23.2 39.952L22.976 39.6C27.296 37.52 30.88 34.16 32.544 31.312L37.44 32.496C37.28 32.88 36.864 33.104 35.84 33.104C35.392 33.584 34.88 34.064 34.304 34.512H39.904L42.144 32.624L45.344 35.664C45.056 35.984 44.736 36.08 43.904 36.144C42.688 37.584 41.248 38.832 39.616 39.888C43.136 40.656 47.168 40.848 51.36 40.816ZM60.96 23.536V25.936C67.936 28.336 64.896 33.392 62.336 31.024C62.272 29.616 61.664 27.984 60.96 26.736V43.696C60.96 44.08 59.488 44.88 58.208 44.88H57.504V31.92C56.288 33.936 54.816 35.792 53.088 37.424L52.672 37.072C54.976 33.392 56.352 28.368 57.056 23.536H53.28L53.024 22.64H57.504V14.736L62.144 15.184C62.08 15.664 61.856 15.952 60.96 16.08V22.64H61.6L63.264 20.208C63.264 20.208 65.152 21.904 66.176 23.024C66.08 23.376 65.792 23.536 65.344 23.536H60.96ZM76.192 32.976L77.568 31.376C76.064 30.576 74.784 29.648 73.696 28.592C72.032 29.872 70.08 30.992 67.904 31.952L70.624 32.976H76.192ZM70.24 41.648H76.32V33.904H70.24V41.648ZM76.512 19.92H71.168C70.752 20.56 70.336 21.168 69.888 21.776C70.816 23.088 72 24.24 73.376 25.232C74.688 23.6 75.744 21.808 76.512 19.92ZM78.496 17.104L81.728 20.016C81.504 20.368 81.184 20.464 80.384 20.528C79.232 22.8 77.728 24.88 75.872 26.736C78.016 27.824 80.576 28.592 83.552 29.136L83.488 29.488C81.984 30.064 81.216 31.12 81.024 32.88C80.576 32.72 80.128 32.56 79.68 32.368L81.248 33.552C81.024 33.808 80.704 34 80 34.16V43.664C80 43.824 78.816 44.464 76.96 44.464H76.32V42.544H70.24V43.952C70.24 44.176 69.152 44.784 67.36 44.784H66.752V32.432C65.568 32.88 64.288 33.296 62.944 33.648L62.72 33.232C66.4 31.632 69.568 29.424 72.064 26.8C71.008 25.488 70.144 24.016 69.376 22.448C67.904 24.24 66.24 25.712 64.48 26.832L64.064 26.544C66.144 23.792 68.192 19.44 69.184 14.928L73.888 16.528C73.76 16.912 73.344 17.168 72.64 17.136C72.352 17.776 72.032 18.416 71.68 19.024H76.448L78.496 17.104ZM94.016 21.2L93.76 20.272H97.984C98.784 18.128 99.456 16.112 99.776 14.864L104.512 16.272C104.32 16.656 103.968 16.976 103.136 16.88C102.816 17.808 102.368 18.992 101.888 20.272H108.256L110.272 17.488C110.272 17.488 112.64 19.376 114.016 20.688C113.92 21.04 113.568 21.2 113.12 21.2H101.536C100.64 23.568 99.648 26.128 98.912 27.952H102.496V22.992L107.392 23.44C107.328 23.856 107.072 24.208 106.208 24.336V27.952H107.648L109.536 25.424C109.536 25.424 111.68 27.152 112.928 28.336C112.832 28.688 112.544 28.848 112.064 28.848H106.208V33.648H109.184L111.136 31.024C111.136 31.024 113.344 32.816 114.688 34.064C114.592 34.416 114.24 34.576 113.792 34.576H106.208V39.472C106.208 39.76 104.576 40.464 103.168 40.464H102.496V34.576H93.696L93.44 33.648H102.496V28.848H98.784L97.312 30.48L93.856 28.144C94.176 27.888 94.656 27.6 95.136 27.376C95.904 25.744 96.832 23.472 97.664 21.2H94.016ZM86.112 15.664L86.432 15.504C95.584 18.256 92.768 24.944 89.408 22.48C88.96 20.208 87.424 17.488 86.112 15.664ZM92.16 27.888V37.936C94.784 40.496 98.336 41.136 105.056 41.136C108.64 41.136 111.616 41.104 115.296 40.912V41.296C113.856 41.616 113.024 42.864 112.864 44.336H103.904C97.312 44.336 94.4 42.832 91.68 39.024C91.232 38.384 90.912 38.48 90.56 39.024C89.92 40.08 88.416 42.352 87.456 44.144C87.552 44.432 87.424 44.688 87.168 44.88L84.672 41.2C85.824 40.528 87.328 39.504 88.608 38.672V27.376H85.152L84.96 26.448H88.096L89.92 24.08L93.792 27.184C93.536 27.472 93.056 27.728 92.16 27.888ZM146.176 29.52H139.36C140.928 33.424 144.256 36.144 147.36 37.776L147.296 38.224C145.536 39.216 144.352 40.592 144.16 42.224C141.536 39.344 139.776 35.024 138.816 30.416V43.44C138.816 43.856 137.152 44.816 135.712 44.816H134.976V34.512C132.384 37.904 128.768 40.656 124.256 42.704L123.968 42.32C128.288 39.152 131.52 34.256 133.216 29.52H127.424L127.168 28.624H134.976V22.544H131.808C130.912 24.112 129.824 25.488 128.512 26.576L128.864 26.992C128.8 27.344 128.48 27.504 128.064 27.504H124.256V35.408C125.696 34.96 127.232 34.512 128.736 34.064L128.864 34.384C126.816 35.888 123.648 38.064 119.2 40.752C119.072 41.136 118.752 41.52 118.4 41.648L116.704 37.424C117.536 37.264 118.912 36.88 120.608 36.432V27.504H117.472L117.216 26.576H120.608V18.64H117.312L117.056 17.744H124.032L125.952 15.088C125.952 15.088 128.128 16.912 129.376 18.128C129.312 18.48 128.96 18.64 128.48 18.64H124.256V26.576H124.576L126.144 24.08C126.144 24.08 127.136 25.072 128.032 26.032C129.024 23.472 129.76 19.92 129.984 16.496L134.752 18.096C134.624 18.512 134.208 18.768 133.504 18.736C133.152 19.76 132.736 20.72 132.288 21.648H134.976V14.832L140 15.312C139.936 15.76 139.712 16.112 138.816 16.24V21.648H140.672L142.592 18.928C142.592 18.928 144.768 20.784 146.016 22.032C145.92 22.384 145.6 22.544 145.12 22.544H138.816V28.624H138.976L139.04 28.592V28.624H141.6L143.584 25.776C143.584 25.776 145.792 27.728 147.072 29.008C146.976 29.36 146.624 29.52 146.176 29.52ZM164.8 15.12L165.056 14.96C174.144 16.56 170.624 23.44 167.136 20.688C166.976 18.704 165.92 16.56 164.8 15.12ZM150.848 36.528L149.184 32.464C149.184 32.464 150.016 32.272 150.336 32.048C151.84 30.832 153.76 28.304 155.232 25.776C154.144 26.352 152.832 26.928 151.456 27.504C151.232 27.792 151.008 27.984 150.752 28.08L149.088 24.016C149.088 24.016 149.824 23.856 150.112 23.664C151.776 22.128 153.984 17.456 154.624 14.992L159.296 16.816C159.168 17.136 158.784 17.424 158.144 17.392C156.608 19.536 153.984 22.32 151.648 24.112C152.96 24.08 154.624 23.984 156.352 23.856C156.896 22.8 157.376 21.808 157.664 20.976L161.984 23.376C161.824 23.664 161.408 23.888 160.768 23.792C158.912 26.352 155.36 29.936 152.256 32.336C154.656 32.08 158.016 31.696 161.376 31.248L161.408 31.664C159.456 32.624 155.872 34.256 151.648 35.888C151.392 36.208 151.136 36.432 150.848 36.528ZM162.08 35.984L162.176 36.304C159.968 37.872 156.64 40.016 151.84 42.576C151.712 42.992 151.392 43.344 151.008 43.44L149.184 39.056C151.456 38.672 156.896 37.392 162.08 35.984ZM171.488 22.352H163.232C164.224 26.992 165.952 30.832 168.416 33.84C170.24 30.416 171.136 26.512 171.488 22.352ZM178.432 22.352H175.648C174.976 27.632 173.568 32.336 170.688 36.144C173.088 38.256 175.968 39.728 179.36 40.56L179.296 40.912C177.792 41.36 176.48 42.736 176 44.72C172.704 43.312 170.144 41.456 168.192 38.928C165.472 41.424 161.92 43.44 157.152 44.848L156.96 44.496C161.312 42.384 164.416 39.728 166.688 36.656C164.608 33.04 163.392 28.336 162.752 22.352H160.448L160.192 21.424H173.216L175.392 18.48C175.392 18.48 177.888 20.464 179.36 21.84C179.264 22.192 178.912 22.352 178.432 22.352Z" fill="#EEDAB3"/>
<path d="M29.5 55V54.5H28.5V55H29H29.5ZM29 313H28.5V313.5H29V313ZM84.3333 313C84.3333 314.473 85.5272 315.667 87 315.667C88.4728 315.667 89.6667 314.473 89.6667 313C89.6667 311.527 88.4728 310.333 87 310.333C85.5272 310.333 84.3333 311.527 84.3333 313ZM29 55H28.5V313H29H29.5V55H29ZM29 313V313.5H87V313V312.5H29V313Z" fill="#D0B585"/>
</svg>
