<svg width="169" height="316" viewBox="0 0 169 316" fill="none" xmlns="http://www.w3.org/2000/svg">
<rect width="169" height="55" rx="16" fill="#2E2E2E"/>
<path d="M44.984 35.28L44.888 40.688C46.264 42.032 46.456 42.864 46.104 43.568C45.272 45.104 43.256 45.008 40.6 44.336C30.04 41.936 29.432 32.08 29.56 18.512H16.92L16.632 17.616H29.176L31.192 15.344L35.032 18.576C34.808 18.832 34.328 19.056 33.56 19.216C33.432 21.904 33.4 24.464 33.496 26.8C33.912 26.832 34.296 26.864 34.68 26.928C36.952 24.336 39.96 20.432 41.496 18.224L45.432 21.584C45.24 21.84 44.856 21.936 44.184 21.712C42.328 23.248 38.744 25.456 35.832 27.056C46.616 28.784 45.784 35.856 41.688 34.736C39.928 32.368 36.536 29.68 33.56 27.888C34.008 34.288 35.928 38.96 41.752 39.952C42.648 40.144 42.936 40.016 43.224 39.472C43.768 38.384 44.216 36.88 44.664 35.248L44.984 35.28ZM76.952 28.56H64.344C65.56 33.424 69.432 38.16 78.232 40.976L78.2 41.36C76.312 41.712 75.192 42.736 74.904 44.848C67.576 41.168 64.952 34.8 63.928 29.424C62.776 36.24 59.288 41.328 48.216 44.848L47.96 44.368C56.696 40.144 59.256 34.992 60.024 28.56H49.08L48.824 27.632H60.12C60.344 25.04 60.344 22.288 60.344 19.248H50.936L50.68 18.32H69.72L71.928 15.536C71.928 15.536 74.424 17.424 75.96 18.736C75.864 19.088 75.48 19.248 75.032 19.248H64.6C64.536 22.288 64.472 25.072 64.216 27.632H71.608L73.848 24.816C73.848 24.816 76.376 26.704 77.88 28.048C77.784 28.4 77.432 28.56 76.952 28.56ZM89.976 15.248L93.592 18.608C93.368 18.928 92.92 19.024 92.152 19.056C91 21.04 88.984 24.4 87.32 26.416C90.968 28.528 92.504 31.696 92.504 34.288C92.504 37.456 91.224 39.344 87.48 39.408C87.48 38.384 87.352 36.944 87.064 36.464C86.808 36.112 86.296 35.824 85.528 35.664V35.248H87.608C87.928 35.248 88.12 35.216 88.312 35.088C88.792 34.8 89.048 34.256 89.048 33.264C89.048 31.056 88.344 28.592 86.488 26.48C87.096 24.4 87.864 20.592 88.28 18.032H85.112V43.728C85.112 43.984 84.056 44.848 82.264 44.848H81.656V15.632L85.528 17.136H88.056L89.976 15.248ZM96.888 14.96L101.816 15.44C101.752 15.92 101.432 16.208 100.632 16.336C100.6 17.968 100.568 19.6 100.536 21.168C101.272 29.968 103.672 36.72 110.488 40.848L110.392 41.2C108.76 41.52 107.672 42.736 107.288 44.72C102.68 40.688 100.92 33.776 100.216 26C99.448 33.392 96.92 40.048 87.864 44.912L87.512 44.464C97.336 36.368 96.856 26.256 96.888 14.96ZM129.112 18.864H122.392C121.912 20.624 121.208 22.384 120.344 24.112H124.632L126.616 22.096L130.008 25.168C129.784 25.52 129.464 25.616 128.696 25.712C126.552 33.904 122.456 41.2 112.696 44.88L112.44 44.496C119.416 40.304 123.224 33.072 124.824 25.04H119.864C119.224 26.192 118.52 27.312 117.72 28.4C125.112 29.936 121.976 35.728 118.872 33.328C118.744 31.92 118.008 30.384 117.112 29.232C115.64 31.088 113.944 32.784 112.056 34.16L111.768 33.84C114.904 29.744 117.24 23.824 117.944 18.864H112.568L112.312 17.936H124.152L126.232 15.056C126.232 15.056 128.6 17.008 130.008 18.352C129.912 18.704 129.592 18.864 129.112 18.864ZM134.008 18.704V36.4C134.008 36.72 132.536 37.392 131.288 37.392H130.712V17.456L135.032 17.872C134.968 18.288 134.744 18.576 134.008 18.704ZM136.888 15.408L141.688 15.888C141.624 16.336 141.304 16.656 140.536 16.784V40.4C140.536 42.992 139.96 44.464 135.64 44.848C135.544 43.696 135.352 42.8 134.808 42.224C134.264 41.648 133.496 41.232 131.768 40.976V40.496C131.768 40.496 135.416 40.752 136.184 40.752C136.728 40.752 136.888 40.56 136.888 40.112V15.408Z" fill="#EEDAB3"/>
<path d="M52.5 55V54.5H51.5V55H52H52.5ZM52 313H51.5V313.5H52V313ZM107.333 313C107.333 314.473 108.527 315.667 110 315.667C111.473 315.667 112.667 314.473 112.667 313C112.667 311.527 111.473 310.333 110 310.333C108.527 310.333 107.333 311.527 107.333 313ZM52 55H51.5V313H52H52.5V55H52ZM52 313V313.5H110V313V312.5H52V313Z" fill="#D0B585"/>
</svg>
