<svg width="457" height="152" viewBox="0 0 457 152" fill="none" xmlns="http://www.w3.org/2000/svg">
<path d="M2.112 86.196H49.344L54.08 80.18C54.08 80.18 59.328 84.212 62.592 86.964C62.4 87.668 61.696 87.988 60.736 87.988H2.624L2.112 86.196ZM9.856 62.964H41.344L45.824 57.396C45.824 57.396 50.88 61.172 53.952 63.796C53.76 64.5 53.056 64.82 52.096 64.82H10.368L9.856 62.964ZM5.568 41.908H46.208L50.816 36.084C50.816 36.084 56 40.052 59.136 42.74C58.944 43.444 58.176 43.764 57.28 43.764H6.08L5.568 41.908ZM81.664 66.676H91.904C92.608 62.516 92.672 58.1 92.8 53.364H81.664V66.676ZM101.312 42.804H86.784C84.608 45.428 82.112 47.988 79.36 50.356L82.496 51.508H96.384C98.176 49.076 100.096 45.492 101.312 42.804ZM111.04 53.364H100.608C100.416 58.164 100.16 62.516 99.328 66.676H111.04V53.364ZM123.52 77.94L123.776 85.108C125.824 85.876 126.336 86.708 126.336 88.116C126.336 91.06 123.648 92.404 112.128 92.404H104.96C98.24 92.404 96.768 91.124 96.768 86.196V74.548C92.8 82.74 84.416 89.332 66.368 94.196L65.792 93.236C83.392 86.26 89.408 78.132 91.52 68.468H81.664V70.388C81.664 70.964 79.36 72.884 75.648 72.884H74.368V54.26C71.68 56.18 68.864 57.844 66.048 59.188L65.536 58.548C72.64 52.916 79.808 42.676 83.136 33.78L93.376 36.404C93.12 37.108 92.608 37.364 90.816 37.236C90.048 38.452 89.216 39.732 88.256 40.948H101.376L105.408 36.98L112.256 42.996C111.744 43.508 111.04 43.636 109.696 43.764C106.752 46.26 102.464 49.396 98.368 51.508H110.4L113.856 47.796L121.024 53.236C120.64 53.748 119.744 54.324 118.464 54.58V68.788C118.4 69.364 114.752 70.836 112.32 70.836H111.04V68.468H103.808V69.172V84.468C103.808 85.492 104.128 85.748 106.304 85.748H112.832C115.2 85.748 117.376 85.748 118.4 85.684C119.296 85.62 119.744 85.492 120.128 84.852C120.768 83.956 121.728 81.332 122.816 77.94H123.52ZM105.92 71.732L106.496 71.348C123.456 74.548 118.144 86.708 111.936 82.356C111.168 78.708 108.352 74.42 105.92 71.732ZM167.488 40.948H134.272L133.696 39.156H166.656L169.92 35.572L176.64 40.5C176.256 40.948 175.36 41.332 174.208 41.524C174.272 42.804 174.464 44.084 174.72 45.3C175.936 45.236 177.088 45.3 178.048 45.364C179.264 43.124 180.736 39.988 181.568 38.196L187.904 42.74C187.584 43.252 187.008 43.444 185.664 43.124C184.512 43.892 182.4 44.852 180.544 45.748C189.312 47.732 186.88 55.412 181.888 53.428C180.672 50.932 177.6 47.988 174.912 46.26C176.128 51.572 178.88 56.436 184.128 58.1C185.088 58.42 185.344 58.292 185.728 57.652C186.432 56.244 187.136 54.324 187.776 52.276L188.48 52.404L188.096 59.316C189.952 61.236 190.464 62.644 189.696 63.988C188.352 66.548 184.512 65.972 181.44 64.5C171.776 60.596 168.384 51.572 167.488 40.948ZM147.84 63.604H154.496V47.86C153.856 48.18 152.896 48.308 151.488 48.052C149.696 49.268 147.328 50.484 144.64 51.7L150.08 52.212C149.888 53.044 149.376 53.748 147.84 53.94V63.604ZM188.864 80.18L188.48 87.668C190.336 89.78 190.784 91.316 190.016 92.596C188.48 95.156 184.64 94.324 181.632 92.724C171.456 88.308 168.256 77.748 167.488 65.396H161.792V91.828C161.792 92.532 158.592 94.196 155.904 94.196H154.496V65.396H147.84C147.584 76.02 144.768 87.924 130.56 94.196L130.048 93.556C139.008 86.004 140.544 75.252 140.608 65.396H130.496L129.92 63.604H140.608V53.364C137.472 54.58 134.08 55.668 130.816 56.436L130.496 55.668C136.576 52.34 143.488 46.644 146.688 42.612L154.496 47.028V42.548L163.904 43.508C163.776 44.34 163.264 44.916 161.792 45.172V63.604H166.72L169.984 60.02L176.768 65.012C176.32 65.46 175.424 65.908 174.272 66.1C174.336 68.084 174.528 70.132 174.912 72.18C176.064 72.18 177.152 72.244 178.112 72.372C179.072 69.94 180.224 66.804 180.8 64.948L187.968 68.916C187.712 69.492 187.136 69.748 185.664 69.556C184.512 70.452 182.4 71.668 180.544 72.82C189.952 75.252 187.456 83.188 182.336 81.076C181.056 78.516 177.984 75.444 175.168 73.46C176.448 79.22 179.2 84.34 184.384 86.196C185.408 86.58 185.792 86.516 186.112 85.748C186.816 84.276 187.52 82.228 188.224 80.116L188.864 80.18ZM251.904 61.62H226.688C229.12 71.348 236.864 80.82 254.464 86.452L254.4 87.22C250.624 87.924 248.384 89.972 247.808 94.196C233.152 86.836 227.904 74.1 225.856 63.348C223.552 76.98 216.576 87.156 194.432 94.196L193.92 93.236C211.392 84.788 216.512 74.484 218.048 61.62H196.16L195.648 59.764H218.24C218.688 54.58 218.688 49.076 218.688 42.996H199.872L199.36 41.14H237.44L241.856 35.572C241.856 35.572 246.848 39.348 249.92 41.972C249.728 42.676 248.96 42.996 248.064 42.996H227.2C227.072 49.076 226.944 54.644 226.432 59.764H241.216L245.696 54.132C245.696 54.132 250.752 57.908 253.76 60.596C253.568 61.3 252.864 61.62 251.904 61.62ZM300.992 50.804H288.96V55.668H300.992V50.804ZM275.392 42.804H258.752L258.304 40.948H275.392V34.1L284.8 34.932C284.736 35.828 284.16 36.404 282.56 36.66V40.948H293.44V34.1L302.976 34.932C302.912 35.828 302.336 36.404 300.672 36.66V40.948H307.84L311.68 36.148C311.68 36.148 315.712 39.476 318.144 41.78C318.016 42.484 317.376 42.804 316.416 42.804H300.672V46.132C300.672 46.708 297.92 47.604 294.656 47.668H293.44V42.804H282.56V46.388V46.452L289.28 49.012H300.416L303.552 45.748L310.208 50.548C309.888 50.996 309.056 51.572 307.84 51.764V58.228C307.776 58.74 304.384 60.084 302.208 60.084H300.992V57.524H288.96V58.42C288.96 58.932 285.888 60.404 283.136 60.404H282.24V46.772C281.408 47.348 279.168 47.924 276.608 47.924H275.392V42.804ZM261.696 47.924L262.208 47.476C278.144 47.348 273.536 59.572 267.072 55.86C266.432 52.916 263.936 49.652 261.696 47.924ZM257.792 58.484L258.304 58.036C274.432 58.356 268.928 70.708 262.592 66.356C262.208 63.476 260.096 60.212 257.792 58.484ZM274.752 55.284L275.712 55.604C273.792 61.428 269.888 72.628 269.248 75.252C268.736 76.916 268.352 78.964 268.416 80.372C268.48 83.06 271.04 84.98 270.784 89.652C270.656 92.276 268.736 94.132 265.536 94.132C264.128 94.132 262.784 93.236 262.336 91.316C263.296 85.748 263.04 81.14 261.696 80.372C260.864 79.86 259.968 79.604 258.688 79.476V78.26H261.568C262.528 78.26 262.784 78.26 263.488 77.108C264.704 74.996 264.704 74.996 274.752 55.284ZM298.56 75.06V77.172H307.84L310.976 73.396C310.592 73.46 310.144 73.524 309.76 73.524H308.672V71.092H302.72V72.18C302.72 72.5 301.824 73.012 300.608 73.46C300.544 74.228 300.032 74.804 298.56 75.06ZM308.672 63.668H302.72V69.236H308.672V63.668ZM281.664 69.236H287.104V63.668H281.664V69.236ZM316.416 79.028H301.568C305.856 82.292 312.768 84.532 318.976 85.364L318.912 86.068C316.288 86.836 314.432 89.076 313.728 92.724C307.264 89.908 302.528 85.364 299.52 79.028H298.56V92.404C298.56 92.98 295.36 94.132 292.608 94.132H291.328V84.148C286.4 88.052 279.808 91.06 272.448 93.108L271.936 92.276C278.528 89.012 283.84 84.148 287.232 79.028H273.28L272.768 77.172H291.328V72.948C290.304 73.268 289.088 73.524 288.128 73.524H287.104V71.092H281.664V72.692C281.664 73.204 278.976 74.484 276.544 74.484H275.712V59.316L281.856 61.812H286.528L289.344 58.804L295.488 63.284C295.168 63.732 294.4 64.244 293.312 64.436V71.924C293.312 72.116 292.8 72.372 292.16 72.628L296.704 73.076V59.316L302.976 61.812H308.096L311.04 58.74L317.184 63.348C316.928 63.732 316.096 64.244 315.008 64.436V71.924C314.944 72.244 313.6 72.82 312.128 73.204C313.344 74.1 316.224 76.276 318.208 78.004C318.016 78.708 317.376 79.028 316.416 79.028ZM345.344 67.444H358.464V51.828H345.536V63.54C345.536 64.884 345.472 66.164 345.344 67.444ZM370.432 67.444L374.656 61.94C374.656 61.94 379.392 65.652 382.208 68.212C382.08 68.916 381.312 69.236 380.416 69.236H366.016V91.38C366.016 92.212 362.688 94.068 359.936 94.068H358.464V69.236H345.216C343.872 80.372 338.56 89.076 325.12 94.196L324.608 93.556C333.312 87.348 336.896 79.284 337.792 69.236H322.688L322.176 67.444H337.92C337.984 66.164 338.048 64.884 338.048 63.54V51.828H324.8L324.224 49.972H338.048V34.548L347.84 35.508C347.712 36.404 347.2 37.044 345.536 37.3V49.972H358.464V34.484L368.384 35.508C368.256 36.404 367.744 37.044 366.016 37.3V49.972H369.472L373.44 44.788C373.44 44.788 377.856 48.372 380.608 50.804C380.416 51.508 379.712 51.828 378.816 51.828H366.016V67.444H370.432Z" fill="#EEDAB3"/>
<path d="M13.216 129.736H11.464V128.344H5.848V126.736H11.464V124.624H13.216V126.736H18.808V124.624H20.56V126.736H26.152V128.344H20.56V129.736H18.808V128.344H13.216V129.736ZM26.152 141.544H17.296C18.808 143.224 21.496 144.424 26.536 144.976L26.176 146.68C21.064 145.96 17.92 144.688 16.072 142.504C14.776 144.424 11.848 145.912 5.752 146.8L5.296 145.072C10.792 144.4 13.48 143.392 14.536 141.544H5.848V140.056H15.04L15.064 139.816C15.088 139.624 15.088 138.832 15.088 138.232H8.152V130.48H23.872V138.232H16.936C16.936 138.832 16.912 139.624 16.912 139.816C16.912 139.888 16.912 139.984 16.888 140.056H26.152V141.544ZM22.168 133.624V131.944H9.856V133.624H22.168ZM22.168 135.016H9.856V136.792H22.168V135.016ZM41.464 126.808H50.56V128.296H29.536V126.808H39.352C39.04 126.136 38.704 125.44 38.44 124.96L40.312 124.336C40.6 124.912 41.104 125.992 41.464 126.808ZM32.968 134.488V129.928H47.128V134.488H32.968ZM34.72 133.096H45.352V131.32H34.72V133.096ZM32.632 146.416H30.832V136.216H49.264V143.656C49.264 145.624 48.616 146.224 46.432 146.224H43.816L43.504 144.664H45.784C47.176 144.664 47.464 144.376 47.464 143.176V137.632H32.632V146.416ZM35.44 139.336H44.656V143.992H35.44V139.336ZM37.144 142.624H42.952V140.68H37.144V142.624ZM71.8 128.176H56.2V130.24H54.376V126.76H63.496C63.232 126.016 62.872 125.128 62.728 124.792L64.6 124.504C64.72 124.84 65.128 125.944 65.44 126.76H73.672V130.24H71.8V128.176ZM65.488 129.952L65.92 128.608C67.384 129.064 71.968 130.552 73.84 131.152L73.36 132.472L72.496 132.16V136.384H57.784C57.76 141.04 57.016 143.656 55.264 146.608L53.68 145.648C55.504 142.6 56.08 140.44 56.08 136.024V132.064L54.856 132.424L54.424 131.008C56.992 130.384 60.112 129.352 62.032 128.512L62.584 129.832C60.904 130.48 58.744 131.248 56.632 131.896H71.704C69.592 131.2 66.88 130.336 65.488 129.952ZM57.784 135.04H70.792V133.216H57.784V135.04ZM66.592 144.28H71.176V141.592H72.856V146.584H71.176V145.696H58.72V141.64H60.4V144.28H64.96V140.8H59.32V137.416H60.976V139.432H64.96V136.744H66.592V139.432H70.528V137.44H72.208V140.8H66.592V144.28ZM85.7929 146.608V126.496H104.297V146.608H102.497V144.808H87.5689V146.608H85.7929ZM87.5689 128.224V143.032H102.497V138.928H99.8329C97.6729 138.928 96.7369 138.232 96.7369 135.952V128.224H93.3049V131.896C93.3049 136.168 92.4409 137.68 89.3689 140.248L88.0489 139.024C91.0009 136.72 91.5289 135.472 91.5289 131.824V128.224H87.5689ZM100.361 137.104H102.497V128.224H98.4889V135.28C98.4889 136.768 98.8489 137.104 100.361 137.104ZM114.569 145.336C110.705 145.336 108.449 142.192 108.449 136.12C108.449 130.048 110.705 126.904 114.569 126.904C118.457 126.904 120.689 130.048 120.689 136.12C120.689 142.192 118.457 145.336 114.569 145.336ZM114.569 143.416C117.065 143.416 118.553 140.968 118.553 136.12C118.553 131.272 117.065 128.824 114.569 128.824C112.073 128.824 110.585 131.272 110.585 136.12C110.585 140.968 112.073 143.416 114.569 143.416ZM141.588 141.832L141.732 138.664L143.58 139.12C143.58 139.144 143.436 142.096 143.388 142.84C143.268 145.096 142.26 145.672 139.692 145.672H134.58C131.82 145.672 130.788 144.904 130.788 142.216V134.848L123.948 135.928L123.66 133.984L130.788 132.856V124.84H132.78V132.544L144.492 130.72L144.708 132.64L132.78 134.536V141.832C132.78 143.44 133.092 143.824 134.82 143.824H139.308C141.228 143.824 141.516 143.608 141.588 141.832ZM165.972 128.176H150.372V130.24H148.548V126.76H157.668C157.404 126.016 157.044 125.128 156.9 124.792L158.772 124.504C158.892 124.84 159.3 125.944 159.612 126.76H167.844V130.24H165.972V128.176ZM159.66 129.952L160.092 128.608C161.556 129.064 166.14 130.552 168.012 131.152L167.532 132.472L166.668 132.16V136.384H151.956C151.932 141.04 151.188 143.656 149.436 146.608L147.852 145.648C149.676 142.6 150.252 140.44 150.252 136.024V132.064L149.028 132.424L148.596 131.008C151.164 130.384 154.284 129.352 156.204 128.512L156.756 129.832C155.076 130.48 152.916 131.248 150.804 131.896H165.876C163.764 131.2 161.052 130.336 159.66 129.952ZM151.956 135.04H164.964V133.216H151.956V135.04ZM160.764 144.28H165.348V141.592H167.028V146.584H165.348V145.696H152.892V141.64H154.572V144.28H159.132V140.8H153.492V137.416H155.148V139.432H159.132V136.744H160.764V139.432H164.7V137.44H166.38V140.8H160.764V144.28ZM199.525 126.832V128.272H190.765C190.501 128.776 190.237 129.28 189.949 129.736H198.013V131.104H194.605V132.832H199.285V134.2H187.621V132.832H192.949V131.104H189.925V129.784C188.869 131.536 187.597 132.976 186.037 134.296L185.005 133.048C186.661 131.632 187.957 130.12 188.965 128.272H186.445V126.832H189.661C189.949 126.112 190.213 125.368 190.453 124.552L192.109 124.816C191.893 125.536 191.653 126.208 191.389 126.832H199.525ZM185.605 125.968V127.696L183.949 133.36C185.221 135.568 185.701 137.248 185.701 139C185.701 141.568 185.029 142.384 182.725 142.384H181.885L181.549 140.656H182.293C183.541 140.656 184.021 140.368 184.045 138.64C184.069 137.272 183.469 135.616 182.197 133.672L183.853 127.648H181.165V146.536H179.533V125.968H185.605ZM188.989 146.344H187.357V135.784H198.349V143.656C198.349 145.744 197.773 146.272 195.565 146.272H193.237L192.973 144.76H195.253C196.477 144.76 196.765 144.472 196.765 143.44V143.008H188.989V146.344ZM196.765 138.736V137.272H188.989V138.736H196.765ZM188.989 140.152V141.544H196.765V140.152H188.989Z" fill="#EEDAB3"/>
<path d="M4 106H454" stroke="#AF8443" stroke-width="3"/>
<path d="M4 113H248" stroke="#AF8443" stroke-width="1.5"/>
</svg>
