<svg width="454" height="74" viewBox="0 0 454 74" fill="none" xmlns="http://www.w3.org/2000/svg">
<path d="M0 36.9552C0 16.5454 16.5454 0 36.9552 0H416.443C436.853 0 453.398 16.5454 453.398 36.9552C453.398 57.365 436.853 73.9104 416.443 73.9104H36.9552C16.5454 73.9104 0 57.365 0 36.9552Z" fill="#1A1A1A" fill-opacity="0.5"/>
<path d="M61.9019 29.7002V31.3137H53.4988C53.3521 31.9843 53.1636 32.6758 52.9959 33.3045H59.5339V46.3596H57.7527V45.1023H47.6733V46.4015H45.8711V33.3045H51.0471C51.2357 32.6758 51.4243 31.9843 51.5919 31.3137H43.5451V29.7002H49.0982C48.6372 29.0715 47.9667 28.1914 47.5266 27.6047L49.0354 26.7874C49.4964 27.3951 50.3346 28.4219 50.8585 29.1973L49.8736 29.7002H54.379C55.0076 28.841 55.8458 27.6256 56.3068 26.8503L58.0461 27.5208C57.648 28.0866 57.0403 28.9667 56.4954 29.7002H61.9019ZM47.6733 36.7411H57.7527V34.8761H47.6733V36.7411ZM57.7527 38.2918H47.6733V40.1568H57.7527V38.2918ZM47.6733 41.6866V43.5725H57.7527V41.6866H47.6733ZM65.2966 29.9516V28.2124H82.878V29.9516H75.0617C74.8731 30.706 74.6007 31.6909 74.3493 32.5291H81.0759V41.2675H79.2528V34.2684H68.9847V41.3932H67.1407V32.5291H72.3376C72.589 31.6909 72.8614 30.7479 73.05 29.9516H65.2966ZM74.936 37.8518C74.9151 38.7528 74.8312 39.5491 74.6426 40.2826C76.8639 41.3932 80.7616 43.4258 82.7942 44.4736L81.8931 46.3177C79.8186 45.1651 76.1305 43.1115 73.9302 41.938C72.7986 43.6983 70.4516 45.0603 65.7576 46.4853L64.8985 44.6203C72.1071 42.6924 72.9662 41.0789 73.1129 37.7679C73.1339 37.4536 73.1339 35.7353 73.1339 35.4629H74.957L74.936 37.8518Z" fill="#999999"/>
<path d="M117.84 36.9554C117.84 21.5055 130.365 8.98096 145.815 8.98096H198.725C214.175 8.98096 226.7 21.5055 226.7 36.9554C226.7 52.4052 214.175 64.9298 198.725 64.9298H145.815C130.365 64.9298 117.84 52.4052 117.84 36.9554Z" fill="#3A3A3A" fill-opacity="0.5"/>
<path d="M171.201 43.8659L169.651 46.4853C167.765 45.4794 166.235 44.3898 164.957 43.1325C163.72 44.3269 162.107 45.4585 160.011 46.6739L158.23 44.3898L158.586 44.2221L152.488 45.4166L152.111 42.7762L159.592 41.3513L159.676 43.6773C161.122 42.902 162.295 42.0428 163.259 41.0579C161.792 38.8995 160.891 36.2172 160.388 32.6968H159.697C158.67 34.6037 156.973 37.3907 156.26 38.0823L159.424 37.5374L159.445 40.1359L153.347 41.0789L152.761 38.4175C153.494 37.5374 154.27 36.5316 155.024 35.4838L152.761 35.7353L152.153 33.1368C153.662 31.2509 154.731 29.2601 155.673 27.1227L158.104 27.9609C157.098 30.0564 155.841 32.0891 155.192 33.0111L156.7 32.8854C157.161 32.131 157.559 31.3976 157.853 30.7689L158.984 31.3766V30.0564H163.448C163.217 29.1973 162.924 28.0238 162.777 27.4789L165.921 27.1227L166.696 30.0564H171.076V32.6968H169.483C168.917 36.3011 168.205 38.8366 166.822 40.9322C167.953 42.0428 169.399 42.9858 171.201 43.8659ZM166.738 32.6968H163.092C163.448 35.1276 164.056 37.0555 164.999 38.648C165.879 37.0135 166.403 35.0857 166.738 32.6968ZM187.63 39.6958H192.387V42.3362H187.63V46.4643H184.843V42.3362H180.107V39.6958H184.843V37.747H181.218V35.0857H184.843V33.2626H180.694V30.6432H183.23C182.852 29.9516 182.161 28.6524 181.868 28.1704L184.152 26.9341C184.403 27.3951 185.43 29.1553 185.723 29.7421L184.005 30.6432H186.645C187.211 29.5116 187.882 27.9609 188.259 26.955L190.815 27.8771C190.522 28.5896 190.04 29.6583 189.558 30.6432H191.842V33.2626H187.63V35.0857H191.339V37.747H187.63V39.6958ZM181.05 36.8459L179.625 39.0462C179.269 38.7319 178.829 38.3756 178.41 38.0194V46.5272H175.707V39.0462C175.204 40.1149 174.617 41.2465 173.967 42.3152L173.402 38.2499C174.324 36.8459 175.099 35.1695 175.707 33.3045H173.842V30.6432H175.707V27.458H178.41V30.6432H180.128V33.3045H178.41V34.8342C179.206 35.4 180.443 36.343 181.05 36.8459Z" fill="white"/>
<path d="M277.65 40.6178L279.348 41.016C279.327 41.5608 279.243 42.9229 279.222 43.3839C279.117 45.2908 278.363 45.8147 276.016 45.8147H266.335C264.092 45.8147 263.17 44.9765 263.17 42.6714V34.3941C262.919 34.6247 262.667 34.8342 262.416 35.0438L261.18 33.6188C263.506 31.7957 265.664 29.4278 267.026 26.8712L268.765 27.5418C268.514 28.0028 268.241 28.4429 267.969 28.862H275.66V30.3288L273.271 33.053H277.755V39.8006H264.972V42.2104C264.972 43.7192 265.371 44.0964 267.005 44.0964H275.66C277.168 44.0964 277.525 43.8449 277.587 42.6505C277.608 42.2523 277.65 40.9741 277.65 40.6178ZM270.966 33.053L273.355 30.4755H266.837C266.125 31.3976 265.392 32.2567 264.595 33.053H270.966ZM264.972 34.7504V38.208H269.562V34.7504H264.972ZM271.301 38.208H275.974V34.7504H271.301V38.208ZM298.836 27.5418L300.135 28.5267C298.27 30.8318 296.154 32.613 294.121 33.9331L293.199 32.4872C295.127 31.2928 297.013 29.784 298.836 27.5418ZM292.759 27.8352L293.052 29.4697C290.307 29.9307 285.97 30.4127 283.099 30.5593L282.91 28.862C285.907 28.7991 290.098 28.3171 292.759 27.8352ZM291.229 35.1485L289.867 34.5408C290.517 33.3254 291.271 31.67 291.753 30.4336L293.178 31.0204C292.675 32.131 291.837 33.975 291.229 35.1485ZM289.406 33.5978L288.002 34.2265C287.688 33.4512 286.996 31.8795 286.619 31.0623L288.023 30.4546C288.442 31.3556 289.05 32.7806 289.406 33.5978ZM286.158 34.3313L284.817 35.0857C284.419 34.1636 283.497 32.3615 283.015 31.5023L284.377 30.7479C284.901 31.7119 285.718 33.4302 286.158 34.3313ZM294.226 39.8006L293.262 38.2499C295.483 36.9507 297.684 35.0228 299.423 32.8225L300.701 33.8284C298.962 36.1125 296.51 38.3337 294.226 39.8006ZM293.094 42.0847L292.172 43.5725C291.083 42.6924 290.014 41.8123 288.945 40.995V46.4015H287.29V40.4921C286.221 42.2314 284.901 43.6563 283.35 44.9137L282.491 43.3839C284.398 41.8961 285.865 40.2406 286.913 38.1451H282.994V36.5525H287.29V34.8342H288.945V36.5525H292.885V38.1451H288.945V39.151C290.37 40.073 291.774 41.0998 293.094 42.0847ZM299.989 38.5852L301.267 39.5491C299.171 42.2523 295.881 44.8089 292.759 46.4853L291.921 44.9346C294.917 43.4258 297.809 41.2884 299.989 38.5852Z" fill="#999999"/>
<path d="M372.26 33.4512L374.649 33.1578C375.005 32.5291 375.341 31.9005 375.655 31.2928L377.143 32.11C375.864 34.4989 374.23 36.9507 372.868 38.7319L376.367 38.1661L376.409 39.8425L370.961 40.6807L370.626 39.0043C371.799 37.6003 372.805 36.1753 373.664 34.7923L370.542 35.2324L370.207 33.6188C371.59 31.8167 372.931 29.1134 373.895 27.0389L375.383 27.6675C374.419 29.6583 373.161 32.11 372.26 33.4512ZM388.438 30.0145V31.6909H383.492V34.5618H387.851V36.2382H377.457V34.5618H381.732V31.6909H377.017V30.0145H381.732V27.2065H383.492V30.0145H388.438ZM379.615 46.4434H377.876V38.3756H387.285V46.4434H385.546V45.1442H379.615V46.4434ZM385.546 43.5097V40.0311H379.615V43.5097H385.546ZM370.311 45.0603L370.081 43.3001L376.598 42.1895L376.703 43.9916L370.311 45.0603ZM401.66 29.9726H409.246C409.204 30.6851 408.911 42.3781 408.89 43.1325C408.827 45.228 407.947 45.9405 405.663 45.9405H402.561L402.205 44.0964H404.992C406.752 44.0964 407.151 43.803 407.213 42.2523L407.507 31.7119H400.885C400.277 32.9692 399.607 34.1427 398.936 35.0857L397.532 34.1636C398.936 32.1519 400.214 29.4906 400.906 27.0598L402.54 27.5208C402.31 28.2962 401.996 29.1344 401.66 29.9726ZM395.835 32.9273V34.8971C396.694 35.5886 397.909 36.6154 398.643 37.3069L397.637 38.7319C397.113 38.187 396.463 37.5374 395.835 36.9716V46.4434H394.158V36.6154C393.488 38.4175 392.671 40.1359 391.811 41.5399L391.246 39.3186C392.293 37.6212 393.299 35.3162 393.97 32.9273H391.728V31.188H394.158V27.1646H395.835V31.188H398.098V32.9273H395.835ZM406.899 41.6656L405.474 42.3571C405.327 42.0218 405.181 41.6237 405.013 41.2255L398.706 41.7704L398.182 40.2197C399.565 38.0194 400.759 35.0857 401.367 33.1159L402.96 33.6398C402.31 35.5676 400.99 38.5433 400.235 39.9892L404.322 39.6329C403.777 38.3966 403.211 37.1393 402.813 36.3011L404.175 35.6305C404.866 37.0555 406.291 40.1149 406.899 41.6656Z" fill="#999999"/>
</svg>
