<svg width="457" height="121" viewBox="0 0 457 121" fill="none" xmlns="http://www.w3.org/2000/svg">
<path d="M1.98 84.34H46.26L50.7 78.7C50.7 78.7 55.62 82.48 58.68 85.06C58.5 85.72 57.84 86.02 56.94 86.02H2.46L1.98 84.34ZM9.24 62.56H38.76L42.96 57.34C42.96 57.34 47.7 60.88 50.58 63.34C50.4 64 49.74 64.3 48.84 64.3H9.72L9.24 62.56ZM5.22 42.82H43.32L47.64 37.36C47.64 37.36 52.5 41.08 55.44 43.6C55.26 44.26 54.54 44.56 53.7 44.56H5.7L5.22 42.82ZM76.56 66.04H86.16C86.82 62.14 86.88 58 87 53.56H76.56V66.04ZM94.98 43.66H81.36C79.32 46.12 76.98 48.52 74.4 50.74L77.34 51.82H90.36C92.04 49.54 93.84 46.18 94.98 43.66ZM104.1 53.56H94.32C94.14 58.06 93.9 62.14 93.12 66.04H104.1V53.56ZM115.8 76.6L116.04 83.32C117.96 84.04 118.44 84.82 118.44 86.14C118.44 88.9 115.92 90.16 105.12 90.16H98.4C92.1 90.16 90.72 88.96 90.72 84.34V73.42C87 81.1 79.14 87.28 62.22 91.84L61.68 90.94C78.18 84.4 83.82 76.78 85.8 67.72H76.56V69.52C76.56 70.06 74.4 71.86 70.92 71.86H69.72V54.4C67.2 56.2 64.56 57.76 61.92 59.02L61.44 58.42C68.1 53.14 74.82 43.54 77.94 35.2L87.54 37.66C87.3 38.32 86.82 38.56 85.14 38.44C84.42 39.58 83.64 40.78 82.74 41.92H95.04L98.82 38.2L105.24 43.84C104.76 44.32 104.1 44.44 102.84 44.56C100.08 46.9 96.06 49.84 92.22 51.82H103.5L106.74 48.34L113.46 53.44C113.1 53.92 112.26 54.46 111.06 54.7V68.02C111 68.56 107.58 69.94 105.3 69.94H104.1V67.72H97.32V68.38V82.72C97.32 83.68 97.62 83.92 99.66 83.92H105.78C108 83.92 110.04 83.92 111 83.86C111.84 83.8 112.26 83.68 112.62 83.08C113.22 82.24 114.12 79.78 115.14 76.6H115.8ZM99.3 70.78L99.84 70.42C115.74 73.42 110.76 84.82 104.94 80.74C104.22 77.32 101.58 73.3 99.3 70.78ZM157.02 41.92H125.88L125.34 40.24H156.24L159.3 36.88L165.6 41.5C165.24 41.92 164.4 42.28 163.32 42.46C163.38 43.66 163.56 44.86 163.8 46C164.94 45.94 166.02 46 166.92 46.06C168.06 43.96 169.44 41.02 170.22 39.34L176.16 43.6C175.86 44.08 175.32 44.26 174.06 43.96C172.98 44.68 171 45.58 169.26 46.42C177.48 48.28 175.2 55.48 170.52 53.62C169.38 51.28 166.5 48.52 163.98 46.9C165.12 51.88 167.7 56.44 172.62 58C173.52 58.3 173.76 58.18 174.12 57.58C174.78 56.26 175.44 54.46 176.04 52.54L176.7 52.66L176.34 59.14C178.08 60.94 178.56 62.26 177.84 63.52C176.58 65.92 172.98 65.38 170.1 64C161.04 60.34 157.86 51.88 157.02 41.92ZM138.6 63.16H144.84V48.4C144.24 48.7 143.34 48.82 142.02 48.58C140.34 49.72 138.12 50.86 135.6 52L140.7 52.48C140.52 53.26 140.04 53.92 138.6 54.1V63.16ZM177.06 78.7L176.7 85.72C178.44 87.7 178.86 89.14 178.14 90.34C176.7 92.74 173.1 91.96 170.28 90.46C160.74 86.32 157.74 76.42 157.02 64.84H151.68V89.62C151.68 90.28 148.68 91.84 146.16 91.84H144.84V64.84H138.6C138.36 74.8 135.72 85.96 122.4 91.84L121.92 91.24C130.32 84.16 131.76 74.08 131.82 64.84H122.34L121.8 63.16H131.82V53.56C128.88 54.7 125.7 55.72 122.64 56.44L122.34 55.72C128.04 52.6 134.52 47.26 137.52 43.48L144.84 47.62V43.42L153.66 44.32C153.54 45.1 153.06 45.64 151.68 45.88V63.16H156.3L159.36 59.8L165.72 64.48C165.3 64.9 164.46 65.32 163.38 65.5C163.44 67.36 163.62 69.28 163.98 71.2C165.06 71.2 166.08 71.26 166.98 71.38C167.88 69.1 168.96 66.16 169.5 64.42L176.22 68.14C175.98 68.68 175.44 68.92 174.06 68.74C172.98 69.58 171 70.72 169.26 71.8C178.08 74.08 175.74 81.52 170.94 79.54C169.74 77.14 166.86 74.26 164.22 72.4C165.42 77.8 168 82.6 172.86 84.34C173.82 84.7 174.18 84.64 174.48 83.92C175.14 82.54 175.8 80.62 176.46 78.64L177.06 78.7ZM236.16 61.3H212.52C214.8 70.42 222.06 79.3 238.56 84.58L238.5 85.3C234.96 85.96 232.86 87.88 232.32 91.84C218.58 84.94 213.66 73 211.74 62.92C209.58 75.7 203.04 85.24 182.28 91.84L181.8 90.94C198.18 83.02 202.98 73.36 204.42 61.3H183.9L183.42 59.56H204.6C205.02 54.7 205.02 49.54 205.02 43.84H187.38L186.9 42.1H222.6L226.74 36.88C226.74 36.88 231.42 40.42 234.3 42.88C234.12 43.54 233.4 43.84 232.56 43.84H213C212.88 49.54 212.76 54.76 212.28 59.56H226.14L230.34 54.28C230.34 54.28 235.08 57.82 237.9 60.34C237.72 61 237.06 61.3 236.16 61.3ZM282.18 51.16H270.9V55.72H282.18V51.16ZM258.18 43.66H242.58L242.16 41.92H258.18V35.5L267 36.28C266.94 37.12 266.4 37.66 264.9 37.9V41.92H275.1V35.5L284.04 36.28C283.98 37.12 283.44 37.66 281.88 37.9V41.92H288.6L292.2 37.42C292.2 37.42 295.98 40.54 298.26 42.7C298.14 43.36 297.54 43.66 296.64 43.66H281.88V46.78C281.88 47.32 279.3 48.16 276.24 48.22H275.1V43.66H264.9V47.02V47.08L271.2 49.48H281.64L284.58 46.42L290.82 50.92C290.52 51.34 289.74 51.88 288.6 52.06V58.12C288.54 58.6 285.36 59.86 283.32 59.86H282.18V57.46H270.9V58.3C270.9 58.78 268.02 60.16 265.44 60.16H264.6V47.38C263.82 47.92 261.72 48.46 259.32 48.46H258.18V43.66ZM245.34 48.46L245.82 48.04C260.76 47.92 256.44 59.38 250.38 55.9C249.78 53.14 247.44 50.08 245.34 48.46ZM241.68 58.36L242.16 57.94C257.28 58.24 252.12 69.82 246.18 65.74C245.82 63.04 243.84 59.98 241.68 58.36ZM257.58 55.36L258.48 55.66C256.68 61.12 253.02 71.62 252.42 74.08C251.94 75.64 251.58 77.56 251.64 78.88C251.7 81.4 254.1 83.2 253.86 87.58C253.74 90.04 251.94 91.78 248.94 91.78C247.62 91.78 246.36 90.94 245.94 89.14C246.84 83.92 246.6 79.6 245.34 78.88C244.56 78.4 243.72 78.16 242.52 78.04V76.9H245.22C246.12 76.9 246.36 76.9 247.02 75.82C248.16 73.84 248.16 73.84 257.58 55.36ZM279.9 73.9V75.88H288.6L291.54 72.34C291.18 72.4 290.76 72.46 290.4 72.46H289.38V70.18H283.8V71.2C283.8 71.5 282.96 71.98 281.82 72.4C281.76 73.12 281.28 73.66 279.9 73.9ZM289.38 63.22H283.8V68.44H289.38V63.22ZM264.06 68.44H269.16V63.22H264.06V68.44ZM296.64 77.62H282.72C286.74 80.68 293.22 82.78 299.04 83.56L298.98 84.22C296.52 84.94 294.78 87.04 294.12 90.46C288.06 87.82 283.62 83.56 280.8 77.62H279.9V90.16C279.9 90.7 276.9 91.78 274.32 91.78H273.12V82.42C268.5 86.08 262.32 88.9 255.42 90.82L254.94 90.04C261.12 86.98 266.1 82.42 269.28 77.62H256.2L255.72 75.88H273.12V71.92C272.16 72.22 271.02 72.46 270.12 72.46H269.16V70.18H264.06V71.68C264.06 72.16 261.54 73.36 259.26 73.36H258.48V59.14L264.24 61.48H268.62L271.26 58.66L277.02 62.86C276.72 63.28 276 63.76 274.98 63.94V70.96C274.98 71.14 274.5 71.38 273.9 71.62L278.16 72.04V59.14L284.04 61.48H288.84L291.6 58.6L297.36 62.92C297.12 63.28 296.34 63.76 295.32 63.94V70.96C295.26 71.26 294 71.8 292.62 72.16C293.76 73 296.46 75.04 298.32 76.66C298.14 77.32 297.54 77.62 296.64 77.62ZM323.76 66.76H336.06V52.12H323.94V63.1C323.94 64.36 323.88 65.56 323.76 66.76ZM347.28 66.76L351.24 61.6C351.24 61.6 355.68 65.08 358.32 67.48C358.2 68.14 357.48 68.44 356.64 68.44H343.14V89.2C343.14 89.98 340.02 91.72 337.44 91.72H336.06V68.44H323.64C322.38 78.88 317.4 87.04 304.8 91.84L304.32 91.24C312.48 85.42 315.84 77.86 316.68 68.44H302.52L302.04 66.76H316.8C316.86 65.56 316.92 64.36 316.92 63.1V52.12H304.5L303.96 50.38H316.92V35.92L326.1 36.82C325.98 37.66 325.5 38.26 323.94 38.5V50.38H336.06V35.86L345.36 36.82C345.24 37.66 344.76 38.26 343.14 38.5V50.38H346.38L350.1 45.52C350.1 45.52 354.24 48.88 356.82 51.16C356.64 51.82 355.98 52.12 355.14 52.12H343.14V66.76H347.28Z" fill="#EEDAB3"/>
</svg>
