<svg width="160" height="31" viewBox="0 0 160 31" fill="none" xmlns="http://www.w3.org/2000/svg">
<path d="M17.0238 20.7039L17.1198 25.1519C18.1438 25.5999 18.3998 25.9839 18.3998 26.6239C18.3998 28.1279 16.9278 28.7039 11.3918 28.7039H7.99976C4.70376 28.7039 3.87176 28.0319 3.87176 25.5039V11.8719C2.75176 12.8319 1.56776 13.7279 0.287758 14.4959L-0.000242174 14.1759C3.67976 10.2719 6.49576 4.28786 7.71176 -0.000137329L12.3838 1.98386C12.2238 2.33586 11.9358 2.55986 11.1358 2.49586C21.0238 5.11986 18.5598 12.1599 14.9118 9.88786C14.2398 7.67986 12.4158 5.21586 10.6878 3.35986C9.50376 5.50386 7.87176 7.83986 5.82376 10.0159L7.80776 10.7839H12.0638L13.8238 9.08786L16.9918 11.6799C16.7678 11.9359 16.4158 12.1279 15.8078 12.2239C15.8078 18.2079 15.6478 20.1279 14.4958 21.0559C13.6958 21.6959 12.6718 21.9519 11.1678 21.9519C11.1678 20.9919 11.1038 20.3199 10.7198 19.8399C10.3358 19.4239 9.69576 19.1039 8.76776 18.8799V18.4639C9.50376 18.5279 10.7518 18.5919 11.2318 18.5919C11.6798 18.5919 11.8398 18.5279 11.9998 18.3359C12.3518 17.9839 12.3838 16.0639 12.3838 11.7119H7.39176V24.7359C7.39176 25.3119 7.58376 25.5039 8.73576 25.5039H11.7438C12.8958 25.5039 13.8878 25.5039 14.3358 25.4399C14.7518 25.4079 15.0078 25.3439 15.1998 25.0239C15.5518 24.4159 16.0958 22.7199 16.6718 20.7039H17.0238ZM22.6878 5.24786V21.7279C22.6878 22.0159 21.1838 22.7199 19.9038 22.7199H19.2958V3.96786L23.7438 4.41586C23.7118 4.83186 23.4558 5.11986 22.6878 5.24786ZM25.4718 0.191862L30.1758 0.671862C30.1118 1.11986 29.7918 1.43986 28.9918 1.56786V25.9839C28.9918 28.4799 28.4478 29.8879 24.2558 30.3039C24.1598 29.1519 24.0318 28.2879 23.4878 27.7759C22.9758 27.1999 22.2398 26.7839 20.5758 26.5279V26.0799C20.5758 26.0799 24.0638 26.3039 24.7358 26.3039C25.3118 26.3039 25.4718 26.1119 25.4718 25.6959V0.191862ZM42.4958 18.7839L42.8478 18.5919C50.1118 21.3119 46.6878 26.8479 44.0638 24.3199C44.1598 22.4319 43.3598 20.2239 42.4958 18.7839ZM57.1838 11.5199L59.2318 8.73586C59.2318 8.73586 61.5678 10.6239 62.9118 11.9359C62.8478 12.2879 62.4958 12.4479 62.0478 12.4479H59.2318V29.1519C59.2318 29.3759 58.1118 30.1759 56.1918 30.1759H55.5518V12.4479H52.5118V13.5999C52.5118 19.2639 51.9998 25.9199 44.8958 30.1759L44.5758 29.8239C48.4478 25.2479 48.8958 19.3599 48.8958 13.5359V12.6399C48.7358 12.7999 48.5118 12.8639 48.2238 12.8639H42.2718V16.6399H43.7438L45.3758 14.3999C45.3758 14.3999 47.2638 15.9359 48.3518 17.0239C48.2558 17.3759 47.9358 17.5359 47.4878 17.5359H42.2718V26.1759C42.2718 28.4799 41.7598 29.8559 38.0158 30.1439C37.9838 29.1839 37.9198 28.4159 37.5998 27.9679C37.2478 27.5199 36.7358 27.1359 35.5198 26.9439V26.5279C35.5198 26.5279 37.5998 26.6559 38.1438 26.6559C38.5918 26.6559 38.6878 26.4639 38.6878 26.1119V20.4159C38.5918 20.4159 38.4958 20.4159 38.3678 20.4159C37.1838 22.7839 35.2958 25.8239 32.7998 27.7759L32.4478 27.4559C33.9518 24.7679 34.8798 20.7039 35.1998 18.0479L38.6878 19.5519V17.5359H33.2798L33.0238 16.6399H38.6878V12.8639H32.7358L32.4798 11.9359H41.5358C42.0478 10.1119 42.5598 7.71186 42.8478 5.91986H35.7118C42.1438 8.86386 38.7518 13.7279 36.3838 11.2319C36.4478 9.47186 35.8078 7.42386 35.2318 5.98386L35.4238 5.91986H33.3118L33.0558 4.99186H40.0958C39.8398 4.89586 39.5838 4.73586 39.3278 4.54386C39.2318 3.03986 38.4318 1.37586 37.6318 0.319862L37.8878 0.127863C43.6798 0.927862 43.3918 4.25586 41.5998 4.99186H43.7438L45.4078 2.71986C45.4078 2.71986 47.3278 4.28786 48.4798 5.40786C48.3838 5.75986 48.0638 5.91986 47.6158 5.91986H43.1678L47.1998 7.16786C47.0718 7.55186 46.7198 7.80786 46.0158 7.74386C45.1518 8.92786 43.8078 10.5919 42.4318 11.9359H44.1918L45.9198 9.56786C45.9198 9.56786 47.7438 11.0719 48.8958 12.1919V2.78386L52.7038 3.96786C54.8798 2.81586 57.1198 1.27986 58.3998 0.159863L62.3358 3.29586C61.9838 3.61586 61.3438 3.67986 60.3518 3.39186C58.3998 4.03186 55.3918 4.70386 52.5118 5.05586V11.5199H57.1838ZM79.7118 19.3279L81.8238 16.6399C81.8238 16.6399 84.1918 18.4639 85.6318 19.7439C85.5358 20.0959 85.2158 20.2559 84.7358 20.2559H64.9918L64.7358 19.3279H79.7118ZM87.6798 6.27186L89.8558 3.58386C89.8558 3.58386 92.3198 5.37586 93.8238 6.68786C93.7278 7.03986 93.3758 7.19986 92.8958 7.19986H74.4318C74.1118 9.18386 73.7918 11.1999 73.5038 12.7679H87.1678L89.2478 10.7519L92.7678 13.7599C92.4798 14.0479 92.0638 14.2399 91.3278 14.3359C90.6878 22.1119 89.4398 27.2319 87.3598 28.8319C86.1438 29.8559 84.7038 30.2719 82.4318 30.2719C82.4318 29.1519 82.2398 28.1919 81.6318 27.6479C80.9918 27.0079 79.4558 26.4639 77.7598 26.1439L77.7918 25.7279C79.6158 25.8879 82.4638 26.1119 83.3278 26.1119C83.9678 26.1119 84.2878 26.0159 84.6718 25.6959C85.9198 24.7359 86.9118 19.9999 87.4558 13.6639H73.5678L72.1918 15.3599L68.6078 13.2799C68.8638 13.0239 69.2798 12.7679 69.6958 12.5119C70.4318 9.08786 71.3278 2.78386 71.4878 0.127863L76.4158 1.11986C76.2878 1.50386 75.9678 1.88786 75.1678 1.85586C75.0398 3.00786 74.8158 4.57586 74.5598 6.27186H87.6798ZM109.536 17.4079V11.4559L114.368 11.9359C114.304 12.3519 114.08 12.6719 113.28 12.7679V17.4399C113.248 22.2079 111.808 27.5519 104.384 30.2079L104.128 29.8879C108.768 26.5599 109.536 21.7919 109.536 17.4079ZM112.96 0.191862L118.336 1.43986C118.24 1.82386 117.888 2.04786 116.96 2.11186C118.976 5.88786 123.36 8.44786 127.104 9.82386L127.072 10.2719C125.472 10.7839 124.448 12.3199 124.224 13.8239C123.552 13.3759 122.912 12.8319 122.304 12.2879C122.144 12.4799 121.888 12.6079 121.376 12.7039V29.0239C121.376 29.3439 119.712 30.0799 118.304 30.0799H117.6V11.4239L121.824 11.8079C119.392 9.37586 117.472 6.14386 116.512 2.49586C114.336 7.39186 109.248 11.9679 104.192 14.4639L104.064 14.2399V29.0879C104 29.3439 102.464 30.1439 100.96 30.1439H100.288V13.7919C99.1358 15.2639 97.8878 16.5759 96.5438 17.7279L96.1598 17.4399C98.6558 13.2479 101.216 6.49586 102.592 0.127863L107.808 1.72786C107.68 2.11186 107.296 2.39986 106.56 2.36786C105.6 4.83186 104.544 7.16786 103.328 9.24786L105.024 9.88786C104.928 10.1759 104.64 10.3999 104.064 10.5279V14.0799C108.032 10.6879 112.096 4.44786 112.96 0.191862ZM135.328 9.08786L136.8 9.63186C136.704 9.91986 136.416 10.1439 135.808 10.2399V29.0879C135.744 29.3759 134.24 30.1759 132.768 30.1759H132.064V13.7919C131.008 15.0719 129.856 16.2239 128.64 17.2159L128.256 16.9919C130.688 12.8319 133.12 6.36786 134.272 0.159863L139.616 1.69586C139.488 2.07986 139.104 2.36786 138.336 2.36786C137.504 4.79986 136.48 7.07186 135.328 9.08786ZM143.296 23.8399V28.0959H151.36V23.8399H143.296ZM151.36 10.1439H143.296V13.7919H151.36V10.1439ZM151.36 18.3679V14.7199H143.296V18.3679H151.36ZM143.296 19.2959V22.9119H151.36V19.2959H143.296ZM155.04 27.9039L156.416 25.8239C156.416 25.8239 158.176 27.4239 159.104 28.5119C159.04 28.8639 158.752 29.0239 158.304 29.0239H136.64L136.384 28.0959H139.776V7.74386L143.616 9.21586H144.8C144.832 8.28786 144.864 7.13586 144.896 5.91986H138.176L137.92 5.02386H144.928C144.96 3.35986 144.992 1.66386 144.992 0.191862L150.112 0.639862C150.016 1.15186 149.632 1.50386 148.896 1.59986C148.8 2.59186 148.64 3.80786 148.512 5.02386H152.192L154.272 2.30386C154.272 2.30386 156.608 4.12786 158.016 5.40786C157.92 5.75986 157.6 5.91986 157.12 5.91986H148.384C148.256 7.10386 148.096 8.28786 147.968 9.21586H151.008L152.608 7.13586L156.512 9.88786C156.288 10.2079 155.872 10.3999 155.04 10.5279V27.9039Z" fill="#EEDAB3"/>
</svg>
