<svg width="781" height="48" viewBox="0 0 781 48" fill="none" xmlns="http://www.w3.org/2000/svg">
<path d="M2.8999 12.5398C1.2799 12.5398 -9.72748e-05 11.2598 -9.72748e-05 9.63984C-9.72748e-05 8.01984 1.2799 6.73984 2.8999 6.73984C4.5199 6.73984 5.7999 8.01984 5.7999 9.63984C5.7999 11.2598 4.5199 12.5398 2.8999 12.5398ZM21.0399 6.43984L23.4999 6.11984C23.8799 5.47984 24.1999 4.85984 24.4999 4.27984L25.7599 4.99984C24.5599 7.23984 22.9799 9.59984 21.5199 11.5198L25.0399 10.9598L25.0799 12.3798L19.9199 13.1798L19.6399 11.7198C20.8599 10.2798 21.8599 8.83984 22.6999 7.49984L19.5399 7.95984L19.2599 6.59984C20.6199 4.81984 21.8999 2.21984 22.8399 0.239843L24.0799 0.799843C23.1399 2.73984 21.9399 5.09984 21.0399 6.43984ZM36.5799 3.15984V4.59984H31.7799V7.51984H35.9799V8.93984H26.1599V7.51984H30.2999V4.59984H25.7399V3.15984H30.2999V0.419843H31.7799V3.15984H36.5799ZM28.0599 18.7398H26.5999V11.1398H35.3999V18.7398H33.9399V17.4398H28.0599V18.7398ZM33.9399 16.0598V12.5398H28.0599V16.0598H33.9399ZM19.3199 17.3398L19.1199 15.8198L25.2999 14.7598L25.3799 16.2998L19.3199 17.3398ZM48.6999 3.15984H55.9999C55.9599 3.83984 55.6799 14.8598 55.6599 15.5798C55.5999 17.5398 54.7999 18.1998 52.6399 18.1998H49.7199L49.4399 16.6598H52.0799C53.7799 16.6598 54.1999 16.3598 54.2599 14.8598L54.5399 4.63984H48.0399C47.4799 5.85984 46.8199 6.99984 46.1799 7.91984L44.9999 7.13984C46.3399 5.19984 47.5599 2.57984 48.2199 0.259843L49.5999 0.639843C49.3599 1.43984 49.0599 2.29984 48.6999 3.15984ZM43.2199 5.75984V7.75984C44.0599 8.43984 45.2199 9.43984 45.9399 10.1598L45.0799 11.3398C44.5399 10.7598 43.8599 10.0798 43.2199 9.49984V18.7398H41.8199V8.91984C41.1799 10.7798 40.3399 12.5398 39.4599 13.9198L38.9199 12.1598C39.9399 10.5198 40.9799 8.11984 41.6399 5.75984H39.3999V4.27984H41.8199V0.339843H43.2199V4.27984H45.4799V5.75984H43.2199ZM53.7599 14.2798L52.5399 14.8598C52.3999 14.5198 52.2599 14.1398 52.0799 13.7398L45.9999 14.2598L45.5799 12.9398C46.8999 10.7998 48.0399 7.93984 48.6199 6.01984L49.9799 6.47984C49.3599 8.35984 48.0399 11.3398 47.3199 12.7198L51.4999 12.3798C50.9599 11.1398 50.3999 9.87984 49.9999 9.05984L51.1599 8.47984C51.8399 9.85984 53.1799 12.7598 53.7599 14.2798ZM74.2599 15.3998V0.599844H75.6999V16.0198C75.6999 17.7398 75.1399 18.3198 73.1599 18.3198H70.8799L70.5799 16.7198H72.7399C73.9799 16.7198 74.2599 16.4598 74.2599 15.3998ZM64.7199 2.17984C63.6799 3.91984 62.4199 5.47984 60.9599 6.91984H67.8799C67.8799 6.95984 67.8199 10.7998 67.7999 11.1398C67.6999 12.8398 67.2599 13.4198 65.4199 13.4198H63.6599L63.3999 12.1198H65.0199C66.2399 12.1198 66.3799 11.8998 66.4599 10.8198C66.4799 10.4998 66.5399 8.75984 66.5399 8.31984H62.2399V14.9998C62.2399 16.3798 62.4399 16.7198 63.7599 16.7198H66.1999C67.5599 16.7198 67.7599 16.3798 67.8399 15.2198C67.8599 14.9198 67.9199 13.6998 67.9199 13.3998L69.3199 13.6798C69.3199 14.1198 69.2399 15.4798 69.1999 15.9398C69.0399 17.5798 68.4999 18.0998 66.3999 18.0998H63.3599C61.4799 18.0998 60.8199 17.4398 60.8199 15.4198V7.05984C60.4599 7.39984 60.0799 7.75984 59.6799 8.09984L58.9399 6.73984C61.1199 5.01984 62.8999 2.59984 63.9399 0.719843H65.2399C66.2799 1.85984 68.1599 3.91984 69.4399 5.43984L68.6399 6.75984C67.4199 5.13984 65.6799 3.21984 64.7199 2.17984ZM70.4999 2.15984H71.9199V13.7398H70.4999V2.15984ZM88.0799 10.4398V11.7998H84.5799V16.4998C84.5799 17.9398 84.1599 18.3598 82.4599 18.3598H81.2799L80.9999 16.9198H82.0599C83.1799 16.9198 83.2199 16.7598 83.2199 15.8398V11.7998H79.4599V10.4398H83.2199V8.27984H79.0799V6.95984H81.5399C81.3799 5.91984 81.1399 4.75984 80.9399 3.73984H79.6799V2.43984H83.2599C83.0399 1.75984 82.7999 0.979843 82.6399 0.499842L84.0799 0.259843C84.2799 0.819843 84.5599 1.73984 84.7399 2.43984H87.9599V3.73984H86.8399C86.6599 4.63984 86.3199 5.99984 86.0599 6.95984H88.4199V8.27984H84.5799V10.4398H88.0799ZM90.6999 7.35984H96.7599V8.79984H94.5999V18.5998H93.2199V8.79984H90.6999V8.83984C90.6999 13.8198 90.2999 15.9198 88.6399 18.6598L87.1999 17.9398C88.8599 15.4598 89.2399 13.4598 89.2399 8.55984V2.39984C91.5399 2.17984 94.1799 1.63984 95.8799 0.979843L96.3399 2.39984C94.8999 2.99984 92.6399 3.51984 90.6999 3.73984V7.35984ZM85.5599 3.73984H82.1999C82.4199 4.77984 82.6599 5.89984 82.8399 6.95984H84.7399C84.9999 6.07984 85.3399 4.69984 85.5599 3.73984ZM80.9799 12.4998L82.1599 12.9798C81.5799 14.4798 80.8599 15.9598 80.0199 17.2198L78.9199 16.5398C79.7799 15.3598 80.3999 13.9798 80.9799 12.4998ZM85.1399 13.2998L86.1399 12.5598C86.6999 13.3198 87.5799 14.5998 88.0799 15.3398L87.0399 16.1398C86.5599 15.3798 85.6599 14.0198 85.1399 13.2998ZM103.94 8.73984H101.86V6.65984H103.94V8.73984ZM103.94 17.3398H101.86V15.2398H103.94V17.3398ZM125.7 4.83984H124.24V3.39984H119.3V2.11984H124.24V0.399843H125.7V2.11984H130.48V0.399843H131.94V2.11984H136.62V3.39984H131.94V4.77984H130.48V3.39984H125.7V4.83984ZM131.46 14.1198V16.2398H130.04V14.1198H124.08V12.7998H130.04V10.8598H125.28V9.55984C125.74 8.87984 126.26 8.01984 126.76 7.13984H124.5V5.83984H127.46C127.8 5.15984 128.12 4.49984 128.36 3.91984L129.7 4.33984C129.5 4.81984 129.28 5.33984 129.02 5.83984H135.84V7.13984H128.36C127.9 8.01984 127.4 8.85984 126.9 9.57984H130.04V7.81984H131.46V9.57984H135.52V10.8598H131.46V12.7998H136.52V14.1198H131.46ZM123.7 7.45984L122.64 8.39984C121.96 7.45984 120.86 5.97984 120.2 5.15984L121.2 4.21984C121.92 5.07984 123 6.49984 123.7 7.45984ZM127.94 16.8198H136.72L136.4 18.1998H127.72C125.2 18.1998 123.84 17.7398 122.4 15.9798L119.86 18.4398L119.06 17.0198L121.62 14.6598V10.7798H119.12V9.39984H123.04V14.6398C124.28 16.3998 125.6 16.8198 127.94 16.8198ZM151.72 0.319844V2.57984H156.6V4.05984H151.72V5.77984H150.26V4.05984H145.54V5.63984H144.08V4.05984H139.32V2.57984H144.08V0.319844H145.54V2.57984H150.26V0.319844H151.72ZM144.1 5.91984L145.42 6.65984C144.9 7.61984 144.36 8.47984 143.82 9.27984V18.7598H142.36V11.1998C141.56 12.1398 140.68 13.0198 139.64 13.9398L139.02 12.3998C141.2 10.4798 142.58 8.73984 144.1 5.91984ZM154.88 15.0998C154.9 14.5998 154.92 13.2598 154.92 12.8798L156.36 13.1798C156.36 13.6398 156.3 15.1198 156.28 15.6398C156.22 17.6198 155.6 18.0598 153.52 18.0598H150.68C149.02 18.0598 148.3 17.4198 148.3 15.5798V13.1598C147.24 13.7398 146.14 14.2798 145.06 14.7798L144.48 13.2998C145.76 12.7398 147.06 12.0998 148.3 11.3998V6.31984H149.82V10.5198C151.8 9.31984 153.62 8.01984 155.1 6.69984L156.1 7.91984C154.34 9.43984 152.16 10.9598 149.82 12.3198V15.0998C149.82 16.2798 150.16 16.6198 151.22 16.6198H153.16C154.52 16.6198 154.84 16.3598 154.88 15.0998ZM175.36 0.959842L175.62 2.41984C171.28 2.91984 164.38 3.41984 160.08 3.55984L159.9 2.07984C164.42 1.99984 171.36 1.49984 175.36 0.959842ZM172.18 8.37984L170.92 7.49984C171.92 6.29984 173.1 4.59984 173.78 3.37984L175.06 4.13984C174.32 5.37984 173.18 7.07984 172.18 8.37984ZM169.52 6.59984L168.26 7.37984C167.76 6.45984 167 5.09984 166.42 4.23984L167.66 3.45984C168.2 4.31984 169 5.65984 169.52 6.59984ZM164.6 7.43984L163.34 8.33984C162.72 7.33984 161.62 5.73984 160.88 4.75984L162.1 3.89984C162.74 4.77984 163.92 6.39984 164.6 7.43984ZM176.36 10.9798H169.46C171.2 12.9798 173.76 14.8998 176.74 16.1198L175.98 17.6198C172.94 16.1798 170.36 14.0598 168.62 12.0598V18.6398H167.16V12.1398C165.38 14.1798 162.84 16.2798 159.8 17.7198L159.02 16.2598C162.18 14.8998 164.7 12.9798 166.38 10.9798H159.4V9.53984H167.16V7.77984H168.62V9.53984H176.36V10.9798ZM180.92 9.71984V1.59984H195.5V16.1798C195.5 17.9198 194.86 18.4398 193 18.4398H190.96L190.72 16.8998H192.54C193.74 16.8998 193.94 16.6998 193.94 15.6598V12.8798H188.92V18.3198H187.38V12.8798H182.36C182.18 15.2398 181.64 16.7998 180.46 18.7998L179.04 18.0598C180.66 15.4198 180.92 14.2398 180.92 9.71984ZM187.38 6.57984V3.09984H182.46V6.57984H187.38ZM188.92 6.57984H193.94V3.09984H188.92V6.57984ZM182.44 11.3798H187.38V8.07984H182.46V10.2598C182.46 10.6598 182.46 11.0198 182.44 11.3798ZM188.92 8.07984V11.3798H193.94V8.07984H188.92ZM202.02 0.459843L203.38 0.759843C203.02 2.19984 202.62 3.47984 202.16 4.71984V18.6798H200.86V7.77984C200.44 8.65984 199.98 9.53984 199.46 10.4798L198.82 8.71984C199.98 6.81984 201.24 3.65984 202.02 0.459843ZM214.52 15.7998V0.579843H215.8V16.2798C215.8 17.9198 215.3 18.3598 213.42 18.3598H212.04L211.76 16.9798H213.16C214.26 16.9798 214.52 16.7798 214.52 15.7998ZM209 3.09984H205.16V13.4598H203.98V1.65984H210.24V13.4198H209V3.09984ZM211.72 2.33984H212.9V14.0198H211.72V2.33984ZM207.66 4.21984V9.89984C207.66 11.0598 207.58 12.0398 207.44 12.8998C208.42 13.8998 210.16 15.7598 211.06 16.7398L210 17.7598C209.16 16.7598 207.94 15.3598 207.04 14.3398C206.42 16.0398 205.3 17.2198 203.52 18.5598L202.6 17.4598C205.94 14.9798 206.44 13.7598 206.44 9.57984V4.21984H207.66ZM223.52 3.27984L222.08 3.73984C221.78 2.93984 221.2 1.53984 220.78 0.659843L222.2 0.179843C222.6 1.03984 223.14 2.37984 223.52 3.27984ZM234.04 2.91984H227.78V12.3798H226.34V1.41984H235.46V12.3398H234.04V2.91984ZM235.34 13.1598L236.72 13.4798C236.72 13.8398 236.68 15.4998 236.64 16.1398C236.54 17.7198 236.06 18.1798 234.3 18.1798H232.74C231.26 18.1798 230.74 17.6398 230.74 16.1198V12.7398C229.9 15.0598 228.16 16.8798 225.02 18.8398L224.1 17.5198C228.68 14.8398 229.72 12.7798 229.94 8.59984C230.02 7.45984 230.06 4.77984 230.06 4.11984H231.52C231.52 4.77984 231.46 7.59984 231.42 8.65984C231.4 9.63984 231.3 10.5398 231.12 11.3798H232.16V15.5798C232.16 16.5598 232.34 16.7198 233.34 16.7198H234.02C235.06 16.7198 235.26 16.5798 235.3 15.5998C235.32 15.0198 235.34 13.4398 235.34 13.1598ZM225.68 11.3598L224.86 12.5998C224.4 12.1398 223.62 11.4198 222.94 10.8398V18.7198H221.56V10.9998C220.98 11.6998 220.32 12.3998 219.56 13.0998L218.92 11.6198C220.88 9.89984 222.08 8.09984 223.12 5.69984H219.4V4.25984H224.72V5.69984C224.18 6.93984 223.6 8.05984 222.94 9.09984V9.13984C223.66 9.71984 225.1 10.8198 225.68 11.3598ZM252.84 3.25984L250.8 5.57984H255.12V16.1598C255.12 17.7798 254.6 18.3798 253 18.3798H250.64L250.38 16.8798H252.32C253.38 16.8798 253.62 16.6998 253.62 15.7398V14.3398H248.92V18.0998H247.4V14.3398H242.48C242.22 15.9998 241.64 17.2398 240.54 18.7998L239.2 17.9198C240.94 15.6798 241.18 14.3598 241.18 10.9198V6.91984C240.82 7.23984 240.46 7.53984 240.08 7.83984L239.12 6.57984C241.32 4.83984 243.44 2.39984 244.74 0.119843L246.22 0.679842C245.96 1.13984 245.7 1.59984 245.4 2.03984H252.84V3.25984ZM248.86 5.57984L250.78 3.39984H244.44C243.86 4.15984 243.24 4.87984 242.58 5.57984H248.86ZM242.66 9.25984H247.4V6.99984H242.66V9.25984ZM248.92 9.25984H253.62V6.99984H248.92V9.25984ZM242.62 12.9198H247.4V10.6598H242.66V11.3198C242.66 11.8998 242.64 12.4398 242.62 12.9198ZM248.92 10.6598V12.9198H253.62V10.6598H248.92ZM265.36 7.17984H262.2V8.87984C262.2 13.9398 261.62 15.8998 260.3 18.6998L258.98 17.9198C260.32 15.0598 260.74 13.4198 260.74 8.43984V2.39984H268.18C268.02 1.73984 267.8 1.03984 267.64 0.479843L269.32 0.279843C269.48 0.799843 269.76 1.73984 269.94 2.39984H276.52V3.73984H273.22V5.91984H276.46V7.17984H273.22V10.1598H265.36V7.17984ZM265.36 5.91984V3.73984H262.2V5.91984H265.36ZM266.78 5.91984H271.76V3.73984H266.78V5.91984ZM266.78 8.89984H271.76V7.17984H266.78V8.89984ZM276.7 17.0798L276.22 18.5798C273.22 18.0998 270.96 17.5598 269.02 16.6598C267.2 17.4598 265 18.1198 262.32 18.6998L261.72 17.2998C264 16.8998 265.88 16.4398 267.48 15.8598C266.18 15.0598 264.96 14.0398 263.66 12.6998V11.4598H274.5V12.7198C273.48 13.9598 272.26 14.9798 270.7 15.8398C272.28 16.3798 274.2 16.7598 276.7 17.0798ZM272.58 12.6998H265.72C266.76 13.7598 267.82 14.5598 269.08 15.1798C270.52 14.4998 271.66 13.6798 272.58 12.6998ZM282.56 7.49984L279.54 7.95984L279.26 6.57984C280.64 4.77984 281.88 2.25984 282.82 0.239843L284.06 0.819843C283.12 2.77984 281.92 5.07984 281 6.39984L283.36 6.11984C283.76 5.41984 284.1 4.73984 284.42 4.13984L285.7 4.85984C284.5 7.07984 282.94 9.57984 281.56 11.4998L284.8 10.9598L284.84 12.3798L279.88 13.1598L279.58 11.6998C280.76 10.2998 281.74 8.85984 282.56 7.49984ZM285.54 8.21984L284.76 6.91984C287.3 5.11984 289.06 2.73984 290.02 0.559843H291.36C292.48 3.05984 294.26 5.23984 296.66 6.73984L295.96 8.07984C293.58 6.53984 291.92 4.63984 290.7 2.17984C289.76 4.09984 288.12 6.29984 285.54 8.21984ZM294.2 8.49984H287.14V7.15984H294.2V8.49984ZM288.84 12.2598H285.48V10.8598H296.04V12.2598H290.4C289.6 13.5998 288.44 15.3198 287.62 16.4598L293.32 16.0998C292.76 15.1398 292.2 14.2398 291.82 13.6398L292.96 12.9198C293.74 14.0798 295.14 16.4598 295.98 17.8598L294.84 18.6998L294.08 17.3798L286.14 17.8598L285.8 16.5998C287 15.1598 288.08 13.5798 288.84 12.2598ZM279.24 17.2998L279.02 15.7798L284.98 14.6998L285.06 16.2598L279.24 17.2998ZM309.38 4.71984H305.4V7.17984H309.8V8.55984H305.4V10.7198H309.2V15.6398C309.2 16.8198 308.64 17.2798 307.34 17.2798H306.26L306.02 15.9598H306.86C307.6 15.9598 307.82 15.7998 307.82 15.0798V12.0998H305.4V18.8598H303.98V12.0998H301.52V17.4998H300.14V10.7198H303.98V8.55984H299.1V7.17984H303.98V4.71984H301.42C301.16 5.39984 300.9 6.03984 300.62 6.59984L299.32 6.13984C300.02 4.59984 300.64 2.91984 300.98 1.21984L302.34 1.43984C302.2 2.05984 302.04 2.71984 301.86 3.35984H303.98V0.559843H305.4V3.35984H309.38V4.71984ZM314.4 15.5598V0.759843H315.84V16.1198C315.84 17.7998 315.3 18.4398 313.38 18.4398H311.04L310.76 16.9798H312.94C314.1 16.9798 314.4 16.6398 314.4 15.5598ZM310.96 2.45984H312.36V14.4598H310.96V2.45984ZM322 20.3398L321.52 19.5198C322.52 19.0398 322.98 18.3798 322.98 17.3398H321.84V15.2398H323.92V17.3398C323.92 18.5398 323.42 19.6198 322 20.3398ZM346.36 8.51984L346.48 9.43984L346.54 9.99984C345.8 10.2198 344.78 10.5198 343.72 10.8198V16.1598C343.72 17.8998 343.24 18.3198 341.3 18.3198H339.56L339.26 16.7598H340.82C342 16.7598 342.2 16.5998 342.2 15.6198V11.2798C341.12 11.5998 340.1 11.8998 339.4 12.1398L339.08 10.6198C339.9 10.3998 341.04 10.0998 342.2 9.77984V5.67984H339.38V4.17984H342.2V0.419843H343.72V4.17984H346.28V5.67984H343.72V9.33984C344.68 9.05984 345.62 8.77984 346.36 8.51984ZM346.8 1.93984H356.7V3.45984H353.4V15.9198C353.4 17.7198 352.68 18.3198 350.58 18.3198H348.3L347.98 16.7798H350.16C351.48 16.7798 351.8 16.5398 351.8 15.5398V3.45984H346.8V1.93984ZM376.88 17.3198L376.14 18.6998C374.34 17.8198 372.92 16.8998 371.78 15.7798C370.68 16.8198 369.32 17.7798 367.56 18.7998L366.72 17.4798C368.46 16.5398 369.78 15.6798 370.82 14.7198C369.76 13.3998 368.98 11.7998 368.34 9.69984H367.92C367.84 13.6598 367.26 15.5398 365.24 18.7798L364.02 18.0198C366.1 14.9598 366.52 13.1998 366.52 8.35984V3.05984H370.92V0.439843H372.36V3.05984H376.52V4.45984L375.94 6.67984L374.5 6.49984L374.98 4.49984H372.36V8.21984H375.42V9.59984C374.74 11.6998 373.94 13.3198 372.74 14.7598C373.82 15.7798 375.16 16.5998 376.88 17.3198ZM364.88 7.51984V16.4198H361.84V17.6598H360.56V10.5198C360.22 11.1398 359.86 11.7398 359.44 12.3398L358.92 10.7398C360.18 8.95984 361.22 6.21984 361.74 3.55984H359.36V2.13984H365.64V3.55984H363.12C362.78 4.97984 362.4 6.27984 361.94 7.51984H364.88ZM370.92 8.21984V4.49984H367.92V8.21984H370.92ZM361.84 14.9398H363.64V8.95984H361.84V14.9398ZM373.9 9.69984H369.78C370.3 11.3398 370.94 12.6398 371.78 13.7198C372.74 12.5998 373.38 11.3198 373.9 9.69984ZM379.82 3.37984V1.79984H395.54V3.37984L388.88 8.09984V15.7398C388.88 17.7198 388.22 18.2398 386.06 18.2398H383.26L382.98 16.6198H385.54C386.94 16.6198 387.2 16.3998 387.2 15.1598V7.27984L392.94 3.37984H379.82ZM409.24 5.97984L407.86 6.77984C407.14 5.31984 405.68 2.59984 404.8 1.23984L406.06 0.419843C406.94 1.79984 408.52 4.65984 409.24 5.97984ZM416.72 17.0398L415.54 18.2598C414.86 17.2798 413.16 15.1798 412.04 13.7998C410.86 15.5998 409.02 17.0798 406.08 18.7598L405.16 17.3598C410.98 14.1998 412 11.5198 412.46 5.75984C412.56 4.47984 412.56 0.779842 412.56 0.779842H414.14C414.14 0.779842 414.18 4.25984 414.06 5.87984C413.88 8.51984 413.58 10.5398 412.86 12.2598C414.02 13.6398 415.84 15.9198 416.72 17.0398ZM402.14 14.2998L407.22 9.99984L408.08 11.3998L400.98 17.5998L399.88 16.2398C400.38 15.6998 400.52 15.4798 400.52 14.9998V1.27984H402.14V14.2998ZM430.34 0.139843L431.92 3.13984L430.52 3.83984L428.96 0.759843L430.34 0.139843ZM423.7 0.539843L424.94 1.49984C423.88 3.05984 421.62 5.49984 419.92 6.97984L419.2 5.61984C420.7 4.31984 422.78 1.99984 423.7 0.539843ZM431.48 11.2598V16.2598H436.7V17.7198H424.4V16.2598H429.9V11.2598H425.46V9.73984H429.9V5.45984H425.16V3.97984H436.26V5.45984H431.48V9.73984H435.64V11.2598H431.48ZM423.58 5.69984L424.78 6.51984C424.32 7.33984 423.74 8.25984 423.08 9.17984V18.6798H421.62V11.0798C420.92 11.8998 420.22 12.6398 419.58 13.2198L418.96 11.6598C420.5 10.2998 422.5 7.69984 423.58 5.69984ZM449.58 10.0798V15.9998H456.6V17.5598H439.2V15.9998H442.08V6.11984H443.6V15.9998H447.98V3.45984H440.12V1.85984H455.98V3.45984H449.58V8.47984H455.54V10.0798H449.58ZM476.42 1.33984V2.71984H468.5C468.24 3.43984 467.88 4.43984 467.6 5.17984H475.4V18.6798H473.92V17.3398H461.76V18.6798H460.32V5.17984H465.94C466.22 4.43984 466.58 3.47984 466.82 2.71984H459.26V1.33984H476.42ZM464.44 6.55984H461.76V16.0198H464.44V6.55984ZM465.84 8.81984H469.82V6.55984H465.84V8.81984ZM471.26 16.0198H473.92V6.55984H471.26V16.0198ZM465.84 12.3998H469.82V10.1398H465.84V12.3998ZM469.82 13.7398H465.84V16.0198H469.82V13.7398ZM494.86 4.07984H487.36V5.97984H485.98V2.63984H490.92C490.54 1.87984 490.04 0.919843 489.82 0.519843L491.28 0.159843C491.48 0.579843 492.1 1.79984 492.5 2.63984H496.22V5.97984H494.86V4.07984ZM482.22 7.53984L479.46 7.79984L479.12 6.39984C480.14 5.03984 481.62 2.21984 482.42 0.359843L483.84 0.899843C482.9 2.93984 481.58 5.29984 480.86 6.35984L483.1 6.13984C483.68 5.23984 484.2 4.33984 484.62 3.57984L485.82 4.23984C484.68 6.57984 482.66 9.53984 481.42 11.1998L485.32 10.5398L485.36 11.8998L479.84 12.8198L479.52 11.3598C480.24 10.4398 481.24 9.01984 482.22 7.53984ZM492.48 16.5998H496.7L496.4 18.0198H492.52C490.24 18.0198 488.64 17.2798 487.58 14.6998C487.12 16.0798 486.4 17.3398 485.22 18.6998L484 17.7998C486.42 15.2398 486.86 13.3198 487 9.95984L488.32 10.0598C488.26 10.9798 488.2 11.7998 488.08 12.5798C488.58 14.7398 489.46 15.8198 490.66 16.2998V8.29984H485.74V6.89984H496.44V8.29984H492.12V11.4598H496V12.8798H492.12V16.5998H492.48ZM485.38 14.2398L485.48 14.9398L485.58 15.7398C484.18 15.9998 480.56 16.6998 479.3 16.9598L479.08 15.4798C480.34 15.2598 484 14.5198 485.38 14.2398ZM502.56 8.09984H506.78C506.74 8.81984 506.48 14.7198 506.42 15.6198C506.34 17.3798 505.74 17.9398 504.06 17.9398H502.44L502.16 16.4398H503.56C504.62 16.4398 505.02 16.0198 505.06 15.0998C505.12 14.4198 505.32 10.2598 505.34 9.59984H502.5C502.3 14.0398 501.82 15.7398 500.1 18.6398L498.82 17.7198C500.6 14.7798 501 12.9798 501.12 7.31984C501.14 7.05984 501.18 5.91984 501.2 5.01984H499.46V3.47984H503.32C502.98 2.51984 502.46 1.03984 502.32 0.719843L503.76 0.319844C503.92 0.659843 504.58 2.45984 504.9 3.47984H507.74V5.01984H502.64C502.62 5.93984 502.58 7.11984 502.58 7.53984C502.58 7.73984 502.56 7.91984 502.56 8.09984ZM512.7 13.4198C513.74 14.8198 515.08 16.0998 516.78 17.2398L515.86 18.6198C514.18 17.4198 512.84 16.1398 511.78 14.7598C510.7 16.1398 509.28 17.4398 507.44 18.7598L506.44 17.4198C508.4 16.1398 509.84 14.8598 510.9 13.4598C509.86 11.6998 509.18 9.79984 508.78 7.69984C508.46 8.23984 508.14 8.75984 507.78 9.23984L506.9 7.79984C508.16 6.17984 509.6 2.95984 510.14 0.379843L511.64 0.619843C511.4 1.63984 511.08 2.65984 510.7 3.65984H516.7V5.23984H515.1C514.72 8.63984 514.06 11.1998 512.7 13.4198ZM509.84 5.73984C510.12 8.09984 510.74 10.1998 511.82 12.0598C512.84 10.1998 513.38 8.01984 513.64 5.23984H510.06C509.98 5.39984 509.92 5.57984 509.84 5.73984ZM530.48 3.49984H536.02C536 4.35984 535.66 14.8798 535.62 15.6798C535.54 17.5798 534.8 18.2198 532.66 18.2198H530.14L529.84 16.6598H532.2C533.7 16.6598 534.14 16.3598 534.18 14.9198C534.22 14.1798 534.46 5.85984 534.5 5.01984H529.86C529.44 6.01984 528.94 6.99984 528.4 7.89984L527.08 7.01984C528.4 5.01984 529.5 2.11984 530 -0.000157118L531.48 0.359843C531.24 1.33984 530.9 2.41984 530.48 3.49984ZM522.9 0.139843L524.48 0.419843C524.32 1.21984 524 2.45984 523.72 3.43984H526.86V17.1998H521.42V18.5198H519.98V3.43984H522.1C522.42 2.43984 522.72 1.03984 522.9 0.139843ZM521.42 9.57984H525.42V4.97984H521.42V9.57984ZM532.66 11.9798L531.38 12.8798C530.56 11.6198 529.36 9.95984 528.52 8.87984L529.62 7.97984C530.54 9.09984 531.78 10.6998 532.66 11.9798ZM521.42 11.1198V15.6598H525.42V11.1198H521.42ZM552.02 3.63984H556.02V7.57984H554.56V4.97984H541.3V7.55984H539.82V3.63984H543.76C543.1 2.97984 542.16 2.03984 541.52 1.43984L542.54 0.519843C543.2 1.07984 544.48 2.33984 545.06 2.89984L544.3 3.63984H547.2V0.319844H548.66V3.63984H551.42L550.7 2.99984C551.42 2.35984 552.58 1.23984 553.22 0.519843L554.2 1.37984C553.64 1.97984 552.68 3.01984 552.02 3.63984ZM553.58 10.5598H548.66V12.1398H554.98V15.6398C554.98 17.0998 554.44 17.5198 552.7 17.5198H550.58L550.34 16.1598H552.26C553.38 16.1598 553.52 15.9598 553.52 15.1198V13.4398H548.66V18.6798H547.2V13.4398H542.36V17.4598H540.92V12.1398H547.2V10.5598H542.28V6.47984H553.58V10.5598ZM552.16 7.69984H543.7V9.39984H552.16V7.69984ZM566.16 15.1998L565 16.1598C564.48 15.4398 563.56 14.1798 562.8 13.1598C562.34 15.2998 561.48 16.8198 559.98 18.6998L558.82 17.5998C560.8 15.1398 561.54 13.3998 561.78 10.0198H559.06V8.47984H561.84C561.86 7.99984 561.86 7.49984 561.86 6.95984V5.29984H559.44V3.77984H561.86V0.519843H563.28V3.77984H565.66V5.29984H563.28V6.95984C563.28 7.49984 563.28 7.99984 563.26 8.47984H565.96V10.0198H563.2C563.18 10.4398 563.14 10.8198 563.1 11.1998C563.9 12.2198 565.48 14.2998 566.16 15.1998ZM573.96 2.89984H568.12V12.7398H566.72V1.41984H575.34V12.7398H573.96V2.89984ZM575.2 13.2198L576.54 13.5398C576.54 13.9198 576.5 15.4198 576.46 16.0598C576.38 17.6998 575.9 18.1398 574.24 18.1398H572.76C571.46 18.1398 570.84 17.6398 570.84 16.0598V12.6998C569.98 15.1798 568.28 17.0798 565.54 18.8798L564.58 17.6798C568.94 14.8598 569.98 12.7798 570.16 8.09984L570.18 4.09984H571.62C571.62 4.75984 571.58 7.59984 571.56 8.29984C571.54 9.37984 571.42 10.3598 571.24 11.2798H572.26V15.5398C572.26 16.4798 572.54 16.6998 573.38 16.6998H573.96C574.92 16.6998 575.14 16.5198 575.16 15.5398C575.16 14.9398 575.2 13.4998 575.2 13.2198ZM580.16 16.0398C580.16 14.4398 581.3 13.3198 582.9 13.3198C584.5 13.3198 585.64 14.4398 585.64 16.0398C585.64 17.6398 584.5 18.7798 582.9 18.7798C581.3 18.7798 580.16 17.6398 580.16 16.0398ZM581.22 16.0398C581.22 17.0198 581.92 17.7198 582.9 17.7198C583.88 17.7198 584.58 17.0198 584.58 16.0398C584.58 15.0598 583.88 14.3598 582.9 14.3598C581.92 14.3598 581.22 15.0598 581.22 16.0398ZM2.8999 39.5398C1.2799 39.5398 -9.72748e-05 38.2598 -9.72748e-05 36.6398C-9.72748e-05 35.0198 1.2799 33.7398 2.8999 33.7398C4.5199 33.7398 5.7999 35.0198 5.7999 36.6398C5.7999 38.2598 4.5199 39.5398 2.8999 39.5398ZM31.8199 27.3798V29.5598H36.5999V31.0398H31.8199V32.9398H30.2999V31.0398H25.4599V32.9398H23.9199V31.0398H19.1399V29.5598H23.9199V27.3798H25.4599V29.5598H30.2999V27.3798H31.8199ZM34.3399 42.0398C34.3799 41.4598 34.4399 39.9198 34.4599 39.4398L36.0399 39.8198C36.0199 40.2598 35.9199 41.9998 35.8599 42.5998C35.6999 44.4998 34.9399 45.0798 32.4399 45.0798H22.9799C21.1399 45.0798 20.4199 44.3798 20.4199 43.1598C20.4199 41.6598 22.5999 39.6598 30.7199 35.3998H21.1799V33.9598H33.5799V35.3998C23.6999 40.8398 22.2599 42.1998 22.2599 42.9598C22.2599 43.4398 22.6799 43.6598 23.4599 43.6598H32.2199C33.8399 43.6598 34.2399 43.3598 34.3399 42.0398ZM56.2799 33.2998H49.1999C50.8799 36.6998 53.2399 39.5198 56.8199 42.0598L55.9399 43.6598C52.6999 41.1998 50.3399 38.5198 48.6199 35.2198V45.6998H47.0999V35.2398C45.3599 38.5198 43.0799 41.2198 39.9199 43.7798L38.9399 42.2598C42.4199 39.6198 44.7999 36.6998 46.5199 33.2998H39.5599V31.7198H47.0999V27.4398H48.6199V31.7198H56.2799V33.2998ZM54.1399 30.1798L53.1599 31.2798C52.3799 30.4998 51.0799 29.2798 50.2999 28.5998L51.2399 27.5598C51.9599 28.1998 53.2599 29.3798 54.1399 30.1798ZM69.4799 27.4798H70.8999C72.2199 30.5798 74.3199 33.1398 76.8599 34.6398L76.0199 36.0398C73.4999 34.3798 71.5999 32.1998 70.2399 29.1598C68.9599 31.9598 67.2599 34.0398 64.3999 36.1398L63.5199 34.7798C66.3999 32.7998 68.3599 30.3798 69.4799 27.4798ZM63.1799 27.4998L64.5599 27.9398C64.0799 29.4398 63.4999 30.8798 62.8599 32.2798V45.6598H61.3599V35.2198C60.7999 36.2198 60.1999 37.1998 59.5599 38.1398L58.9399 36.3598C60.4999 34.0998 62.1399 30.7198 63.1799 27.4998ZM73.5799 45.5998H72.0599V35.0198H73.5799V45.5998ZM66.9199 37.5798V35.1198H68.4399V37.5398C68.4399 41.6798 67.8199 43.0998 65.4999 45.8398L64.1399 44.8798C66.3399 42.4998 66.9199 41.0998 66.9199 37.5798ZM82.2999 27.3998L83.8399 27.6998C83.4399 29.1998 82.9999 30.6198 82.4799 31.9798V45.5598H81.0399V35.2198C80.5599 36.1598 80.0199 37.0798 79.4199 37.9798L78.7799 36.1598C80.1999 34.0398 81.4799 30.7598 82.2999 27.3998ZM95.0999 32.2998V43.6798H96.8599V44.9998H83.4399V43.6798H85.2399V32.2998H89.4199V30.4598H84.3799V29.1598H89.4199V27.4198H90.9199V29.1598H96.3399V30.4598H90.9199V32.2998H95.0999ZM93.6199 35.1798V33.5998H86.7199V35.1798H93.6199ZM86.7199 37.8998H93.6199V36.3598H86.7199V37.8998ZM93.6199 40.7798V39.0998H86.7199V40.7798H93.6199ZM93.6199 41.9198H86.7199V43.6798H93.6199V41.9198ZM103.94 35.7398H101.86V33.6598H103.94V35.7398ZM103.94 44.3398H101.86V42.2398H103.94V44.3398ZM121.24 31.9798H119.34V30.0798C119.34 28.9798 119.78 27.9798 121.1 27.3198L121.52 28.0798C120.6 28.5198 120.18 29.1198 120.18 30.0798H121.24V31.9798ZM123.92 31.9798H122.02V30.0798C122.02 28.9798 122.46 27.9798 123.78 27.3198L124.2 28.0798C123.28 28.5198 122.86 29.1198 122.86 30.0798H123.92V31.9798ZM127.917 29.1398H143.157V30.7598H127.917V29.1398ZM128.817 35.5398H142.277V37.1398H128.817V35.5398ZM126.797 42.6598H144.297V44.2798H126.797V42.6598ZM162.677 40.2998L164.077 40.6598L163.957 43.3198C163.877 44.7598 163.257 45.2398 161.417 45.2398H157.857C156.157 45.2398 155.537 44.7598 155.537 43.0598V38.6998H155.477C154.337 41.8598 151.977 43.9198 147.517 45.7998L146.777 44.2998C150.757 42.6798 152.857 41.0998 153.897 38.6998H148.577V33.8998C148.197 34.2198 147.817 34.5198 147.417 34.8198L146.737 33.3998C148.897 31.7398 151.037 29.4198 152.457 27.0798L153.797 27.6798C153.557 28.0998 153.297 28.5198 153.017 28.9398H160.437V30.2598L158.097 32.6398H162.637V38.6998H156.977V42.5798C156.977 43.5998 157.257 43.8398 158.337 43.8398H160.997C162.277 43.8398 162.597 43.6198 162.617 42.5798C162.617 42.0998 162.657 40.7998 162.677 40.2998ZM158.357 30.2998H152.037C151.397 31.1198 150.697 31.8998 149.957 32.6398H155.997L158.357 30.2998ZM150.057 34.0598V37.2598H154.377C154.617 36.3198 154.737 35.2598 154.797 34.0598H150.057ZM155.897 37.2598H161.137V34.0598H156.317C156.257 35.2398 156.117 36.2998 155.897 37.2598ZM161.477 41.3398L160.497 42.4198C159.817 41.7398 158.697 40.6598 158.077 40.1598L158.977 39.1198C159.597 39.6398 160.757 40.6398 161.477 41.3398ZM179.817 32.6198V37.6198H184.257V39.1798H166.737V37.6198H171.017V32.6198H167.317V31.0998H171.017V27.3198H172.637V31.0998H178.237V27.3198H179.817V31.0998H183.677V32.6198H179.817ZM178.237 32.6198H172.637V37.6198H178.237V32.6198ZM167.797 45.6198L166.917 44.2998C168.737 43.3198 171.197 41.4598 172.857 39.9998L173.877 41.2198C172.217 42.6198 169.597 44.4998 167.797 45.6198ZM177.097 41.2598L178.037 39.9998C179.557 40.9998 182.457 43.0598 183.977 44.2598L182.977 45.5398C181.417 44.2398 178.657 42.2398 177.097 41.2598ZM204.337 40.6198L204.317 42.1198L201.197 42.2598V45.7198H199.617V42.3398C194.477 42.5798 186.937 42.9398 186.757 42.9398L186.677 41.4398L189.657 41.2998V30.0798H187.177V28.6398H203.877V30.0798H201.197V40.7798C203.017 40.6798 204.277 40.6198 204.337 40.6198ZM199.617 32.7998V30.0798H191.197V32.7998H199.617ZM199.617 34.1798H191.197V36.9398H199.617V34.1798ZM191.197 38.3398V41.2398L199.617 40.8398V38.3398H191.197ZM207.297 32.1798L206.877 31.4198C207.797 30.9798 208.217 30.3798 208.217 29.4198H207.157V27.5198H209.057V29.4198C209.057 30.5198 208.617 31.5198 207.297 32.1798ZM209.977 32.1798L209.557 31.4198C210.477 30.9798 210.897 30.3798 210.897 29.4198H209.837V27.5198H211.737V29.4198C211.737 30.5198 211.297 31.5198 209.977 32.1798ZM215.333 45.6798V28.3598H230.993V45.6798H229.573V44.6398H216.753V45.6798H215.333ZM216.753 29.6998V43.3398H229.573V29.6998H216.753ZM224.433 35.3798C225.813 35.9798 227.373 36.3598 229.113 36.6798L228.613 37.9598C226.353 37.4398 224.613 36.8598 223.173 36.0998C221.713 36.8598 219.973 37.4998 217.733 38.1198L217.233 36.8798C219.093 36.4198 220.633 35.9398 221.933 35.3798C221.133 34.8398 220.433 34.2198 219.753 33.4798C219.233 34.0198 218.653 34.5198 218.033 34.9598L217.333 34.0398C218.893 32.9198 220.193 31.2598 220.973 30.0598L222.093 30.5198C221.853 30.8998 221.593 31.2998 221.293 31.6998H227.613V32.7798C226.593 33.7998 225.593 34.6398 224.433 35.3798ZM225.873 32.7798H220.653C221.433 33.5998 222.273 34.2398 223.193 34.7598C224.273 34.1798 225.153 33.5198 225.873 32.7798ZM220.313 38.5598L220.493 37.4398C221.893 37.6998 224.473 38.1998 226.073 38.5798L225.893 39.7398C224.293 39.3198 221.813 38.8198 220.313 38.5598ZM218.713 40.9998L218.873 39.8598C220.773 40.1798 224.893 41.0198 227.013 41.5398L226.793 42.6998C224.753 42.1998 220.673 41.3598 218.713 40.9998ZM249.333 30.3798H237.073V31.9998H235.573V29.1398H242.753C242.433 28.5398 241.933 27.6798 241.753 27.4198L243.393 27.0998C243.533 27.2998 244.193 28.4998 244.513 29.1398H250.813V31.9998H249.333V30.3798ZM237.593 35.3198C237.993 34.9198 238.413 34.4598 238.813 33.9598H234.693V32.7198H239.753C240.213 32.0798 240.633 31.4798 240.933 30.9798L242.473 31.3398C242.193 31.7598 241.873 32.2398 241.533 32.7198H251.713V33.9598H248.253C247.613 34.8198 246.813 35.5398 245.693 36.1798C247.813 36.7198 249.873 37.2798 250.933 37.6198L250.413 38.8798C248.473 38.2198 246.253 37.5598 244.013 36.9598C242.053 37.6998 239.333 38.2798 235.373 38.7398L234.953 37.4998C238.033 37.1998 240.273 36.8398 241.913 36.3998C240.413 35.9998 238.953 35.6398 237.593 35.3198ZM246.333 33.9598H240.573C240.333 34.2598 240.073 34.5398 239.853 34.7798C240.613 34.9398 242.173 35.2998 243.893 35.7198C244.993 35.2398 245.733 34.6598 246.333 33.9598ZM252.233 43.8998L251.673 45.2998C248.173 44.1798 245.853 43.1398 243.933 41.5598V45.7998H242.453V41.4998C240.593 43.0598 238.293 44.1798 234.733 45.3398L234.153 43.8798C237.633 42.9798 239.653 42.0398 241.273 40.7998H234.713V39.5598H242.453V37.9198H243.933V39.5598H251.673V40.7998H245.033C246.753 42.0398 248.893 42.9998 252.233 43.8998ZM256.953 28.2998H269.233V35.2798H256.953V28.2998ZM267.713 31.1798V29.5598H258.493V31.1798H267.713ZM258.493 32.3998V34.0598H267.713V32.3998H258.493ZM264.333 43.7998H271.993L271.713 45.1598H264.373C261.253 45.1598 259.353 44.5798 257.873 42.4798C257.233 43.7798 256.393 44.8798 255.353 45.9598L254.233 44.8798C256.013 43.1398 256.993 41.4798 257.533 38.8598L258.993 39.1198C258.853 39.7798 258.673 40.3998 258.493 40.9798C259.493 42.6998 260.773 43.4398 262.573 43.6998V38.1998H254.553V36.8998H271.773V38.1998H264.093V40.0798H270.393V41.3598H264.093V43.7998H264.333ZM279.953 29.2798H283.573V30.5798H274.553V29.2798H278.453L277.913 27.5798L279.433 27.2598L279.953 29.2798ZM288.293 40.3398C289.253 41.6998 290.533 42.9198 292.153 44.0998L291.293 45.5998C289.693 44.3398 288.413 43.0398 287.413 41.6398C286.353 43.0598 284.953 44.3598 283.113 45.6998L282.133 44.3998C284.073 42.9798 285.493 41.6798 286.533 40.2598C285.613 38.6398 284.993 36.8998 284.613 34.9598C284.353 35.4398 284.073 35.8798 283.773 36.3198L282.893 35.1398C284.093 33.1598 285.373 29.8598 285.813 27.2998L287.233 27.5798C286.993 28.5998 286.733 29.6198 286.413 30.5998H291.893V32.0398H290.653C290.253 35.4998 289.613 38.0998 288.293 40.3398ZM282.573 31.9998V35.6198H275.393V31.9998H282.573ZM285.573 32.9198C285.893 35.2598 286.453 37.1998 287.393 38.9198C288.393 37.0798 288.933 34.9398 289.273 32.0398H285.933L285.573 32.9198ZM281.193 33.0998H276.773V34.4998H281.193V33.0998ZM283.433 39.9798L283.513 41.3198L279.813 41.6598V43.4398C279.813 44.9798 279.313 45.3998 277.553 45.3998H276.073L275.853 44.0998H277.133C278.273 44.0998 278.393 43.8998 278.393 43.0598V41.7798L274.453 42.1398L274.353 40.7998L278.393 40.4398V39.6198L280.753 38.1798H275.113V36.9598H282.893V38.1798L279.813 40.1198V40.2998L283.433 39.9798ZM305.933 29.2398H310.573V36.1998H301.073V29.2398H304.413C304.633 28.5798 304.893 27.7198 305.013 27.1398L306.473 27.4198C306.353 27.8798 306.133 28.6198 305.933 29.2398ZM300.553 41.8398L299.493 42.6998C299.133 42.1198 298.373 41.0598 297.773 40.2598C297.353 42.2398 296.593 43.7998 295.313 45.6798L294.053 44.7998C296.313 41.7198 296.853 39.7998 296.853 35.2598V27.5198H298.233V31.9998C298.753 31.2398 299.273 30.4398 299.533 30.0198L300.533 30.7198C300.073 31.4798 298.913 33.1598 298.233 34.0998V34.2998C298.233 35.9198 298.173 37.2598 298.053 38.4598C298.813 39.4598 300.053 41.1398 300.553 41.8398ZM309.133 32.1598V30.4598H302.513V32.1598H309.133ZM296.573 36.1798L295.373 36.4798C295.153 35.2598 294.453 31.9598 294.193 30.9398L295.373 30.5998C295.613 31.6598 296.393 34.9798 296.573 36.1798ZM302.513 33.2998V35.0198H309.133V33.2998H302.513ZM306.593 41.8798V43.7598H311.953V45.0198H299.793V43.7598H305.133V41.8798H300.953V40.6798H305.133V38.9998H300.433V37.7398H311.353V38.9998H306.593V40.6798H310.853V41.8798H306.593ZM316.873 28.0598H329.513V33.7198H316.873V28.0598ZM328.093 30.3598V29.2398H318.293V30.3598H328.093ZM318.293 31.4198V32.5598H328.093V31.4198H318.293ZM324.053 42.8198L324.093 43.3998C323.873 43.4398 323.333 43.4998 322.653 43.5798V45.7598H321.313V43.7598C318.733 44.0598 315.293 44.4798 314.593 44.5998L314.453 43.3198C314.713 43.2998 315.333 43.2198 316.173 43.1198V36.1198H314.453V34.8998H331.933V36.1198H322.653V42.3198C323.293 42.2398 323.773 42.1798 324.013 42.1398L324.053 42.8198ZM321.313 37.6198V36.1198H317.533V37.6198H321.313ZM331.993 44.1998L331.413 45.5598C329.693 44.8998 328.413 44.1798 327.373 43.3598C326.373 44.2198 325.173 44.9598 323.733 45.6198L323.073 44.3398C324.413 43.8198 325.513 43.1998 326.413 42.4798C325.373 41.3998 324.633 40.1198 323.953 38.5798V37.3398H330.753V38.6798C330.213 40.0598 329.433 41.3198 328.393 42.4198C329.313 43.0998 330.493 43.6798 331.993 44.1998ZM329.233 38.5798H325.413C325.913 39.7398 326.533 40.7198 327.393 41.5798C328.233 40.6798 328.833 39.6798 329.233 38.5798ZM321.313 38.6798H317.533V40.1798H321.313V38.6798ZM317.533 41.2398V42.9598C318.753 42.8198 320.133 42.6398 321.313 42.4998V41.2398H317.533ZM340.613 31.3798H339.193V30.1598H334.553V28.8798H339.193V27.4198H340.613V28.8798H345.693V27.4198H347.173V28.8798H351.853V30.1598H347.173V31.3598H345.693V30.1598H340.613V31.3798ZM351.873 35.2598V36.5198H345.533C344.533 37.1198 343.453 37.6798 342.233 38.2398H349.553V45.6998H348.093V44.7998H339.353V45.6998H337.893V39.9598C336.913 40.2998 335.893 40.6398 334.773 40.9798L334.333 39.6398C337.813 38.6198 340.513 37.6198 342.753 36.5198H334.593V35.2598H341.573V33.5798H336.473V32.3598H341.573V31.0998H343.033V32.3598H347.213V33.5798H343.033V35.2598H345.033C346.773 34.1598 348.233 32.9398 349.613 31.4398L350.633 32.2598C349.653 33.3598 348.613 34.3598 347.393 35.2598H351.873ZM348.093 40.9398V39.4198H339.373H339.353V40.9398H348.093ZM339.353 42.0998V43.6598H348.093V42.0998H339.353ZM361.873 37.3598H370.333V45.7398H368.813V44.4598H359.573V45.7398H358.073V38.9198C357.053 39.2798 355.973 39.6198 354.833 39.9398L354.253 38.5398C360.953 36.7798 365.253 34.2598 368.313 30.9398H360.773C360.433 31.2998 360.073 31.6398 359.693 31.9798C360.573 32.6398 361.613 33.4398 362.393 34.0598L361.373 35.2198C360.533 34.5598 359.453 33.6798 358.553 32.9798C357.733 33.6798 356.833 34.3398 355.893 34.9598L354.953 33.6598C357.653 32.0198 360.433 29.2998 361.933 27.1998L363.353 27.7598C362.973 28.3398 362.533 28.9198 362.073 29.4998H370.313V30.9398C368.093 33.5798 365.413 35.6598 361.873 37.3598ZM359.573 38.7798V43.0998H368.813V38.7798H359.573ZM385.753 30.4998H391.293C391.273 31.3598 390.933 41.8798 390.893 42.6798C390.813 44.5798 390.073 45.2198 387.933 45.2198H385.413L385.113 43.6598H387.473C388.973 43.6598 389.413 43.3598 389.453 41.9198C389.493 41.1798 389.733 32.8598 389.773 32.0198H385.133C384.713 33.0198 384.213 33.9998 383.673 34.8998L382.353 34.0198C383.673 32.0198 384.773 29.1198 385.273 26.9998L386.753 27.3598C386.513 28.3398 386.173 29.4198 385.753 30.4998ZM378.173 27.1398L379.753 27.4198C379.593 28.2198 379.273 29.4598 378.993 30.4398H382.133V44.1998H376.693V45.5198H375.253V30.4398H377.373C377.693 29.4398 377.993 28.0398 378.173 27.1398ZM376.693 36.5798H380.693V31.9798H376.693V36.5798ZM387.933 38.9798L386.653 39.8798C385.833 38.6198 384.633 36.9598 383.793 35.8798L384.893 34.9798C385.813 36.0998 387.053 37.6998 387.933 38.9798ZM376.693 38.1198V42.6598H380.693V38.1198H376.693ZM403.713 33.7198L402.453 33.0398C403.733 31.2798 404.753 29.1998 405.453 27.2798L406.773 27.6998L406.173 29.2798H411.873V30.6598H408.413C408.793 31.2398 409.213 31.8998 409.513 32.4598L408.353 33.1198C407.933 32.3998 407.273 31.3198 406.873 30.6598H405.533C404.993 31.7598 404.393 32.7798 403.713 33.7198ZM398.433 30.6598H397.713C397.033 31.8198 396.213 32.9798 395.373 33.9598L394.353 32.7798C395.653 31.4798 397.173 28.8598 397.833 27.3198L399.233 27.6798C399.033 28.1798 398.773 28.7198 398.493 29.2798H403.473V30.6598H400.073C400.493 31.2198 400.993 31.9398 401.333 32.4998L400.133 33.1998C399.733 32.5398 398.913 31.3198 398.433 30.6598ZM398.453 33.1598L399.733 33.7198C399.393 34.4798 399.033 35.1998 398.673 35.8598V45.5798H397.193V38.1198C396.553 38.9398 395.833 39.7398 394.933 40.5398L394.253 39.1998C396.013 37.4998 397.353 35.4798 398.453 33.1598ZM409.033 35.7998H411.953V37.2998H409.033V43.1598C409.033 44.9198 408.473 45.4598 406.373 45.4598H403.873L403.573 43.9398H405.973C407.333 43.9398 407.533 43.6998 407.533 42.6998V37.2998H399.893V35.7998H407.533V33.6798H409.033V35.7998ZM404.953 41.1798L403.813 42.2198C403.073 41.2598 401.753 39.7798 401.033 38.9998L402.153 37.9998C402.833 38.7398 404.173 40.2198 404.953 41.1798ZM416.893 28.3398H429.453V33.6598H416.893V28.3398ZM418.493 32.3398H427.873V29.6798H418.493V32.3398ZM432.093 35.4998V36.8398H419.553L419.133 38.9198H429.253C429.213 39.4598 429.013 41.9198 428.953 42.4998C428.693 44.7598 427.993 45.2998 425.193 45.2998H420.993L420.713 43.7998H424.733C426.713 43.7998 427.093 43.6198 427.253 42.1598C427.293 41.6998 427.413 40.6798 427.433 40.2398H417.173L417.873 36.8398H414.293V35.4998H432.093ZM443.953 43.3198H451.933L451.613 44.8598H444.093C440.873 44.8598 439.653 44.2798 438.373 42.8198C437.913 42.2398 437.633 42.0398 437.473 42.0398C437.273 42.0398 437.133 42.1598 436.653 42.6998C436.273 43.2198 435.593 44.0998 435.013 44.9798L434.193 43.2998C434.733 42.5398 435.493 41.5198 436.033 40.8998C436.613 40.2598 436.913 40.1198 437.373 40.1198C437.573 40.1198 437.793 40.1598 438.013 40.2998C441.913 38.0998 446.053 34.6398 448.233 32.4198H435.913V30.8798H442.633C442.213 29.8398 441.533 28.2798 441.253 27.6998L442.753 27.2798C443.113 27.9998 443.933 29.8998 444.353 30.8798H450.413V32.4198C447.973 35.1798 443.293 39.0998 439.193 41.4598C440.353 42.8198 441.333 43.3198 443.953 43.3198ZM454.393 35.0998H471.933V36.8398H454.393V35.0998ZM477.273 47.3398L476.793 46.5198C477.793 46.0398 478.253 45.3798 478.253 44.3398H477.113V42.2398H479.193V44.3398C479.193 45.5398 478.693 46.6198 477.273 47.3398ZM496.953 28.2998H509.233V35.2798H496.953V28.2998ZM507.713 31.1798V29.5598H498.493V31.1798H507.713ZM498.493 32.3998V34.0598H507.713V32.3998H498.493ZM504.333 43.7998H511.993L511.713 45.1598H504.373C501.253 45.1598 499.353 44.5798 497.873 42.4798C497.233 43.7798 496.393 44.8798 495.353 45.9598L494.233 44.8798C496.013 43.1398 496.993 41.4798 497.533 38.8598L498.993 39.1198C498.853 39.7798 498.673 40.3998 498.493 40.9798C499.493 42.6998 500.773 43.4398 502.573 43.6998V38.1998H494.553V36.8998H511.773V38.1998H504.093V40.0798H510.393V41.3598H504.093V43.7998H504.333ZM519.353 34.7998L515.193 35.2198L514.893 34.0398C516.353 32.3798 518.253 29.4398 519.193 27.5798L520.553 28.1998C519.673 29.8398 517.893 32.5798 516.913 33.7998L520.273 33.4998C520.973 32.4998 521.613 31.5198 522.093 30.6598L523.333 31.3398C522.013 33.6598 519.173 37.5598 517.893 38.9998L522.373 38.5598L522.313 40.0398L515.773 40.6198L515.513 39.3198C516.533 38.3598 517.993 36.6198 519.353 34.7998ZM527.293 34.7798L523.113 35.1598L522.853 33.8998C524.133 32.5598 526.153 29.4598 527.093 27.5998L528.393 28.2398C527.513 29.8798 525.793 32.6198 524.893 33.6998L528.393 33.3598C529.053 32.4398 529.653 31.5598 530.113 30.8198L531.333 31.4998C529.973 33.7198 527.013 37.5198 525.733 38.8598L531.193 38.3798L531.153 39.8198L523.553 40.4398L523.353 39.1598C524.513 38.1398 525.973 36.4798 527.293 34.7798ZM514.153 44.7398V43.2998H532.213V44.7398H514.153ZM537.713 34.4798L534.633 34.9398L534.353 33.5798C535.693 31.7998 536.953 29.2398 537.873 27.2598L539.113 27.8398C538.173 29.7598 536.973 32.0798 536.093 33.3998L538.533 33.0998C538.893 32.4398 539.233 31.8398 539.513 31.2598L540.793 31.9598C539.593 34.1798 537.993 36.5798 536.633 38.4798L539.773 37.9998L539.813 39.3998L534.953 40.1398L534.653 38.6798C535.853 37.2598 536.873 35.8398 537.713 34.4798ZM540.853 35.7598V28.5198H551.053V43.1798C551.053 44.8598 550.553 45.3598 548.693 45.3598H546.933L546.653 44.0198H548.393C549.533 44.0198 549.753 43.8398 549.753 42.7598V29.8998H542.173V36.0598C542.173 41.2798 541.913 42.8998 540.273 45.5998L538.993 44.9198C540.593 42.2598 540.853 40.9198 540.853 35.7598ZM542.633 36.4198V35.1598H545.273V33.3398H543.013V32.1198H545.273V30.3998H546.533V32.1198H548.793V33.3398H546.533V35.1598H549.193V36.4198H542.633ZM543.473 38.0598H548.193V42.8598H543.473V38.0598ZM544.653 41.6598H547.013V39.2598H544.653V41.6598ZM534.373 42.6398L539.673 41.6398L539.753 43.1798L534.593 44.1598L534.373 42.6398ZM563.953 43.3198H571.933L571.613 44.8598H564.093C560.873 44.8598 559.653 44.2798 558.373 42.8198C557.913 42.2398 557.633 42.0398 557.473 42.0398C557.273 42.0398 557.133 42.1598 556.653 42.6998C556.273 43.2198 555.593 44.0998 555.013 44.9798L554.193 43.2998C554.733 42.5398 555.493 41.5198 556.033 40.8998C556.613 40.2598 556.913 40.1198 557.373 40.1198C557.573 40.1198 557.793 40.1598 558.013 40.2998C561.913 38.0998 566.053 34.6398 568.233 32.4198H555.913V30.8798H562.633C562.213 29.8398 561.533 28.2798 561.253 27.6998L562.753 27.2798C563.113 27.9998 563.933 29.8998 564.353 30.8798H570.413V32.4198C567.973 35.1798 563.293 39.0998 559.193 41.4598C560.353 42.8198 561.333 43.3198 563.953 43.3198ZM587.793 34.5798C588.893 35.3198 590.233 35.8798 591.953 36.3798L591.413 37.7398C589.433 37.0998 587.913 36.3998 586.673 35.4798C585.413 36.3598 583.873 37.1398 581.973 37.8198L581.393 36.5198C583.033 35.9398 584.413 35.2998 585.573 34.5398C584.833 33.7998 584.173 32.9598 583.533 31.9198C583.113 32.4398 582.653 32.9598 582.173 33.4398L581.333 32.3398C582.733 30.8998 584.153 28.9398 584.913 27.0998L586.273 27.4998C586.033 28.0398 585.773 28.5798 585.473 29.0998H590.913V30.4398C590.113 32.0398 589.133 33.3998 587.793 34.5798ZM581.553 42.1798L581.573 42.9398L581.593 43.6598C580.853 43.7598 575.293 44.6598 574.553 44.7798L574.373 43.3598L575.273 43.2198V36.1198H576.553V43.0198L577.973 42.7798V34.3998H575.393V28.3798H581.053V34.3998H579.333V37.4398H581.433V38.8198H579.333V42.5398C580.373 42.3798 581.253 42.2198 581.553 42.1798ZM579.753 29.7398H576.673V33.0398H579.753V29.7398ZM584.413 30.7798C585.073 31.9798 585.793 32.9398 586.693 33.7198C587.793 32.8198 588.673 31.7398 589.433 30.4198H584.653L584.413 30.7798ZM584.133 45.6998H582.713V38.2198H590.613V45.6998H589.193V44.3598H584.133V45.6998ZM589.193 43.0798V39.5398H584.133V43.0798H589.193ZM611.913 43.9198L611.253 45.5798C607.813 44.3398 605.193 42.9798 603.173 41.2798C601.173 42.9798 598.573 44.3598 595.173 45.6998L594.433 44.0598C597.693 42.8798 600.153 41.6598 601.993 40.1598C599.993 38.0598 598.673 35.4598 597.753 31.9998H594.593V30.5198H602.893C602.613 29.6998 602.053 28.3598 601.793 27.6798L603.413 27.3398C603.713 27.9998 604.273 29.5198 604.693 30.5198H611.713V31.9998H608.493C607.653 35.4598 606.373 38.0598 604.353 40.1798C606.253 41.6998 608.713 42.8798 611.913 43.9198ZM606.833 31.9998H599.353C600.133 34.9798 601.333 37.2798 603.153 39.1198C604.973 37.2598 606.093 34.9998 606.833 31.9998ZM623.473 28.4798H630.933V42.9998C630.933 44.7798 630.333 45.3198 628.393 45.3198H626.433L626.133 43.8398H628.093C629.253 43.8398 629.513 43.6198 629.513 42.5998V39.6398H624.693C624.273 42.2998 623.233 43.8798 621.073 45.8998L619.873 44.9598C623.073 42.0598 623.473 40.7198 623.473 35.1598V28.4798ZM621.313 28.9198V42.1398H616.693V43.5198H615.353V28.9198H621.313ZM629.513 33.4598V29.9798H624.913V33.4598H629.513ZM619.953 34.7598V30.3998H616.693V34.7598H619.953ZM624.833 38.2198H629.513V34.8798H624.913V35.8998C624.913 36.7598 624.893 37.5198 624.833 38.2198ZM616.693 36.2198V40.6798H619.953V36.2198H616.693ZM649.053 33.1998L648.333 43.1198H651.913V44.5998H634.433V43.1198H646.713L646.953 40.0598H637.093L638.693 30.2798H635.053V28.7598H651.353V30.2798H640.373L639.873 33.1998H649.053ZM639.613 34.7198L638.953 38.5398H647.073L647.393 34.7198H639.613ZM671.773 30.5798H664.733C664.213 31.4598 663.613 32.2998 663.013 33.0198L661.813 32.2798C663.073 30.8198 664.173 28.8598 664.753 27.2598L666.213 27.6198C666.013 28.1198 665.773 28.6598 665.493 29.1998H671.773V30.5798ZM659.693 27.3398H661.113V34.0598H659.693V27.3398ZM655.673 27.8798H657.033V34.0198H655.673V27.8798ZM669.873 33.5798L668.973 34.5798C668.133 33.7998 666.713 32.5398 665.973 31.8998L666.793 30.9398C667.533 31.5598 669.013 32.8198 669.873 33.5798ZM667.713 37.3798V38.4198H663.893V39.8598H670.353V41.1598H668.113L668.973 41.6998C668.353 42.5198 667.793 43.1598 667.133 43.8998H671.613V45.1998H654.733V43.8998H659.153C658.573 43.1598 657.953 42.4798 657.393 41.8398L658.173 41.1598H655.993V39.8598H662.433V38.4198H658.613V37.4798C657.433 38.0198 656.133 38.5198 654.713 38.9798L654.213 37.5798C657.813 36.5198 660.513 35.1198 662.513 33.3398H663.833C665.753 35.0598 668.233 36.3598 672.093 37.4398L671.633 38.8398C670.213 38.3798 668.893 37.9198 667.713 37.3798ZM663.173 34.5998C662.133 35.5398 660.833 36.3998 659.293 37.1598H667.213C665.613 36.4198 664.253 35.5798 663.173 34.5998ZM662.433 41.1598H658.493C659.033 41.7398 659.673 42.4398 660.273 43.1998L659.313 43.8998H662.433V41.1598ZM667.733 41.1598H663.893V43.8998H666.713L665.913 43.3198C666.693 42.4998 667.173 41.9198 667.733 41.1598ZM685.753 30.4998H691.293C691.273 31.3598 690.933 41.8798 690.893 42.6798C690.813 44.5798 690.073 45.2198 687.933 45.2198H685.413L685.113 43.6598H687.473C688.973 43.6598 689.413 43.3598 689.453 41.9198C689.493 41.1798 689.733 32.8598 689.773 32.0198H685.133C684.713 33.0198 684.213 33.9998 683.673 34.8998L682.353 34.0198C683.673 32.0198 684.773 29.1198 685.273 26.9998L686.753 27.3598C686.513 28.3398 686.173 29.4198 685.753 30.4998ZM678.173 27.1398L679.753 27.4198C679.593 28.2198 679.273 29.4598 678.993 30.4398H682.133V44.1998H676.693V45.5198H675.253V30.4398H677.373C677.693 29.4398 677.993 28.0398 678.173 27.1398ZM676.693 36.5798H680.693V31.9798H676.693V36.5798ZM687.933 38.9798L686.653 39.8798C685.833 38.6198 684.633 36.9598 683.793 35.8798L684.893 34.9798C685.813 36.0998 687.053 37.6998 687.933 38.9798ZM676.693 38.1198V42.6598H680.693V38.1198H676.693ZM704.393 38.4998V43.1998H711.973V44.6798H694.793V43.1998H702.793V38.4998H696.533V36.9998H702.793V32.8998H698.033C697.453 34.1798 696.793 35.3198 696.013 36.3998L694.673 35.5798C696.193 33.5598 697.293 31.1798 698.053 28.1998L699.573 28.5598C699.293 29.5798 698.993 30.5198 698.673 31.3798H702.793V27.4598H704.393V31.3798H711.233V32.8998H704.393V36.9998H710.553V38.4998H704.393ZM726.573 31.2798H731.253C731.213 32.6598 730.953 40.8798 730.873 42.5798C730.793 44.4398 730.113 45.0198 728.113 45.0198H726.013L725.713 43.5398H727.513C729.013 43.5398 729.373 43.2198 729.453 41.8398C729.533 40.5798 729.753 34.1198 729.793 32.7798H726.533C726.293 39.8598 725.953 42.0998 723.033 45.7998L721.693 44.8798C724.433 41.5798 724.933 39.6598 725.113 32.7798H722.933V31.2798H725.133C725.173 29.7598 725.213 27.6198 725.213 27.3998H726.633C726.633 27.5998 726.613 29.5998 726.573 31.2798ZM715.293 28.9598H722.253V30.4398H715.293V28.9598ZM722.933 42.9598L721.613 43.6398L721.273 42.6998L714.933 43.3998L714.693 42.1198C715.813 40.1998 716.893 37.5198 717.493 35.4598H714.453V34.0398H722.873V35.4598H719.013C718.433 37.4598 717.193 40.5398 716.513 41.8398L720.773 41.3998C720.293 40.0798 719.733 38.6598 719.313 37.6998L720.633 37.1998C721.253 38.6598 722.313 41.3598 722.933 42.9598ZM747.873 29.9198H738.533V39.4598H736.953V28.4198H749.433V39.4398H747.873V29.9198ZM750.273 39.6398L751.773 39.9598C751.753 40.3798 751.693 42.1998 751.653 42.7998C751.533 44.5998 750.853 45.0998 748.753 45.0998H745.853C744.033 45.0998 743.333 44.4998 743.333 42.5398V38.6398C742.333 41.5598 739.933 43.6398 735.293 45.7398L734.313 44.3798C740.573 41.6998 742.153 39.4598 742.313 35.1398C742.333 34.4598 742.393 31.8398 742.393 31.1398H743.993C743.993 31.8198 743.933 34.5798 743.913 35.2398C743.873 36.1798 743.773 37.0198 743.573 37.8198H744.853V42.0798C744.853 43.2998 745.213 43.6198 746.353 43.6198H748.473C749.853 43.6198 750.173 43.3398 750.213 42.1198C750.233 41.5998 750.273 39.9798 750.273 39.6398ZM759.053 31.1998L757.813 32.1598C757.233 31.3198 755.873 29.5598 755.193 28.6598L756.393 27.7998C757.073 28.6198 758.433 30.3398 759.053 31.1998ZM767.293 37.1598V43.1998H771.873V44.6998H759.053V43.1998H761.293V33.2198H762.793V43.1998H765.693V30.2998H760.213V28.7398H771.573V30.2998H767.293V35.5798H771.173V37.1598H767.293ZM757.853 41.6798L759.813 39.8798L760.273 41.4598L756.793 44.6198L755.853 43.3998C756.293 42.8398 756.373 42.6398 756.373 42.1398V35.1998H754.413V33.6398H757.853V41.6798ZM775.433 43.0398C775.433 41.4398 776.573 40.3198 778.173 40.3198C779.773 40.3198 780.913 41.4398 780.913 43.0398C780.913 44.6398 779.773 45.7798 778.173 45.7798C776.573 45.7798 775.433 44.6398 775.433 43.0398ZM776.493 43.0398C776.493 44.0198 777.193 44.7198 778.173 44.7198C779.153 44.7198 779.853 44.0198 779.853 43.0398C779.853 42.0598 779.153 41.3598 778.173 41.3598C777.193 41.3598 776.493 42.0598 776.493 43.0398Z" fill="#EEDAB3" fill-opacity="0.84"/>
</svg>
