<svg width="195" height="23" viewBox="0 0 195 23" fill="none" xmlns="http://www.w3.org/2000/svg">
<path d="M7.9201 5.40006H6.1681V4.00806H0.552102V2.40006H6.1681V0.288062H7.9201V2.40006H13.5121V0.288062H15.2641V2.40006H20.8561V4.00806H15.2641V5.40006H13.5121V4.00806H7.9201V5.40006ZM20.8561 17.2081H12.0001C13.5121 18.8881 16.2001 20.0881 21.2401 20.6401L20.8801 22.3441C15.7681 21.6241 12.6241 20.3521 10.7761 18.1681C9.4801 20.0881 6.5521 21.5761 0.456102 22.4641L0.000101596 20.7361C5.4961 20.0641 8.1841 19.0561 9.2401 17.2081H0.552102V15.7201H9.7441L9.7681 15.4801C9.7921 15.2881 9.7921 14.4961 9.7921 13.8961H2.8561V6.14406H18.5761V13.8961H11.6401C11.6401 14.4961 11.6161 15.2881 11.6161 15.4801C11.6161 15.5521 11.6161 15.6481 11.5921 15.7201H20.8561V17.2081ZM16.8721 9.28806V7.60806H4.5601V9.28806H16.8721ZM16.8721 10.6801H4.5601V12.4561H16.8721V10.6801ZM36.1681 2.47206H45.2641V3.96006H24.2401V2.47206H34.0561C33.7441 1.80006 33.4081 1.10406 33.1441 0.624062L35.0161 6.10352e-05C35.3041 0.576062 35.8081 1.65606 36.1681 2.47206ZM27.6721 10.1521V5.59206H41.8321V10.1521H27.6721ZM29.4241 8.76006H40.0561V6.98406H29.4241V8.76006ZM27.3361 22.0801H25.5361V11.8801H43.9681V19.3201C43.9681 21.2881 43.3201 21.8881 41.1361 21.8881H38.5201L38.2081 20.3281H40.4881C41.8801 20.3281 42.1681 20.0401 42.1681 18.8401V13.2961H27.3361V22.0801ZM30.1441 15.0001H39.3601V19.6561H30.1441V15.0001ZM31.8481 18.2881H37.6561V16.3441H31.8481V18.2881ZM66.5041 3.84006H50.9041V5.90406H49.0801V2.42406H58.2001C57.9361 1.68006 57.5761 0.792061 57.4321 0.456061L59.3041 0.168062C59.4241 0.504062 59.8321 1.60806 60.1441 2.42406H68.3761V5.90406H66.5041V3.84006ZM60.1921 5.61606L60.6241 4.27206C62.0881 4.72806 66.6721 6.21606 68.5441 6.81606L68.0641 8.13606L67.2001 7.82406V12.0481H52.4881C52.4641 16.7041 51.7201 19.3201 49.9681 22.2721L48.3841 21.3121C50.2081 18.2641 50.7841 16.1041 50.7841 11.6881V7.72806L49.5601 8.08806L49.1281 6.67206C51.6961 6.04806 54.8161 5.01606 56.7361 4.17606L57.2881 5.49606C55.6081 6.14406 53.4481 6.91206 51.3361 7.56006H66.4081C64.2961 6.86406 61.5841 6.00006 60.1921 5.61606ZM52.4881 10.7041H65.4961V8.88006H52.4881V10.7041ZM61.2961 19.9441H65.8801V17.2561H67.5601V22.2481H65.8801V21.3601H53.4241V17.3041H55.1041V19.9441H59.6641V16.4641H54.0241V13.0801H55.6801V15.0961H59.6641V12.4081H61.2961V15.0961H65.2321V13.1041H66.9121V16.4641H61.2961V19.9441ZM80.497 22.2721V2.16006H99.001V22.2721H97.201V20.4721H82.273V22.2721H80.497ZM82.273 3.88806V18.6961H97.201V14.5921H94.537C92.377 14.5921 91.441 13.8961 91.441 11.6161V3.88806H88.009V7.56006C88.009 11.8321 87.145 13.3441 84.073 15.9121L82.753 14.6881C85.705 12.3841 86.233 11.1361 86.233 7.48806V3.88806H82.273ZM95.065 12.7681H97.201V3.88806H93.193V10.9441C93.193 12.4321 93.553 12.7681 95.065 12.7681ZM109.273 21.0001C105.409 21.0001 103.153 17.8561 103.153 11.7841C103.153 5.71206 105.409 2.56806 109.273 2.56806C113.161 2.56806 115.393 5.71206 115.393 11.7841C115.393 17.8561 113.161 21.0001 109.273 21.0001ZM109.273 19.0801C111.769 19.0801 113.257 16.6321 113.257 11.7841C113.257 6.93606 111.769 4.48806 109.273 4.48806C106.777 4.48806 105.289 6.93606 105.289 11.7841C105.289 16.6321 106.777 19.0801 109.273 19.0801ZM136.292 17.4961L136.436 14.3281L138.284 14.7841C138.284 14.8081 138.14 17.7601 138.092 18.5041C137.972 20.7601 136.964 21.3361 134.396 21.3361H129.284C126.524 21.3361 125.492 20.5681 125.492 17.8801V10.5121L118.652 11.5921L118.364 9.64806L125.492 8.52006V0.504062H127.484V8.20806L139.196 6.38406L139.412 8.30406L127.484 10.2001V17.4961C127.484 19.1041 127.796 19.4881 129.524 19.4881H134.012C135.932 19.4881 136.22 19.2721 136.292 17.4961ZM160.676 3.84006H145.076V5.90406H143.252V2.42406H152.372C152.108 1.68006 151.748 0.792061 151.604 0.456061L153.476 0.168062C153.596 0.504062 154.004 1.60806 154.316 2.42406H162.548V5.90406H160.676V3.84006ZM154.364 5.61606L154.796 4.27206C156.26 4.72806 160.844 6.21606 162.716 6.81606L162.236 8.13606L161.372 7.82406V12.0481H146.66C146.636 16.7041 145.892 19.3201 144.14 22.2721L142.556 21.3121C144.38 18.2641 144.956 16.1041 144.956 11.6881V7.72806L143.732 8.08806L143.3 6.67206C145.868 6.04806 148.988 5.01606 150.908 4.17606L151.46 5.49606C149.78 6.14406 147.62 6.91206 145.508 7.56006H160.58C158.468 6.86406 155.756 6.00006 154.364 5.61606ZM146.66 10.7041H159.668V8.88006H146.66V10.7041ZM155.468 19.9441H160.052V17.2561H161.732V22.2481H160.052V21.3601H147.596V17.3041H149.276V19.9441H153.836V16.4641H148.196V13.0801H149.852V15.0961H153.836V12.4081H155.468V15.0961H159.404V13.1041H161.084V16.4641H155.468V19.9441ZM194.229 2.49606V3.93606H185.469C185.205 4.44006 184.941 4.94406 184.653 5.40006H192.717V6.76806H189.309V8.49606H193.989V9.86406H182.325V8.49606H187.653V6.76806H184.629V5.44806C183.573 7.20006 182.301 8.64006 180.741 9.96006L179.709 8.71206C181.365 7.29606 182.661 5.78406 183.669 3.93606H181.149V2.49606H184.365C184.653 1.77606 184.917 1.03206 185.157 0.216061L186.813 0.480062C186.597 1.20006 186.357 1.87206 186.093 2.49606H194.229ZM180.309 1.63206V3.36006L178.653 9.02406C179.925 11.2321 180.405 12.9121 180.405 14.6641C180.405 17.2321 179.733 18.0481 177.429 18.0481H176.589L176.253 16.3201H176.997C178.245 16.3201 178.725 16.0321 178.749 14.3041C178.773 12.9361 178.173 11.2801 176.901 9.33606L178.557 3.31206H175.869V22.2001H174.237V1.63206H180.309ZM183.693 22.0081H182.061V11.4481H193.053V19.3201C193.053 21.4081 192.477 21.9361 190.269 21.9361H187.941L187.677 20.4241H189.957C191.181 20.4241 191.469 20.1361 191.469 19.1041V18.6721H183.693V22.0081ZM191.469 14.4001V12.9361H183.693V14.4001H191.469ZM183.693 15.8161V17.2081H191.469V15.8161H183.693Z" fill="#EEDAB3"/>
</svg>
