<svg width="138" height="121" viewBox="0 0 138 121" fill="none" xmlns="http://www.w3.org/2000/svg">
<path d="M5.664 68.772H9.024V60.612H5.664V68.772ZM9.024 51.652H5.664V59.684H9.024V51.652ZM10.4 48.836L13.888 51.588C13.664 51.844 13.216 52.1 12.576 52.26V71.684C12.544 71.972 10.848 72.74 9.6 72.74H9.024V69.7H5.664V73.348C5.664 73.604 4.576 74.436 2.784 74.436H2.176V49.252L6.08 50.756H8.704L10.4 48.836ZM13.984 59.556L14.304 59.396C23.68 62.98 19.936 70.404 16.48 67.172C16.512 64.548 15.296 61.668 13.984 59.556ZM26.624 55.3L28.448 52.388C28.448 52.388 30.496 54.404 31.616 55.716C31.52 56.068 31.2 56.228 30.752 56.228H26.336V72.804C26.336 75.428 25.664 76.964 20.928 77.38C20.768 76.132 20.512 75.3 19.84 74.724C19.168 74.116 18.304 73.7 16.224 73.348V72.932C16.224 72.932 20.768 73.22 21.632 73.22C22.24 73.22 22.464 72.996 22.464 72.516V56.228H13.12L12.864 55.3H22.464V47.748L27.52 48.228C27.456 48.708 27.136 49.028 26.336 49.156V55.3H26.624ZM54.368 48.612L54.624 48.388C63.2 48.772 60.8 55.108 57.44 53.156C56.96 51.556 55.584 49.7 54.368 48.612ZM40.352 56.132L42.24 56.836C42.112 57.124 41.824 57.348 41.216 57.444V76.26C41.184 76.548 39.648 77.348 38.208 77.348H37.504V60.004C36.096 61.636 34.56 63.044 32.928 64.228L32.544 63.972C35.328 60.004 38.144 53.604 39.552 47.268L44.896 48.964C44.768 49.38 44.384 49.668 43.648 49.636C42.688 52.036 41.568 54.18 40.352 56.132ZM62.816 67.94L62.08 73.316C63.264 75.172 63.424 76.1 62.912 76.644C61.504 78.148 58.816 76.868 57.216 75.62C52.32 71.62 50.08 65.796 49.12 58.948L42.592 59.716L42.24 58.852L48.992 58.052C48.576 54.82 48.448 51.364 48.448 47.78L53.44 48.388C53.376 48.804 53.088 49.188 52.288 49.316C52.224 52.132 52.32 54.948 52.608 57.636L56.736 57.156L58.624 54.244C58.624 54.244 61.248 55.684 62.912 56.804C62.848 57.156 62.528 57.38 62.08 57.444L52.704 58.532C53.472 64.132 55.296 69.028 59.36 71.94C59.872 72.388 60.096 72.388 60.416 71.844C60.96 71.012 61.856 69.284 62.464 67.876L62.816 67.94ZM74.592 60.164V55.94C73.088 56.772 71.104 57.828 68.512 59.076C68.352 59.524 68.064 59.78 67.744 59.844L65.568 56.036C67.264 55.908 70.816 55.428 74.592 54.884V52.068H66.816L66.528 51.14H74.592V47.268L79.328 47.716C79.264 48.164 79.008 48.484 78.144 48.612V59.268C78.144 59.556 76.608 60.164 75.232 60.164H74.592ZM74.848 69.7H85.504V66.436H74.848V69.7ZM85.504 62.436H74.848V65.54H85.504V62.436ZM85.184 61.508L86.88 59.588L90.56 62.404C90.368 62.596 89.952 62.884 89.28 63.012V73.252C89.28 75.62 88.704 76.996 84.512 77.348C84.416 76.26 84.288 75.428 83.872 74.916C83.392 74.404 82.752 73.988 81.248 73.764V73.316C81.248 73.316 84.096 73.508 84.864 73.508C85.376 73.508 85.504 73.284 85.504 72.9V70.596H74.848V76.132C74.848 76.516 73.28 77.348 71.712 77.348H71.136V59.94L75.072 61.508H85.184ZM93.024 53.188L93.152 55.876C94.112 56.292 94.368 56.676 94.368 57.316C94.368 58.724 92.992 59.332 88.16 59.332H85.12C82.112 59.332 81.504 58.692 81.504 56.388V47.3L85.952 47.684C85.92 48.1 85.6 48.388 84.96 48.484V52.004C87.008 50.884 89.216 49.412 90.4 48.388L93.856 51.492C93.472 51.812 92.832 51.812 91.936 51.492C90.144 52.004 87.488 52.612 84.96 52.996V55.588C84.96 56.068 85.088 56.196 85.984 56.196H88.544C89.472 56.196 90.304 56.164 90.72 56.132C91.04 56.132 91.328 56.036 91.52 55.844C91.808 55.492 92.224 54.468 92.704 53.188H93.024ZM118.176 50.18H105.984V52.676H118.176V50.18ZM105.984 56.132H118.176V53.604H105.984V56.132ZM105.984 57.06V57.892C105.984 58.244 104.32 58.98 102.816 58.98H102.272V47.716L106.208 49.284H117.856L119.584 47.396L123.264 50.116C123.04 50.372 122.624 50.692 121.952 50.82V57.54C121.92 57.732 120.032 58.372 118.816 58.372H118.176V57.06H105.984ZM106.816 64.036V67.62H117.28V64.036H106.816ZM117.28 68.516H113.92V73.156C113.92 75.588 113.312 77.06 109.248 77.38C109.216 76.292 109.088 75.46 108.64 74.98C108.288 74.5 107.68 74.052 106.176 73.86V73.412C106.176 73.412 108.928 73.604 109.568 73.604C110.016 73.604 110.144 73.412 110.144 73.092V68.516H106.816V68.9C106.816 69.124 106.016 69.54 105.056 69.796L108.576 71.428C108.48 71.748 108.192 71.94 107.424 71.844C105.408 73.86 101.632 75.812 97.856 76.644L97.632 76.26C100.128 74.692 102.528 72.132 103.84 70.02H103.552H103.04V61.572L107.008 63.108H116.96L118.688 61.22L122.4 64.004C122.208 64.228 121.76 64.516 121.12 64.644V68.836C121.088 69.06 119.136 69.668 117.952 69.668H117.28V68.516ZM115.648 70.66L115.776 70.244C128.352 70.628 125.472 78.436 121.792 76.452C121.024 74.948 118.784 72.452 115.648 70.66ZM121.568 60.068L123.456 57.636C123.456 57.636 125.6 59.3 126.88 60.452C126.784 60.804 126.464 60.964 125.984 60.964H97.568L97.312 60.068H110.944C110.72 59.076 109.856 57.988 109.12 57.476L109.344 57.252C114.272 56.42 114.4 59.172 112.96 60.068H121.568Z" fill="#EEDAB3"/>
</svg>
