<svg width="128" height="121" viewBox="0 0 128 121" fill="none" xmlns="http://www.w3.org/2000/svg">
<path d="M17.952 47.396L18.208 47.204C26.848 48.388 23.456 54.692 20.128 52.196C19.904 50.532 18.88 48.644 17.952 47.396ZM18.368 53.892H12.416L12.16 52.964H25.888L27.744 50.308C27.744 50.308 29.92 52.132 31.168 53.38C31.072 53.732 30.752 53.892 30.272 53.892H20.512L23.168 54.756C23.04 55.076 22.688 55.332 22.08 55.332C20.608 56.996 18.24 59.012 16.064 60.452C17.728 60.42 19.872 60.356 22.112 60.292C23.104 58.916 24 57.444 24.832 55.844L29.024 58.116C28.832 58.436 28.448 58.564 27.68 58.436C23.2 64.708 17.696 68.58 10.784 71.108L10.528 70.628C14.592 68.356 18.112 65.508 21.088 61.7C19.456 62.212 17.568 62.82 15.488 63.396C15.168 63.844 14.848 64.132 14.496 64.26L13.28 60.42C13.28 60.42 13.92 60.292 14.24 60.1C15.68 59.012 17.536 55.94 18.368 53.892ZM9.024 55.94V59.332C15.904 62.34 12.928 67.396 10.464 65.092C10.464 63.492 9.76 61.604 9.024 60.132V76.26C9.024 76.612 7.52 77.38 6.208 77.38H5.504V64.484C4.256 66.5 2.752 68.356 0.96 70.02L0.576 69.636C2.912 65.924 4.384 60.804 5.12 55.94H1.28L1.024 55.012H5.504V47.268L10.176 47.716C10.112 48.196 9.888 48.516 9.024 48.644V55.012H9.472L11.072 52.836C11.072 52.836 12.832 54.372 13.92 55.428C13.824 55.78 13.504 55.94 13.056 55.94H9.024ZM9.952 77.316L9.76 76.836C16.672 73.7 22.56 69.348 26.784 61.7L31.168 64.132C30.912 64.516 30.528 64.612 29.728 64.484C28.224 66.5 26.656 68.196 24.96 69.668C34.048 72.42 31.104 79.044 27.488 76.516C26.912 74.5 25.44 72.228 24.032 70.436C19.936 73.764 15.328 75.844 9.952 77.316ZM36.896 56.996L37.312 56.964C39.712 62.788 38.784 66.82 37.28 68.964C36.256 70.532 34.432 70.724 33.44 69.732C32.704 68.804 32.928 67.652 33.728 66.756C35.36 65.252 36.96 61.284 36.896 56.996ZM56 57.668C67.616 64.676 62.368 73.412 59.328 69.412C59.136 66.308 58.272 61.38 55.712 57.924L56 57.668ZM40.96 53.124L45.856 53.604C45.824 54.02 45.536 54.372 44.736 54.468V71.044C44.736 71.844 45.12 72.1 46.56 72.1H50.464C51.904 72.1 53.088 72.068 53.664 72.036C54.208 71.972 54.496 71.844 54.752 71.46C55.168 70.788 55.776 68.9 56.48 66.468H56.832L56.96 71.684C58.112 72.132 58.4 72.58 58.4 73.316C58.4 75.108 56.8 75.908 50.112 75.908H46.016C42.208 75.908 40.96 75.236 40.96 72.164V53.124ZM45.952 47.78C57.12 51.492 54.08 59.716 50.176 56.74C49.568 53.764 47.584 50.308 45.664 47.972L45.952 47.78ZM76.896 64.356L77.056 63.908C85.696 63.076 84.288 68.804 81.472 67.716C80.832 66.788 79.136 65.316 76.896 64.356ZM74.368 68.964L74.432 68.516C87.904 67.204 87.104 74.148 83.648 73.316C82.112 72.068 78.528 70.116 74.368 68.964ZM70.816 73.892H89.088V50.628H75.712L79.776 52.324C79.648 52.644 79.36 52.708 78.752 52.644C78.496 53.188 78.176 53.732 77.824 54.308H82.944L84.864 52.548L87.936 55.236C87.712 55.588 87.392 55.652 86.624 55.716C85.568 57.38 84.256 58.884 82.624 60.196C84.64 60.932 86.848 61.444 89.024 61.732V62.116C87.712 62.468 86.88 63.556 86.496 65.156C84.128 64.356 81.984 63.332 80.16 61.956C77.664 63.492 74.688 64.708 71.296 65.476L71.072 65.06C73.888 63.94 76.416 62.372 78.528 60.516C77.472 59.492 76.608 58.308 75.872 56.9C74.72 58.308 73.312 59.588 71.84 60.644L71.584 60.26C73.504 57.604 74.976 53.476 75.552 50.628H70.816V73.892ZM82.848 55.236H77.184C76.928 55.588 76.672 55.94 76.384 56.292C77.344 57.412 78.592 58.34 80.064 59.076C81.184 57.892 82.144 56.612 82.848 55.236ZM90.592 47.684L94.208 50.564C93.984 50.852 93.536 51.108 92.864 51.236V75.94C92.832 76.228 91.072 77.156 89.696 77.156H89.088V74.788H70.816V75.908C70.816 76.388 69.344 77.316 67.744 77.316H67.104V48.036L71.104 49.7H88.768L90.592 47.684ZM115.808 56.612H109.632C108.864 57.572 108.032 58.532 107.296 59.364C109.664 59.332 111.744 59.396 113.536 59.524C114.496 58.692 115.232 57.732 115.808 56.612ZM108.64 51.716L113.344 53.412C113.216 53.732 112.896 54.02 111.808 53.924C111.392 54.436 110.912 55.044 110.368 55.716H120.832L122.24 53.956C121.696 54.18 121.152 54.372 120.672 54.532L120.352 54.34C120.736 53.636 121.248 52.612 121.6 51.716H108.64ZM125.824 67.62H114.688C117.536 70.276 122.688 72.004 127.36 72.548L127.328 72.932C125.856 73.348 124.736 74.596 124.352 76.516C119.52 74.884 116.096 72.004 113.92 67.812V76.388C113.92 76.644 112.192 77.316 110.624 77.316H109.952V70.468C106.624 73.124 102.144 75.172 97.088 76.516L96.864 76.1C101.28 74.02 105.12 70.788 107.424 67.62H97.696L97.44 66.692H109.952V63.78C106.912 64.516 103.136 64.9 98.272 65.156L98.176 64.676C103.712 63.908 107.872 62.916 110.944 61.316C108.416 60.772 105.6 60.356 102.56 60.036C103.296 59.204 104.288 57.956 105.248 56.612H98.976L98.72 55.716H105.888C106.912 54.148 107.904 52.644 108.416 51.716H102.016C102.08 53.412 101.344 54.564 100.384 55.012C99.424 55.46 98.016 55.14 97.728 53.956C97.44 52.868 98.144 52.068 99.104 51.684C100.032 51.3 101.056 50.212 100.96 49.092H101.408C101.664 49.668 101.824 50.244 101.92 50.788H111.424C111.2 50.692 110.976 50.564 110.752 50.404C110.816 49.252 110.144 47.972 109.312 47.364L109.536 47.14C115.296 46.916 115.008 49.988 113.184 50.788H121.568L123.424 48.996L126.656 52.004C126.4 52.26 126.08 52.324 125.408 52.356C124.768 52.804 123.872 53.252 122.944 53.668C123.552 54.116 125.024 55.236 126.016 56.1C125.952 56.452 125.632 56.612 125.184 56.612H120.16C119.456 57.924 118.656 59.012 117.728 59.972C127.584 61.508 123.744 65.38 120.608 64.324C119.072 63.588 117.056 62.82 114.592 62.18C113.696 62.596 112.736 63.012 111.648 63.332L115.104 63.652C115.04 64.1 114.784 64.388 113.92 64.516V66.692H121.344L123.232 64.196C123.232 64.196 125.408 65.892 126.688 67.108C126.592 67.46 126.272 67.62 125.824 67.62Z" fill="#EEDAB3"/>
</svg>
